<?xml version="1.0" encoding="UTF-8"?>
<svg width="22px" height="6px" viewBox="0 0 22 6" version="1.1" xmlns="http://www.w3.org/2000/svg" xmlns:xlink="http://www.w3.org/1999/xlink">
    <!-- Generator: Sketch 49.2 (51160) - http://www.bohemiancoding.com/sketch -->
    <title>3-dots</title>
    <desc>Created with Sketch.</desc>
    <defs></defs>
    <g id="•-Buyer-Designs" stroke="none" stroke-width="1" fill="none" fill-rule="evenodd">
        <g id="MM_Buyer_myProjects_AllProjects" transform="translate(-899.000000, -219.000000)">
            <g id="3-dots" transform="translate(894.000000, 206.000000)">
                <rect id="Rectangle" fill-opacity="0" fill="#1B1919" x="0" y="0" width="32" height="32" rx="2"></rect>
                <path d="M8,13.3333333 C6.53333333,13.3333333 5.33333333,14.5333333 5.33333333,16 C5.33333333,17.4666667 6.53333333,18.6666667 8,18.6666667 C9.46666667,18.6666667 10.6666667,17.4666667 10.6666667,16 C10.6666667,14.5333333 9.46666667,13.3333333 8,13.3333333 L8,13.3333333 Z M24,13.3333333 C22.5333333,13.3333333 21.3333333,14.5333333 21.3333333,16 C21.3333333,17.4666667 22.5333333,18.6666667 24,18.6666667 C25.4666667,18.6666667 26.6666667,17.4666667 26.6666667,16 C26.6666667,14.5333333 25.4666667,13.3333333 24,13.3333333 L24,13.3333333 Z M16,13.3333333 C14.5333333,13.3333333 13.3333333,14.5333333 13.3333333,16 C13.3333333,17.4666667 14.5333333,18.6666667 16,18.6666667 C17.4666667,18.6666667 18.6666667,17.4666667 18.6666667,16 C18.6666667,14.5333333 17.4666667,13.3333333 16,13.3333333 L16,13.3333333 Z" id="Shape" fill-opacity="0.7" fill="#000000"></path>
            </g>
        </g>
    </g>
</svg>