<?xml version="1.0" encoding="utf-8"?>
<!-- Generator: Adobe Illustrator 16.0.0, SVG Export Plug-In . SVG Version: 6.00 Build 0)  -->
<!DOCTYPE svg PUBLIC "-//W3C//DTD SVG 1.1//EN" "http://www.w3.org/Graphics/SVG/1.1/DTD/svg11.dtd">
<svg version="1.1" id="Layer_1" xmlns="http://www.w3.org/2000/svg" xmlns:xlink="http://www.w3.org/1999/xlink" x="0px" y="0px"
	 width="21px" height="22px" viewBox="0 0 21 22" enable-background="new 0 0 21 22" xml:space="preserve">
<g display="none">
	<g display="inline">
		<path fill="#424242" d="M12.724,18.794H2.521c-1.121,0-2.435-1.043-2.435-2.436c0-0.811,1.314-1.662,1.739-1.895l3.826-1.507
			c0.271-0.076,0.387-0.115,0.387-0.501c-0.387-0.464-1.7-2.165-1.7-3.595c0-2.28,1.546-4.135,3.439-4.135
			c1.894,0,3.439,1.855,3.439,4.096c0,1.469-1.43,3.208-1.777,3.634c-0.04,0.425,0.038,0.464,0.27,0.539l3.787,1.469
			c0.078,0.039,0.154,0.116,0.231,0.155c0.813,0.619,1.47,1.122,1.47,1.661v0.078C15.002,17.248,14.307,18.794,12.724,18.794z
			 M5.883,13.73l-3.71,1.468c-0.502,0.232-1.275,0.929-1.275,1.16c0,0.929,0.889,1.661,1.662,1.661h10.202
			c1.237,0,1.584-1.39,1.662-1.661c-0.078-0.231-0.85-0.811-1.16-1.042c-0.077-0.039-0.114-0.078-0.192-0.157l-3.672-1.39
			c-0.811-0.271-0.811-0.889-0.772-1.469v-0.116l0.077-0.077c0.464-0.502,1.662-2.087,1.662-3.208c0-1.816-1.198-3.324-2.667-3.324
			c-1.43,0-2.666,1.546-2.666,3.362c0,1.353,1.584,3.169,1.623,3.208l0.078,0.117v0.114C6.849,13.112,6.578,13.537,5.883,13.73z"/>
	</g>
	<g display="inline">
		<rect x="14.384" y="6.813" fill="#424242" width="6.569" height="0.773"/>
	</g>
	<g display="inline">
		<rect x="14.384" y="8.745" fill="#424242" width="6.569" height="0.773"/>
	</g>
	<g display="inline">
		<rect x="14.384" y="10.678" fill="#424242" width="6.569" height="0.772"/>
	</g>
</g>
<g>
	<g>
		<path fill="#424242" d="M8.897,19H1.848c-0.846,0-1.763-0.739-1.763-1.762c0-0.635,1.058-1.271,1.269-1.375l2.644-1.022
			c0.141-0.035,0.212-0.035,0.212-0.211c-0.283-0.353-1.199-1.517-1.199-2.503c0-1.622,1.093-2.926,2.467-2.926
			c1.34,0,2.467,1.304,2.467,2.926c0,1.021-0.952,2.186-1.233,2.538c0,0.212,0,0.212,0.141,0.246l2.643,1.021l0.142,0.106
			c0.599,0.424,1.057,0.812,1.057,1.234v0.069C10.554,17.873,10.061,19,8.897,19z M4.174,15.509l-2.573,1.022
			c-0.317,0.144-0.811,0.566-0.846,0.742c0,0.563,0.599,1.056,1.058,1.056h7.049c0.741,0,0.987-0.844,1.057-1.056
			c-0.07-0.143-0.563-0.494-0.739-0.635l-0.106-0.071l-2.503-0.951c-0.599-0.212-0.635-0.635-0.599-1.093v-0.105l0.07-0.071
			c0.317-0.353,1.128-1.409,1.128-2.149c0-1.198-0.811-2.221-1.763-2.221s-1.763,1.022-1.763,2.221c0,0.74,0.776,1.797,1.093,2.149
			l0.071,0.106v0.104C4.915,15.017,4.703,15.369,4.174,15.509z"/>
	</g>
	<g>
		<path fill="#424242" d="M19.119,16.886H12.07c-0.846,0-1.763-0.741-1.763-1.763c0-0.634,1.058-1.269,1.27-1.376l2.644-1.021
			c0.141-0.034,0.212-0.034,0.212-0.211c-0.283-0.354-1.198-1.516-1.198-2.503c0-1.622,1.091-2.925,2.466-2.925
			c1.34,0,2.468,1.304,2.468,2.925c0,1.022-0.951,2.186-1.234,2.537c0,0.212,0,0.212,0.142,0.247l2.644,1.022l0.141,0.106
			c0.6,0.422,1.058,0.811,1.058,1.232v0.071C20.776,15.757,20.283,16.886,19.119,16.886z M14.396,13.396l-2.572,1.022
			c-0.318,0.14-0.811,0.563-0.847,0.739c0,0.563,0.6,1.059,1.057,1.059h7.051c0.74,0,0.986-0.847,1.057-1.059
			c-0.07-0.141-0.563-0.492-0.739-0.634l-0.107-0.07l-2.501-0.952c-0.6-0.21-0.635-0.634-0.6-1.093v-0.105l0.07-0.07
			c0.317-0.352,1.128-1.41,1.128-2.149c0-1.199-0.811-2.221-1.762-2.221c-0.952,0-1.763,1.022-1.763,2.221
			c0,0.739,0.774,1.798,1.092,2.149l0.072,0.106v0.105C15.137,12.902,14.925,13.255,14.396,13.396z"/>
	</g>
	<g>
		<path fill="#424242" d="M13.69,9.8l-2.537-0.986c-0.599-0.212-0.635-0.634-0.599-1.093V7.615l0.071-0.07
			c0.316-0.353,1.127-1.41,1.127-2.15c0-1.198-0.811-2.22-1.762-2.22c-0.952,0-1.763,1.022-1.763,2.22
			c0,0.74,0.776,1.798,1.093,2.15L9.392,7.65v0.106C9.427,8.32,9.18,8.672,8.685,8.813L6.113,9.836l-0.247-0.67L8.51,8.144
			c0.141-0.035,0.211-0.035,0.211-0.211C8.439,7.58,7.523,6.417,7.523,5.43c0-1.622,1.092-2.926,2.467-2.926
			c1.338,0,2.467,1.304,2.467,2.926c0,1.022-0.952,2.185-1.233,2.538c0,0.212,0,0.212,0.141,0.247l2.572,0.987L13.69,9.8z"/>
	</g>
	<g>
		<rect x="7.487" y="11.245" fill="#424242" width="6.346" height="0.704"/>
	</g>
</g>
</svg>
