<?xml version="1.0" encoding="UTF-8"?>
<svg width="88px" height="88px" viewBox="0 0 88 88" version="1.1" xmlns="http://www.w3.org/2000/svg" xmlns:xlink="http://www.w3.org/1999/xlink">
    <!-- Generator: Sketch 52.3 (67297) - http://www.bohemiancoding.com/sketch -->
    <title>Group 1169</title>
    <desc>Created with Sketch.</desc>
    <g id="•-Logged-In-Designs" stroke="none" stroke-width="1" fill="none" fill-rule="evenodd" stroke-linejoin="round">
        <g id="Limited-Access-Overlay" transform="translate(-676.000000, -101.000000)" stroke-width="2">
            <g id="Group-1169" transform="translate(677.000000, 102.000000)">
                <path d="M11.8333333,63.1666667 L11.8333333,85.1666667" id="Stroke-7191" stroke="#1D71B8"></path>
                <path d="M48.5,55.8333333 L59.5,55.8333333" id="Stroke-7194" stroke="#1D71B8"></path>
                <polygon id="Stroke-7189" stroke="#424242" points="0.833333333 85.1666667 66.8333333 85.1666667 66.8333333 63.1666667 0.833333333 63.1666667"></polygon>
                <path d="M77.8333333,81.5 C81.8813333,81.5 85.1666667,78.2146667 85.1666667,74.1666667 C85.1666667,70.1186667 81.8813333,66.8333333 77.8333333,66.8333333 L66.8333333,66.8333333 L66.8333333,81.5 L77.8333333,81.5 L77.8333333,81.5 Z" id="Stroke-7190" stroke="#424242"></path>
                <path d="M15.5,63.1666667 L15.5,22.8333333 C15.5,10.6856667 25.3523333,0.833333333 37.5,0.833333333 C49.6476667,0.833333333 59.5,10.6856667 59.5,22.8333333 L59.5,63.1666667" id="Stroke-7192" stroke="#424242"></path>
                <path d="M26.5,63.1666667 L26.5,24.6666667 C26.5,18.5946667 31.428,13.6666667 37.5,13.6666667 C43.572,13.6666667 48.5,18.5946667 48.5,24.6666667 L48.5,63.1666667" id="Stroke-7193" stroke="#424242"></path>
            </g>
        </g>
    </g>
</svg>