<?xml version="1.0" encoding="UTF-8"?>
<svg width="48px" height="48px" viewBox="0 0 48 48" version="1.1" xmlns="http://www.w3.org/2000/svg" xmlns:xlink="http://www.w3.org/1999/xlink">
    <!-- Generator: Sketch 53.2 (72643) - https://sketchapp.com -->
    <title>approved</title>
    <desc>Created with Sketch.</desc>
    <g id="•-Experts" stroke="none" stroke-width="1" fill="none" fill-rule="evenodd" stroke-linejoin="round">
        <g id="Expert-•-Vendors-•-Apply-•-4.2" transform="translate(-408.000000, -333.000000)" stroke-width="2">
            <g id="approved" transform="translate(409.000000, 334.000000)">
                <polygon id="Stroke-6193" stroke="#424242" points="36.7246 19.7304 40.0006 17.0004 36.7246 14.2724 38.7046 10.4944 34.6346 9.2264 35.0186 4.9784 30.7726 5.3644 29.5046 1.2944 25.7306 3.2744 23.0006 0.000400000001 20.2686 3.2744 16.4946 1.2944 15.2266 5.3644 10.9786 4.9784 11.3646 9.2264 7.2946 10.4944 9.2746 14.2724 6.0006 17.0004 9.2746 19.7304 7.2946 23.5064 11.3646 24.7744 10.9786 29.0224 15.2266 28.6344 16.4946 32.7044 20.2686 30.7244 23.0006 34.0004 25.7306 30.7244 29.5046 32.7044 30.7726 28.6344 35.0186 29.0224 34.6346 24.7744 38.7046 23.5064"></polygon>
                <polygon id="Stroke-6194" stroke="#1D71B8" points="23 7 26 12 32 12 27 17 29 24 23 20.248 17 24 19 17 14 12 20 12"></polygon>
                <polyline id="Stroke-6195" stroke="#424242" points="38.92 28.2656 45.676 39.9636 37.976 38.6596 35.304 45.9996 29.99 37.0256"></polyline>
                <polyline id="Stroke-6196" stroke="#424242" points="7.0782 28.2656 0.3242 39.9636 8.0242 38.6596 10.6962 45.9996 16.0102 37.0256"></polyline>
            </g>
        </g>
    </g>
</svg>