<?xml version="1.0" encoding="UTF-8"?>
<svg width="53px" height="48px" viewBox="0 0 53 48" version="1.1" xmlns="http://www.w3.org/2000/svg" xmlns:xlink="http://www.w3.org/1999/xlink">
    <!-- Generator: Sketch 47.1 (45422) - http://www.bohemiancoding.com/sketch -->
    <title>await-approval-step-2</title>
    <desc>Created with Sketch.</desc>
    <defs></defs>
    <g id="•-Service-Packages" stroke="none" stroke-width="1" fill="none" fill-rule="evenodd" stroke-linecap="round" stroke-linejoin="round">
        <g id="MM-Expert-CreatePackage-1.1" transform="translate(-614.000000, -186.000000)" stroke-width="2">
            <g id="await-approval-step-2" transform="translate(615.000000, 187.000000)">
                <path d="M21.9090909,35.0691636 C21.9090909,41.0931636 17.0261818,45.9782545 11,45.9782545 C4.97381818,45.9782545 0.0909090909,41.0931636 0.0909090909,35.0691636 C0.0909090909,29.0429818 4.97381818,24.1600727 11,24.1600727 C17.0261818,24.1600727 21.9090909,29.0429818 21.9090909,35.0691636 L21.9090909,35.0691636 Z" id="Stroke-1371" stroke="#424242"></path>
                <path d="M21.9090909,9.97825455 L21.9090909,1.25098182 C20.2727273,-0.385381818 17,-0.385381818 15.3636364,1.25098182 L12.0909091,9.97825455 L8.81818182,13.2509818 L2.27272727,28.5237091" id="Stroke-1372" stroke="#424242"></path>
                <path d="M28.4545455,35.0691636 C28.4545455,41.0931636 33.3374545,45.9782545 39.3636364,45.9782545 C45.3898182,45.9782545 50.2727273,41.0931636 50.2727273,35.0691636 C50.2727273,29.0429818 45.3898182,24.1600727 39.3636364,24.1600727 C33.3374545,24.1600727 28.4545455,29.0429818 28.4545455,35.0691636 L28.4545455,35.0691636 Z" id="Stroke-1373" stroke="#424242"></path>
                <path d="M28.4545455,9.97825455 L28.4545455,1.38843636 C30.0909091,-0.247927273 33.3636364,-0.247927273 35,1.38843636 L38.2727273,9.97825455 L41.5454545,13.2509818 L48.0909091,28.5237091" id="Stroke-1374" stroke="#424242"></path>
                <path d="M16.4545455,18.7055273 C16.4545455,16.2946182 20.3621818,14.3418909 25.1818182,14.3418909 C30.0014545,14.3418909 33.9090909,16.2946182 33.9090909,18.7055273" id="Stroke-1375" stroke="#424242"></path>
                <path d="M21.9090909,35.0691636 L21.9090909,14.6582545" id="Stroke-1376" stroke="#424242"></path>
                <path d="M28.4545455,35.0691636 L28.4545455,14.6582545" id="Stroke-1377" stroke="#424242"></path>
                <path d="M4.45454545,35.0691636 C4.45454545,31.4560727 7.38690909,28.5237091 11,28.5237091" id="Stroke-1378" stroke="#1E70B7"></path>
                <path d="M32.8181818,35.0691636 C32.8181818,31.4560727 35.7505455,28.5237091 39.3636364,28.5237091" id="Stroke-1379" stroke="#1E70B7"></path>
            </g>
        </g>
    </g>
</svg>