<?xml version="1.0" encoding="UTF-8"?>
<svg width="56px" height="56px" viewBox="0 0 56 56" version="1.1" xmlns="http://www.w3.org/2000/svg" xmlns:xlink="http://www.w3.org/1999/xlink">
    <!-- Generator: Sketch 49.2 (51160) - http://www.bohemiancoding.com/sketch -->
    <title>browse-experts</title>
    <desc>Created with Sketch.</desc>
    <defs></defs>
    <g id="•-Create-Account-v2" stroke="none" stroke-width="1" fill="none" fill-rule="evenodd" stroke-linecap="round" stroke-linejoin="round">
        <g id="Buyer--Approved-(1st-time-login)" transform="translate(-1012.000000, -356.000000)" stroke="#424242" stroke-width="2">
            <g id="Group-3" transform="translate(920.000000, 356.000000)">
                <g id="browse-experts" transform="translate(92.000000, 0.000000)">
                    <path d="M43.1666667,22.1666667 C43.1666667,33.7656667 33.7656667,43.1666667 22.1666667,43.1666667 C10.5676667,43.1666667 1.16666667,33.7656667 1.16666667,22.1666667 C1.16666667,10.5676667 10.5676667,1.16666667 22.1666667,1.16666667 C33.7656667,1.16666667 43.1666667,10.5676667 43.1666667,22.1666667 L43.1666667,22.1666667 Z" id="Stroke-964"></path>
                    <path d="M37.0143667,37.0167 L54.8340333,54.8340333" id="Stroke-965"></path>
                    <polyline id="Stroke-966" points="18.6666667 24.6208667 18.6666667 28.7532 9.33333333 32.6662"></polyline>
                    <polyline id="Stroke-967" points="25.6666667 24.6208667 25.6666667 28.7532 35 32.6662"></polyline>
                    <path d="M29.6247,16.7139 C29.6247,21.6582333 26.2833667,25.6669 22.1673667,25.6669 C18.0443667,25.6669 14.7053667,21.6582333 14.7053667,16.7139 C14.7053667,11.7719 18.0443667,7.76323333 22.1673667,7.76323333 C26.2833667,7.76323333 29.6247,11.7719 29.6247,16.7139 L29.6247,16.7139 Z" id="Stroke-968"></path>
                    <path d="M29.554,15.5516667 C29.3136667,15.5796667 28.98,15.5656667 28.735,15.6123333 C26.306,16.0813333 24.7473333,15.2016667 23.408,12.859 C22.6053333,14.3966667 20.097,15.6123333 18.0366667,15.6123333 C17.0193333,15.6123333 15.7663333,15.358 14.8913333,14.903" id="Stroke-969"></path>
                </g>
            </g>
        </g>
    </g>
</svg>