<?xml version="1.0" encoding="UTF-8"?>
<svg width="127px" height="107px" viewBox="0 0 127 107" version="1.1" xmlns="http://www.w3.org/2000/svg" xmlns:xlink="http://www.w3.org/1999/xlink">
    <!-- Generator: Sketch 50.2 (55047) - http://www.bohemiancoding.com/sketch -->
    <title>buyer-mobile-computer</title>
    <desc>Created with Sketch.</desc>
    <defs></defs>
    <g id="1.-Accepting-EOIs" stroke="none" stroke-width="1" fill="none" fill-rule="evenodd">
        <g id="mm-buyer-mobile" transform="translate(-97.000000, -101.000000)">
            <g id="buyer-mobile-computer" transform="translate(98.000000, 102.000000)">
                <g id="Group-572" stroke="#000000" stroke-linejoin="round" stroke-width="2">
                    <path d="M124.709459,85.6354273 C124.709459,90.1798818 121.0915,93.8641545 116.621622,93.8641545 L8.78378378,93.8641545 C4.3192973,93.8641545 0.695945946,90.1798818 0.695945946,85.6354273 L0.695945946,8.82015455 C0.695945946,4.2757 4.3192973,0.591427273 8.78378378,0.591427273 L116.621622,0.591427273 C121.0915,0.591427273 124.709459,4.2757 124.709459,8.82015455 L124.709459,85.6354273 L124.709459,85.6354273 Z" id="Stroke-1840" fill="#FFFFFF" stroke-linecap="round"></path>
                    <path d="M24.9594595,104.227273 L100.445946,104.227273" id="Stroke-1841" stroke-linecap="round"></path>
                    <path d="M62.7027027,93.8636364 L62.7027027,104.227273" id="Stroke-1842" stroke-linecap="round"></path>
                    <path d="M65.3986486,83.5 C65.3986486,84.9301818 64.1908649,86.0909091 62.7027027,86.0909091 C61.2145405,86.0909091 60.0067568,84.9301818 60.0067568,83.5 C60.0067568,82.0698182 61.2145405,80.9090909 62.7027027,80.9090909 C64.1908649,80.9090909 65.3986486,82.0698182 65.3986486,83.5 L65.3986486,83.5 Z" id="Stroke-1843"></path>
                    <path d="M0.695945946,73.1363636 L124.709459,73.1363636" id="Stroke-1844"></path>
                </g>
                <g id="Group-2" transform="translate(45.000000, 29.000000)">
                    <path d="M34.7000482,12.8054634 L27.5936886,5.87034146 L21.7969347,0.213268293 C21.5055224,-0.0711219512 21.0286661,-0.0711219512 20.736754,0.213268293 L17.6966697,3.18058537 L20.4533394,5.87034146 L27.5596989,12.8054634 C27.8511111,13.0898537 27.8511111,13.5557073 27.5596989,13.8400976 L24.8030292,16.5303415 L27.8431135,19.4971707 C28.1345257,19.781561 28.611882,19.781561 28.9032942,19.4971707 L34.7000482,13.8400976 C34.9914604,13.5557073 34.9914604,13.0898537 34.7000482,12.8054634" id="Fill-24" fill="#36A9E1"></path>
                    <path d="M10.5905601,16.5301463 L13.6306444,19.4969756 C13.9220566,19.7813659 14.3994128,19.7813659 14.6908251,19.4969756 L17.6969196,16.5638049 L14.126495,13.0794146 L10.5905601,16.5301463 Z" id="Fill-26" fill="#36A9E1"></path>
                    <path d="M7.83409033,12.8054634 L14.9404499,5.87034146 L17.6966197,3.18058537 L14.6565354,0.213268293 C14.3651232,-0.0711219512 13.8877669,-0.0711219512 13.5963547,0.213268293 L7.79960072,5.87034146 L0.693741042,12.8054634 C0.401828967,13.0898537 0.401828967,13.5557073 0.693741042,13.8400976 L6.48999518,19.4971707 C6.78190726,19.781561 7.25876363,19.781561 7.55017585,19.4971707 L10.59076,16.5303415 L7.83409033,13.8400976 C7.54267811,13.5557073 7.54267811,13.0898537 7.83409033,12.8054634" id="Fill-28" fill="#1D71B8"></path>
                    <path d="M17.6967696,16.5637073 L20.7023643,19.496878 C20.9942764,19.7817561 21.4711328,19.7817561 21.762545,19.496878 L24.8031292,16.5300488 L21.2671942,13.0793171 L17.6967696,16.5637073 Z" id="Fill-30" fill="#1D71B8"></path>
                    <path d="M27.559449,12.8054634 L20.4530894,5.87034146 L17.6969196,3.18058537 L14.9402499,5.87034146 L7.83389039,12.8054634 C7.54247817,13.0898537 7.54247817,13.5557073 7.83389039,13.8400976 L10.5905601,16.5303415 L14.126495,13.0796098 L17.6969196,16.5635122 L21.2668443,13.0796098 L24.8027793,16.5303415 L27.559449,13.8400976 C27.8508612,13.5557073 27.8508612,13.0898537 27.559449,12.8054634" id="Fill-32" fill="#29235C"></path>
                </g>
            </g>
        </g>
    </g>
</svg>