<?xml version="1.0" encoding="UTF-8"?>
<svg width="132px" height="131px" viewBox="0 0 132 131" version="1.1" xmlns="http://www.w3.org/2000/svg" xmlns:xlink="http://www.w3.org/1999/xlink">
    <!-- Generator: Sketch 41 (35326) - http://www.bohemiancoding.com/sketch -->
    <title>ChampagneBottle</title>
    <desc>Created with Sketch.</desc>
    <defs></defs>
    <g id="Assets" stroke="none" stroke-width="1" fill="none" fill-rule="evenodd">
        <g id="Artboard" transform="translate(-1520.000000, -1126.000000)">
            <g id="ChampagneBottle" transform="translate(1520.000000, 1123.000000)">
                <g id="Group">
                    <g id="champagne" transform="translate(0.000000, 23.000000)">
                        <g id="Layer_1">
                            <path d="M84.4506211,45.1256523 C86.989293,39.6402891 90.8831445,33.5681523 98.0764844,26.0453086 C99.6371133,26.2292969 101.263172,25.7267969 102.460273,24.5296953 L108.867148,18.1228203 C110.942578,16.0473906 110.942578,12.6822109 108.867148,10.6065195 L100.39348,2.13285156 C98.3180508,0.057421875 94.9528711,0.057421875 92.8771797,2.13285156 L86.4703047,8.53972656 C85.2726797,9.73735156 84.7704414,11.3634102 84.9546914,12.9237773 C77.4321094,20.1171172 71.3597109,24.010707 65.8746094,26.5496406 L84.4506211,45.1256523 L84.4506211,45.1256523 Z" id="Shape" fill="#EEEEEE"></path>
                            <path d="M98.0764844,26.0450469 C99.6371133,26.2290352 101.263172,25.7265352 102.460273,24.5294336 L108.867148,18.1225586 C110.942578,16.0471289 110.942578,12.6819492 108.867148,10.6062578 L104.630445,6.36955469 L75.1624844,35.8372539 L84.4506211,45.1253906 C86.989293,39.6402891 90.8831445,33.5681523 98.0764844,26.0450469 L98.0764844,26.0450469 Z" id="Shape" fill="#D6D6D6"></path>
                            <path d="M66.7568633,26.1311523 C52.5502461,33.0133086 42.4889922,30.3424688 22.0906328,50.7410898 L1.91682812,70.9148945 C-0.638855469,73.4705781 -0.638855469,77.6141094 1.91682812,80.1695313 L16.3736484,94.6263516 L30.8304687,109.083172 C33.3861523,111.638855 37.5296836,111.638855 40.0851055,109.083172 L60.2591719,88.9091055 C80.657793,68.5104844 77.9869531,58.4494922 84.8691094,44.242875 L66.7568633,26.1311523 L66.7568633,26.1311523 Z" id="Shape" fill="#1D71B8"></path>
                            <path d="M75.8128555,35.1868828 L16.3736484,94.6263516 L30.8304687,109.083172 C33.3861523,111.638855 37.5296836,111.638855 40.0851055,109.083172 L60.2591719,88.9091055 C80.657793,68.5104844 77.9869531,58.4494922 84.8691094,44.242875 L75.8128555,35.1868828 L75.8128555,35.1868828 Z" id="Shape" fill="#29235C"></path>
                            <path d="M89.7276562,36.0500313 L76.5794297,34.4205703 L74.9499687,21.2723438 C71.7156484,23.5513906 68.7514219,25.2135664 65.9416094,26.5187578 L67.9858945,43.0141055 L84.4812422,45.0583906 C85.7861719,42.2488398 87.4486094,39.2846133 89.7276562,36.0500313 L89.7276562,36.0500313 Z" id="Shape" fill="#36A9E1"></path>
                            <path d="M89.7276562,36.0500312 L76.5794297,34.4205703 L67.9858945,43.0141055 L84.4812422,45.0583906 C85.7861719,42.2488398 87.4486094,39.2846133 89.7276562,36.0500312 L89.7276562,36.0500312 Z" id="Shape" fill="#228FC5"></path>
                            <path d="M22.0903711,50.7410898 C16.136793,56.694668 10.5451719,62.2862891 6.18310547,66.6483555 L44.3516445,104.816895 C48.7137109,100.454828 54.3048086,94.8637305 60.2589102,88.9096289 C61.3084023,87.8601367 62.2940352,86.8394336 63.2257539,85.8422852 L25.1577148,47.7742461 C24.1610898,48.7059648 23.1403867,49.6913359 22.0903711,50.7410898 L22.0903711,50.7410898 Z" id="Shape" fill="#EEEEEE"></path>
                            <path d="M25.2676367,85.7323633 L44.3519063,104.816633 C48.7139727,100.454566 54.3050703,94.8634688 60.2591719,88.9093672 C61.3086641,87.859875 62.2942969,86.8391719 63.2260156,85.8420234 L44.1919961,66.8080039 L25.2676367,85.7323633 L25.2676367,85.7323633 Z" id="Shape" fill="#D6D6D6"></path>
                        </g>
                    </g>
                    <path d="M131.380586,10.1223009 L126.969215,5.71093037 L125.258285,4 L123.547044,5.71093037 L119.135674,10.1223009 C118.954775,10.3031991 118.954775,10.5995245 119.135674,10.7804227 L120.846914,12.4916633 L123.041895,10.296683 L125.258285,12.5127629 L127.474365,10.296683 L129.669345,12.4916633 L131.380586,10.7804227 C131.561484,10.5995245 131.561484,10.3031991 131.380586,10.1223009" id="Fill-32-Copy" fill="#29235C" transform="translate(125.258130, 8.256381) rotate(-315.000000) translate(-125.258130, -8.256381) "></path>
                    <path d="M106.557338,9.30080156 L102.145968,4.88943103 L100.435037,3.17850065 L98.7237966,4.88943103 L94.3124261,9.30080156 C94.1315279,9.48169971 94.1315279,9.77802516 94.3124261,9.95892331 L96.0236667,11.670164 L98.218647,9.47518365 L100.435037,11.6912636 L102.651117,9.47518365 L104.846098,11.670164 L106.557338,9.95892331 C106.738236,9.77802516 106.738236,9.48169971 106.557338,9.30080156" id="Fill-32-Copy-2" fill="#29235C"></path>
                    <path d="M133.378838,35.1240491 L128.967467,30.7126786 L127.256537,29.0017482 L125.545296,30.7126786 L121.133925,35.1240491 C120.953027,35.3049473 120.953027,35.6012727 121.133925,35.7821709 L122.845166,37.4934115 L125.040146,35.2984312 L127.256537,37.5145111 L129.472617,35.2984312 L131.667597,37.4934115 L133.378838,35.7821709 C133.559736,35.6012727 133.559736,35.3049473 133.378838,35.1240491" id="Fill-32-Copy-3" fill="#29235C" transform="translate(127.256381, 33.258130) rotate(-270.000000) translate(-127.256381, -33.258130) "></path>
                </g>
                <g id="Group-2" transform="translate(34.374369, 99.374369) rotate(-315.000000) translate(-34.374369, -99.374369) translate(23.374369, 92.874369)">
                    <path d="M21.5405327,8.14544349 L17.1291622,3.73407296 L13.5307473,0.135658099 C13.3498492,-0.0452400523 13.053834,-0.0452400523 12.8726256,0.135658099 L10.9854514,2.02314259 L12.696692,3.73407296 L17.1080626,8.14544349 C17.2889607,8.32634164 17.2889607,8.62266709 17.1080626,8.80356524 L15.3968219,10.5148059 L17.2839961,12.4019801 C17.4648943,12.5828783 17.7612197,12.5828783 17.9421179,12.4019801 L21.5405327,8.80356524 C21.7214309,8.62266709 21.7214309,8.32634164 21.5405327,8.14544349" id="Fill-24" fill="#36A9E1"></path>
                    <path d="M6.574236,10.5146818 L8.46141019,12.401856 C8.64230835,12.5827541 8.93863379,12.5827541 9.11953194,12.401856 L10.9856065,10.5360917 L8.76921631,8.31970147 L6.574236,10.5146818 Z" id="Fill-26" fill="#36A9E1"></path>
                    <path d="M4.86311945,8.14544349 L9.27448998,3.73407296 L10.9854204,2.02314259 L9.09824616,0.135658099 C8.917348,-0.0452400523 8.62102256,-0.0452400523 8.44012441,0.135658099 L4.84170955,3.73407296 L0.430649304,8.14544349 C0.249440865,8.32634164 0.249440865,8.62266709 0.430649304,8.80356524 L4.02875388,12.4019801 C4.20996232,12.5828783 4.50597747,12.5828783 4.68687562,12.4019801 L6.57436011,10.5148059 L4.86311945,8.80356524 C4.6822213,8.62266709 4.6822213,8.32634164 4.86311945,8.14544349" id="Fill-28" fill="#1D71B8"></path>
                    <path d="M10.9855134,10.5360296 L12.8512777,12.4017939 C13.0324862,12.5830024 13.3285013,12.5830024 13.5093995,12.4017939 L15.396884,10.5146197 L13.2019037,8.31963941 L10.9855134,10.5360296 Z" id="Fill-30" fill="#1D71B8"></path>
                    <path d="M17.1079074,8.14544349 L12.6965369,3.73407296 L10.9856065,2.02314259 L9.27436587,3.73407296 L4.86299533,8.14544349 C4.68209718,8.32634164 4.68209718,8.62266709 4.86299533,8.80356524 L6.574236,10.5148059 L8.76921631,8.31982559 L10.9856065,10.5359055 L13.2016865,8.31982559 L15.3966668,10.5148059 L17.1079074,8.80356524 C17.2888056,8.62266709 17.2888056,8.32634164 17.1079074,8.14544349" id="Fill-32" fill="#29235C"></path>
                </g>
            </g>
        </g>
    </g>
</svg>