<?xml version="1.0" encoding="UTF-8"?>
<svg width="117px" height="117px" viewBox="0 0 117 117" version="1.1" xmlns="http://www.w3.org/2000/svg" xmlns:xlink="http://www.w3.org/1999/xlink">
    <!-- Generator: Sketch 45.2 (43514) - http://www.bohemiancoding.com/sketch -->
    <title>ChampagneBottle</title>
    <desc>Created with Sketch.</desc>
    <defs>
        <filter x="-6.3%" y="-4.5%" width="113.3%" height="113.4%" filterUnits="objectBoundingBox" id="filter-1">
            <feOffset dx="0" dy="2" in="SourceAlpha" result="shadowOffsetOuter1"></feOffset>
            <feGaussianBlur stdDeviation="2" in="shadowOffsetOuter1" result="shadowBlurOuter1"></feGaussianBlur>
            <feColorMatrix values="0 0 0 0 0   0 0 0 0 0   0 0 0 0 0  0 0 0 0.237771739 0" type="matrix" in="shadowBlurOuter1" result="shadowMatrixOuter1"></feColorMatrix>
            <feMerge>
                <feMergeNode in="shadowMatrixOuter1"></feMergeNode>
                <feMergeNode in="SourceGraphic"></feMergeNode>
            </feMerge>
        </filter>
    </defs>
    <g id="•-Post-a-Project" stroke="none" stroke-width="1" fill="none" fill-rule="evenodd">
        <g id="MM_landingPostProject_1.6" transform="translate(-581.000000, -97.000000)">
            <g id="Welcome_popUp">
                <g id="Group-8" transform="translate(432.000000, 72.000000)">
                    <g id="ChampagneBottle" filter="url(#filter-1)" transform="translate(153.000000, 24.000000)">
                        <g id="Group">
                            <g id="champagne" transform="translate(0.000000, 19.077869)">
                                <g id="Layer_1">
                                    <path d="M70.1377998,37.4304906 C72.2462137,32.8805322 75.4801293,27.8438614 81.4543308,21.6038689 C82.7504619,21.7564822 84.1009336,21.3396722 85.0951485,20.3467093 L90.4161765,15.0323822 C92.1398592,13.3108703 92.1398592,10.519546 90.4161765,8.79781696 L83.3786388,1.76914186 C81.6549562,0.0476298699 78.8601123,0.0476298699 77.1362123,1.76914186 L71.8151843,7.0834689 C70.8205346,8.07686598 70.4034165,9.42563697 70.5564395,10.7199187 C64.3087963,16.6865968 59.2655573,19.9162227 54.7100792,22.0221985 L70.1377998,37.4304906 L70.1377998,37.4304906 Z" id="Shape" fill="#FFFFFF"></path>
                                    <path d="M81.4543308,21.6036518 C82.7504619,21.7562651 84.1009336,21.3394551 85.0951485,20.3464922 L90.4161765,15.0321652 C92.1398592,13.3106532 92.1398592,10.5193289 90.4161765,8.79759987 L86.8975163,5.28337086 L62.4238308,29.7260189 L70.1377998,37.4302735 C72.2462137,32.8805322 75.4801293,27.8438614 81.4543308,21.6036518 L81.4543308,21.6036518 Z" id="Shape" fill="#EEEEEE"></path>
                                    <path d="M55.4428073,21.675074 C43.6439495,27.3836338 35.2878924,25.1682454 18.3466784,42.0883419 L1.59196114,58.8219595 C-0.53058126,60.9418289 -0.53058126,64.3787744 1.59196114,66.4984267 L13.5986173,78.4899625 L25.6052734,90.4814984 C27.7278158,92.6013678 31.169095,92.6013678 33.2914201,90.4814984 L50.0463546,73.7476638 C66.987786,56.8275672 64.7696042,48.4822502 70.485362,36.698251 L55.4428073,21.675074 L55.4428073,21.675074 Z" id="Shape" fill="#1D71B8"></path>
                                    <path d="M62.963976,29.1865539 L13.5986173,78.4899625 L25.6052734,90.4814984 C27.7278158,92.6013678 31.169095,92.6013678 33.2914201,90.4814984 L50.0463546,73.7476638 C66.987786,56.8275672 64.7696042,48.4822502 70.485362,36.698251 L62.963976,29.1865539 L62.963976,29.1865539 Z" id="Shape" fill="#36A9E1"></path>
                                    <path d="M74.5204749,29.9025119 L63.60063,28.5509187 L62.2473326,17.6448255 C59.5611699,19.5352324 57.099325,20.9139616 54.7657239,21.9965821 L56.4635405,35.6790204 L70.1632312,37.3746988 C71.2469994,35.0442535 72.6276844,32.5855089 74.5204749,29.9025119 L74.5204749,29.9025119 Z" id="Shape" fill="#36A9E1"></path>
                                    <path d="M74.5204749,29.9025119 L63.60063,28.5509187 L56.4635405,35.6790204 L70.1632312,37.3746988 C71.2469994,35.0442535 72.6276844,32.5855089 74.5204749,29.9025119 L74.5204749,29.9025119 Z" id="Shape" fill="#228FC5"></path>
                                    <path d="M18.346461,42.0883419 C13.4019045,47.0266717 8.75795991,51.6647679 5.13518323,55.2829824 L36.8348595,86.9427383 C40.4576362,83.3245239 45.101146,78.6868618 50.0461373,73.7480979 C50.9177599,72.877573 51.7363462,72.0309277 52.5101558,71.2038204 L20.8939466,39.6274264 C20.0662311,40.4002616 19.2185183,41.2175999 18.346461,42.0883419 L18.346461,42.0883419 Z" id="Shape" fill="#FFFFFF"></path>
                                    <path d="M20.9852387,71.1126433 L36.8350769,86.9425213 C40.4578536,83.3243069 45.1013634,78.6866447 50.0463546,73.7478808 C50.9179773,72.8773559 51.7365635,72.0307106 52.5103731,71.2036034 L36.7022686,55.4154064 L20.9852387,71.1126433 L20.9852387,71.1126433 Z" id="Shape" fill="#EEEEEE"></path>
                                </g>
                            </g>
                            <path d="M109.114002,8.39617089 L105.450277,4.73706006 L104.029318,3.31789026 L102.608101,4.73706006 L98.9443762,8.39617089 C98.794137,8.54622095 98.794137,8.79201478 98.9443762,8.94206483 L100.365593,10.361492 L102.188565,8.54081606 L104.029318,10.3789936 L105.869813,8.54081606 L107.692785,10.361492 L109.114002,8.94206483 C109.264241,8.79201478 109.264241,8.54622095 109.114002,8.39617089" id="Fill-32-Copy" fill="#29235C" transform="translate(104.029189, 6.848442) rotate(-315.000000) translate(-104.029189, -6.848442) "></path>
                            <path d="M88.4978364,7.71475973 L84.8341118,4.0556489 L83.4131525,2.63647909 L81.9919356,4.0556489 L78.3282109,7.71475973 C78.1779716,7.86480978 78.1779716,8.11060361 78.3282109,8.26065366 L79.7494278,9.68008084 L81.5723995,7.85940489 L83.4131525,9.69758239 L85.2536478,7.85940489 L87.0766195,9.68008084 L88.4978364,8.26065366 C88.6480757,8.11060361 88.6480757,7.86480978 88.4978364,7.71475973" id="Fill-32-Copy-2" fill="#29235C"></path>
                            <path d="M110.773587,29.1344351 L107.109862,25.4753243 L105.688903,24.0561545 L104.267686,25.4753243 L100.603961,29.1344351 C100.453722,29.2844852 100.453722,29.530279 100.603961,29.680329 L102.025178,31.0997562 L103.84815,29.2790803 L105.688903,31.1172578 L107.529398,29.2790803 L109.35237,31.0997562 L110.773587,29.680329 C110.923826,29.530279 110.923826,29.2844852 110.773587,29.1344351" id="Fill-32-Copy-3" fill="#29235C" transform="translate(105.688774, 27.586706) rotate(-270.000000) translate(-105.688774, -27.586706) "></path>
                        </g>
                        <g id="Group-2" transform="translate(28.560613, 82.498734) rotate(-315.000000) translate(-28.560613, -82.498734) translate(19.366583, 77.065898)">
                            <path d="M17.8898101,6.7564219 L14.2260854,3.09731107 L11.2375354,0.112524672 C11.0872962,-0.0375253822 10.8414501,-0.0375253822 10.6909532,0.112524672 L9.12362017,1.67814127 L10.5448371,3.09731107 L14.2085618,6.7564219 C14.358801,6.90647196 14.358801,7.15226579 14.2085618,7.30231584 L12.7873448,8.72174302 L14.3546778,10.2871022 C14.5049171,10.4371523 14.7510208,10.4371523 14.9012601,10.2871022 L17.8898101,7.30231584 C18.0400493,7.15226579 18.0400493,6.90647196 17.8898101,6.7564219" id="Fill-24" fill="#36A9E1"></path>
                            <path d="M5.46002436,8.72164007 L7.02735737,10.2869993 C7.17759662,10.4370493 7.42370037,10.4370493 7.57393963,10.2869993 L9.12374902,8.739399 L7.28299603,6.90096412 L5.46002436,8.72164007 Z" id="Fill-26" fill="#36A9E1"></path>
                            <path d="M4.03891048,6.7564219 L7.70263514,3.09731107 L9.1235944,1.67814127 L7.55626139,0.112524672 C7.40602213,-0.0375253822 7.15991838,-0.0375253822 7.00967913,0.112524672 L4.02112916,3.09731107 L0.357662197,6.7564219 C0.207165243,6.90647196 0.207165243,7.15226579 0.357662197,7.30231584 L3.34595447,10.2871022 C3.49645142,10.4371523 3.74229747,10.4371523 3.89253673,10.2871022 L5.46012744,8.72174302 L4.03891048,7.30231584 C3.88867122,7.15226579 3.88867122,6.90647196 4.03891048,6.7564219" id="Fill-28" fill="#1D71B8"></path>
                            <path d="M9.12367171,8.73934752 L10.6732234,10.2869478 C10.8237204,10.4372552 11.0695664,10.4372552 11.2198057,10.2869478 L12.7873964,8.72158859 L10.9644247,6.90091264 L9.12367171,8.73934752 Z" id="Fill-30" fill="#1D71B8"></path>
                            <path d="M14.2084329,6.7564219 L10.5447083,3.09731107 L9.12374902,1.67814127 L7.70253206,3.09731107 L4.0388074,6.7564219 C3.88856814,6.90647196 3.88856814,7.15226579 4.0388074,7.30231584 L5.46002436,8.72174302 L7.28299603,6.90106707 L9.12374902,8.73924457 L10.9642443,6.90106707 L12.787216,8.72174302 L14.2084329,7.30231584 C14.3586722,7.15226579 14.3586722,6.90647196 14.2084329,6.7564219" id="Fill-32" fill="#29235C"></path>
                        </g>
                    </g>
                </g>
            </g>
        </g>
    </g>
</svg>