<?xml version="1.0" encoding="UTF-8"?>
<svg width="77px" height="66px" viewBox="0 0 77 66" version="1.1" xmlns="http://www.w3.org/2000/svg" xmlns:xlink="http://www.w3.org/1999/xlink">
    <!-- Generator: Sketch 51.3 (57544) - http://www.bohemiancoding.com/sketch -->
    <title>Group 36</title>
    <desc>Created with Sketch.</desc>
    <defs/>
    <g id="1.-Accepting-EOIs" stroke="none" stroke-width="1" fill="none" fill-rule="evenodd" stroke-linecap="round" stroke-linejoin="round">
        <g id="Expert--Project-Not-Available" transform="translate(-822.000000, -135.000000)" stroke-width="2.5">
            <g id="Group-36" transform="translate(823.000000, 136.000000)">
                <path d="M61.45632,20.12192 C69.26112,25.76672 74.19872,32.00032 74.19872,32.00032 C74.19872,32.00032 57.72512,52.80032 37.39872,52.80032 C34.07392,52.80032 30.85472,52.24672 27.79232,51.31552" id="Stroke-194" stroke="#424242"/>
                <path d="M13.29696,43.84384 C5.51776,38.20864 0.59936,32.00064 0.59936,32.00064 C0.59936,32.00064 17.07616,11.20064 37.39936,11.20064 C40.15136,11.20064 42.83296,11.58144 45.41216,12.24064" id="Stroke-195" stroke="#424242"/>
                <path d="M24.6,32 C24.6,24.928 30.3312,19.2 37.4,19.2" id="Stroke-196" stroke="#424242"/>
                <path d="M50.2,32 C50.2,39.072 44.4688,44.8 37.4,44.8" id="Stroke-197" stroke="#424242"/>
                <path d="M68.6,0.8 L6.2,63.2" id="Stroke-198" stroke="#1D71B8"/>
            </g>
        </g>
    </g>
</svg>