<?xml version="1.0" encoding="UTF-8"?>
<svg width="94px" height="96px" viewBox="0 0 94 96" version="1.1" xmlns="http://www.w3.org/2000/svg" xmlns:xlink="http://www.w3.org/1999/xlink">
    <!-- Generator: Sketch 49.3 (51167) - http://www.bohemiancoding.com/sketch -->
    <title>communication</title>
    <desc>Created with Sketch.</desc>
    <defs></defs>
    <g id="•-Post-a-Project" stroke="none" stroke-width="1" fill="none" fill-rule="evenodd" stroke-linecap="round" stroke-linejoin="round">
        <g id="Code-of-Conduct" transform="translate(-353.000000, -334.000000)" stroke-width="2">
            <g id="Group-3" transform="translate(250.000000, 88.000000)">
                <g id="communication" transform="translate(104.000000, 247.000000)">
                    <path d="M27.7616,57.6563478 C25.8056,57.3808696 23.8736,56.9426087 22.0016,56.349913 L2.0016,64.6977391 L10.0016,50.0890435 C3.7056,44.834087 0.0016,37.0455652 0.0016,28.944 C0.0016,12.962087 15.2216,0.00208695652 34.0016,0.00208695652 C52.7776,0.00208695652 68.0016,12.962087 68.0016,28.944" id="Stroke-785" stroke="#424242"></path>
                    <path d="M36,64.6956522 C36,82.5933913 56,96 74,87.6521739 L90,93.9130435 L84,81.3913043 C89.184,77.0629565 92,71.3655652 92,64.6956522 C92,51.5311304 79.464,39.6521739 64,39.6521739 C48.536,39.6521739 36,51.5311304 36,64.6956522 L36,64.6956522 Z" id="Stroke-786" stroke="#1D71B8"></path>
                </g>
            </g>
        </g>
    </g>
</svg>