<?xml version="1.0" encoding="UTF-8"?>
<svg width="94px" height="94px" viewBox="0 0 94 94" version="1.1" xmlns="http://www.w3.org/2000/svg" xmlns:xlink="http://www.w3.org/1999/xlink">
    <!-- Generator: Sketch 49.3 (51167) - http://www.bohemiancoding.com/sketch -->
    <title>committment</title>
    <desc>Created with Sketch.</desc>
    <defs></defs>
    <g id="•-Post-a-Project" stroke="none" stroke-width="1" fill="none" fill-rule="evenodd" stroke-linejoin="round">
        <g id="Code-of-Conduct" transform="translate(-673.000000, -336.000000)" stroke-width="2">
            <g id="Group-3" transform="translate(250.000000, 88.000000)">
                <g id="committment" transform="translate(424.000000, 249.000000)">
                    <g id="Group-748" stroke="#424242">
                        <polygon id="Stroke-1064" points="0 64 92 64 92 0 0 0"></polygon>
                        <path d="M44,64 L44,92" id="Stroke-1065" stroke-linecap="round"></path>
                        <polyline id="Stroke-1066" stroke-linecap="round" points="16 92 44 64 72 92"></polyline>
                    </g>
                    <g id="Group" transform="translate(26.000000, 12.000000)">
                        <polygon id="Stroke-4316" stroke="#1D71B8" points="36.1458824 23.2117647 40 20 36.1458824 16.7905882 38.4752941 12.3458824 33.6870588 10.8541176 34.1411765 5.85647059 29.1435294 6.31058824 27.6517647 1.52235294 23.2117647 3.85176471 20 0 16.7882353 3.85176471 12.3458824 1.52235294 10.8541176 6.31058824 5.85647059 5.85647059 6.31058824 10.8541176 1.52235294 12.3458824 3.85176471 16.7905882 0 20 3.85176471 23.2117647 1.52235294 27.6541176 6.31058824 29.1458824 5.85647059 34.1435294 10.8541176 33.6870588 12.3458824 38.4752941 16.7882353 36.1458824 20 40 23.2117647 36.1458824 27.6517647 38.4752941 29.1435294 33.6870588 34.1411765 34.1435294 33.6870588 29.1458824 38.4752941 27.6541176"></polygon>
                        <polyline id="Stroke-4319" stroke="#000000" stroke-linecap="round" points="27.3294118 14.1176471 18.0282353 26.5764706 11.7647059 20.3129412"></polyline>
                    </g>
                </g>
            </g>
        </g>
    </g>
</svg>