<?xml version="1.0" encoding="UTF-8" standalone="no"?>
<svg width="40px" height="29px" viewBox="0 0 40 29" version="1.1" xmlns="http://www.w3.org/2000/svg" xmlns:xlink="http://www.w3.org/1999/xlink">
    <!-- Generator: sketchtool 3.8.3 (29802) - http://www.bohemiancoding.com/sketch -->
    <title>A5B234AF-3E85-4816-AAE5-C83280DD6CF7</title>
    <desc>Created with sketchtool.</desc>
    <defs></defs>
    <g id="Page-1" stroke="none" stroke-width="1" fill="none" fill-rule="evenodd">
        <g id="MM-HOME" transform="translate(-150.000000, -1509.000000)" fill="#3E3C36">
            <g id="Community" transform="translate(150.000000, 1509.000000)">
                <path d="M33.1162791,18.3354839 C34.4651163,17.2129032 35.3488372,15.4822581 35.3488372,13.5645161 C35.3488372,10.3370968 32.744186,7.48387097 29.7674419,7.48387097 C26.7906977,7.48387097 24.1860465,10.3370968 24.1860465,13.5645161 C24.1860465,15.4822581 25.0697674,17.2129032 26.4186047,18.3354839 C25.8139535,18.5693548 25.255814,18.8032258 24.6976744,19.1306452 C22.9302326,17.0258065 20.6046512,15.3887097 17.9069767,14.5935484 C19.9534884,13.1435484 21.3953488,10.6645161 21.3953488,7.9516129 C21.3953488,3.69516129 17.9069767,0 13.9534884,0 C10,0 6.51162791,3.69516129 6.51162791,7.9516129 C6.51162791,10.6645161 7.95348837,13.1435484 10,14.5935484 C4.23255814,16.3241935 0,21.7032258 0,28.0645161 C0,28.5790323 0.418604651,29 0.930232558,29 L39.0697674,29 C39.5813953,29 40,28.5790323 40,28.0645161 C40,23.5741935 37.1162791,19.7387097 33.1162791,18.3354839 L33.1162791,18.3354839 Z M26.0465116,13.5645161 C26.0465116,11.6 27.6744186,9.35483871 29.7674419,9.35483871 C31.8604651,9.35483871 33.4883721,11.6 33.4883721,13.5645161 C33.4883721,15.5290323 31.8604651,17.7741935 29.7674419,17.7741935 C27.6744186,17.7741935 26.0465116,15.5290323 26.0465116,13.5645161 L26.0465116,13.5645161 Z M8.37209302,7.9516129 C8.37209302,5.0983871 10.744186,1.87096774 13.9534884,1.87096774 C17.1627907,1.87096774 19.5348837,5.0983871 19.5348837,7.9516129 C19.5348837,10.8048387 17.1627907,14.0322581 13.9534884,14.0322581 C10.744186,14.0322581 8.37209302,10.8048387 8.37209302,7.9516129 L8.37209302,7.9516129 Z M1.90697674,27.1290323 C2.37209302,20.8612903 7.62790698,15.9032258 13.9534884,15.9032258 C20.3255814,15.9032258 25.5348837,20.8612903 26,27.1290323 L1.90697674,27.1290323 L1.90697674,27.1290323 Z M27.8604651,27.1290323 C27.7209302,24.7903226 26.9767442,22.5451613 25.7674419,20.6741935 C26.9767442,20.0193548 28.3255814,19.6451613 29.7674419,19.6451613 C34.0930233,19.6451613 37.627907,22.9193548 38.0930233,27.1290323 L27.8604651,27.1290323 L27.8604651,27.1290323 Z" id="Users"></path>
            </g>
        </g>
    </g>
</svg>