<?xml version="1.0" encoding="UTF-8"?>
<svg width="76px" height="94px" viewBox="0 0 76 94" version="1.1" xmlns="http://www.w3.org/2000/svg" xmlns:xlink="http://www.w3.org/1999/xlink">
    <!-- Generator: Sketch 45.2 (43514) - http://www.bohemiancoding.com/sketch -->
    <title>icon/112px/contractOffers</title>
    <desc>Created with Sketch.</desc>
    <defs></defs>
    <g id="•-Buyer-overview" stroke="none" stroke-width="1" fill="none" fill-rule="evenodd" opacity="0.4">
        <g id="MM_Buyer_myProjects_AllProjects_contractOffer_liveOnPlatform" transform="translate(-576.000000, -321.000000)" fill="#424242">
            <g id="icon/112px/contractOffer" transform="translate(558.000000, 312.000000)">
                <g id="Shape">
                    <path d="M65.3333333,9.33333333 L28,9.33333333 C22.8666667,9.33333333 18.7133333,13.5333333 18.7133333,18.6666667 L18.6666667,93.3333333 C18.6666667,98.4666667 22.82,102.666667 27.9533333,102.666667 L84,102.666667 C89.1333333,102.666667 93.3333333,98.4666667 93.3333333,93.3333333 L93.3333333,37.3333333 L65.3333333,9.33333333 L65.3333333,9.33333333 Z M74.6666667,84 L37.3333333,84 L37.3333333,74.6666667 L74.6666667,74.6666667 L74.6666667,84 L74.6666667,84 Z M74.6666667,65.3333333 L37.3333333,65.3333333 L37.3333333,56 L74.6666667,56 L74.6666667,65.3333333 L74.6666667,65.3333333 Z M60.6666667,42 L60.6666667,16.3333333 L86.3333333,42 L60.6666667,42 L60.6666667,42 Z"></path>
                </g>
            </g>
        </g>
    </g>
</svg>