<?xml version="1.0" encoding="UTF-8"?>
<svg width="114px" height="114px" viewBox="0 0 114 114" version="1.1" xmlns="http://www.w3.org/2000/svg" xmlns:xlink="http://www.w3.org/1999/xlink">
    <!-- Generator: sketchtool 52.6 (67491) - http://www.bohemiancoding.com/sketch -->
    <title>32AC19BF-496F-4D9F-AC55-E9DEFD40B2AA</title>
    <desc>Created with sketchtool.</desc>
    <g id="•-Vendors" stroke="none" stroke-width="1" fill="none" fill-rule="evenodd" stroke-linejoin="round">
        <g id="Vendor-•-Onboarding-•-5" transform="translate(-807.000000, -240.000000)" stroke-width="2.5">
            <g id="create-vendor-hub" transform="translate(809.000000, 242.000000)">
                <polygon id="Stroke-766" stroke="#424242" stroke-linecap="round" points="73.8605708 105.182694 57 110 61.8173059 93.1394292 97.9567351 57 110 69.0432649"></polygon>
                <path d="M88,67 L100,79" id="Stroke-767" stroke="#424242"></path>
                <path d="M62,93 L74,105" id="Stroke-768" stroke="#424242" stroke-linecap="round"></path>
                <path d="M45,100 L9.47368421,100 C4.26315789,100 0,95.7 0,90.4444444 L0,14 L18.9473684,14" id="Stroke-769" stroke="#424242" stroke-linecap="round"></path>
                <polyline id="Stroke-770" stroke="#424242" stroke-linecap="round" points="43 91 9 91 9 24 18.7142857 24"></polyline>
                <polyline id="Stroke-771" stroke="#424242" stroke-linecap="round" points="76 45 76 14 57 14"></polyline>
                <path d="M47.5,9.66666667 C47.5,5.66466667 45.125,0 38,0 C30.875,0 28.5,5.66466667 28.5,9.66666667 L19,9.66666667 L19,29 L57,29 L57,9.66666667 L47.5,9.66666667 L47.5,9.66666667 Z" id="Stroke-772" stroke="#424242" stroke-linecap="round"></path>
                <polyline id="Stroke-773" stroke="#424242" stroke-linecap="round" points="57 24 67 24 67 46"></polyline>
                <path d="M24,43 L48,43" id="Stroke-774" stroke="#1D71B8" stroke-linecap="round"></path>
                <path d="M24,52 L48,52" id="Stroke-775" stroke="#1D71B8" stroke-linecap="round"></path>
                <path d="M24,62 L48,62" id="Stroke-776" stroke="#1D71B8" stroke-linecap="round"></path>
                <path d="M24,72 L38,72" id="Stroke-777" stroke="#1D71B8" stroke-linecap="round"></path>
            </g>
        </g>
    </g>
</svg>