<?xml version="1.0" encoding="utf-8"?>
<!-- Generator: Adobe Illustrator 16.0.0, SVG Export Plug-In . SVG Version: 6.00 Build 0)  -->
<!DOCTYPE svg PUBLIC "-//W3C//DTD SVG 1.1//EN" "http://www.w3.org/Graphics/SVG/1.1/DTD/svg11.dtd">
<svg version="1.1" id="Layer_1" xmlns="http://www.w3.org/2000/svg" xmlns:xlink="http://www.w3.org/1999/xlink" x="0px" y="0px"
	 width="13.927px" height="13.927px" viewBox="0.753 8.419 13.927 13.927" enable-background="new 0.753 8.419 13.927 13.927"
	 xml:space="preserve">
<title>2A5EABD1-0854-4263-8C8F-91B98562C4B7</title>
<desc>Created with sketchtool.</desc>
<g id="Page-1">
	<g id="MeasureMatch_SignUp_Freelance_1" transform="translate(-1376 -41)">
		<g id="cross" transform="translate(1376 40)">
			<path id="Rectangle-10" d="M1.03,9.696L1.03,9.696c0.369-0.37,0.968-0.37,1.337,0L14.402,21.73c0.369,0.369,0.369,0.969,0,1.338
				l0,0c-0.369,0.369-0.969,0.369-1.338,0L1.03,11.033C0.661,10.664,0.661,10.065,1.03,9.696z"/>
			<path id="Rectangle-10_1_" d="M14.402,9.696L14.402,9.696c-0.369-0.37-0.969-0.37-1.338,0L1.03,21.73
				c-0.37,0.369-0.37,0.969,0,1.338l0,0c0.369,0.369,0.968,0.369,1.337,0l12.035-12.035C14.771,10.664,14.771,10.065,14.402,9.696z"
				/>
		</g>
	</g>
</g>
</svg>
