<?xml version="1.0" encoding="UTF-8"?>
<svg width="119px" height="120px" viewBox="0 0 119 120" version="1.1" xmlns="http://www.w3.org/2000/svg" xmlns:xlink="http://www.w3.org/1999/xlink">
    <!-- Generator: sketchtool 50.2 (55047) - http://www.bohemiancoding.com/sketch -->
    <title>815F1320-20B2-4801-9EBE-927D0DA0DDA0</title>
    <desc>Created with sketchtool.</desc>
    <defs></defs>
    <g id="Page-1" stroke="none" stroke-width="1" fill="none" fill-rule="evenodd">
        <g id="ResetPasswordEmailSent" transform="translate(-661.000000, -118.000000)">
            <g id="email-confirmation" transform="translate(663.000000, 120.000000)">
                <g id="Group-198" stroke-linecap="round" stroke-linejoin="round" stroke-width="3">
                    <path d="M51,81 L51,116" id="Stroke-370" stroke="#424242"></path>
                    <path d="M81,45 L81,0" id="Stroke-371" stroke="#424242"></path>
                    <polygon id="Stroke-372" stroke="#424242" points="56 15 81 15 81 0 56 0"></polygon>
                    <polygon id="Stroke-373" stroke="#1D71B8" points="110 75 100 75 100 45 115 45"></polygon>
                    <path d="M90,31 L100,31 L100,81 L0,81 L0,51 C0,39.955 8.955,31 20,31 L70,31" id="Stroke-369" stroke="#424242"></path>
                </g>
                <g id="Group-2" transform="translate(33.000000, 46.000000)">
                    <path d="M34.7000482,12.8054634 L27.5936886,5.87034146 L21.7969347,0.213268293 C21.5055224,-0.0711219512 21.0286661,-0.0711219512 20.736754,0.213268293 L17.6966697,3.18058537 L20.4533394,5.87034146 L27.5596989,12.8054634 C27.8511111,13.0898537 27.8511111,13.5557073 27.5596989,13.8400976 L24.8030292,16.5303415 L27.8431135,19.4971707 C28.1345257,19.781561 28.611882,19.781561 28.9032942,19.4971707 L34.7000482,13.8400976 C34.9914604,13.5557073 34.9914604,13.0898537 34.7000482,12.8054634" id="Fill-24" fill="#36A9E1"></path>
                    <path d="M10.5905601,16.5301463 L13.6306444,19.4969756 C13.9220566,19.7813659 14.3994128,19.7813659 14.6908251,19.4969756 L17.6969196,16.5638049 L14.126495,13.0794146 L10.5905601,16.5301463 Z" id="Fill-26" fill="#36A9E1"></path>
                    <path d="M7.83409033,12.8054634 L14.9404499,5.87034146 L17.6966197,3.18058537 L14.6565354,0.213268293 C14.3651232,-0.0711219512 13.8877669,-0.0711219512 13.5963547,0.213268293 L7.79960072,5.87034146 L0.693741042,12.8054634 C0.401828967,13.0898537 0.401828967,13.5557073 0.693741042,13.8400976 L6.48999518,19.4971707 C6.78190726,19.781561 7.25876363,19.781561 7.55017585,19.4971707 L10.59076,16.5303415 L7.83409033,13.8400976 C7.54267811,13.5557073 7.54267811,13.0898537 7.83409033,12.8054634" id="Fill-28" fill="#1D71B8"></path>
                    <path d="M17.6967696,16.5637073 L20.7023643,19.496878 C20.9942764,19.7817561 21.4711328,19.7817561 21.762545,19.496878 L24.8031292,16.5300488 L21.2671942,13.0793171 L17.6967696,16.5637073 Z" id="Fill-30" fill="#1D71B8"></path>
                    <path d="M27.559449,12.8054634 L20.4530894,5.87034146 L17.6969196,3.18058537 L14.9402499,5.87034146 L7.83389039,12.8054634 C7.54247817,13.0898537 7.54247817,13.5557073 7.83389039,13.8400976 L10.5905601,16.5303415 L14.126495,13.0796098 L17.6969196,16.5635122 L21.2668443,13.0796098 L24.8027793,16.5303415 L27.559449,13.8400976 C27.8508612,13.5557073 27.8508612,13.0898537 27.559449,12.8054634" id="Fill-32" fill="#29235C"></path>
                </g>
            </g>
        </g>
    </g>
</svg>