<?xml version="1.0" encoding="UTF-8"?>
<svg width="60px" height="60px" viewBox="0 0 60 60" version="1.1" xmlns="http://www.w3.org/2000/svg" xmlns:xlink="http://www.w3.org/1999/xlink">
    <!-- Generator: Sketch 47 (45396) - http://www.bohemiancoding.com/sketch -->
    <title>empty-state-icon</title>
    <desc>Created with Sketch.</desc>
    <defs></defs>
    <g id="•-Find-an-Expert" stroke="none" stroke-width="1" fill="none" fill-rule="evenodd" stroke-linecap="round" stroke-linejoin="round">
        <g id="MM_Buyer_findAnExpert_1.9-Empty-Screen" transform="translate(-727.000000, -208.000000)" stroke="#424242" stroke-width="3">
            <g id="empty-state-icon" transform="translate(729.000000, 210.000000)">
                <path d="M43.7283951,21.9506173 C43.7283951,33.9792099 33.9792099,43.7283951 21.9506173,43.7283951 C9.92202469,43.7283951 0.172839506,33.9792099 0.172839506,21.9506173 C0.172839506,9.92202469 9.92202469,0.172839506 21.9506173,0.172839506 C33.9792099,0.172839506 43.7283951,9.92202469 43.7283951,21.9506173 L43.7283951,21.9506173 Z" id="Stroke-964"></path>
                <path d="M37.3482321,37.3506519 L55.8278864,55.8278864" id="Stroke-965"></path>
                <polyline id="Stroke-966" points="18.3209877 24.4957136 18.3209877 28.7810963 8.64197531 32.8390222"></polyline>
                <polyline id="Stroke-967" points="25.5802469 24.4957136 25.5802469 28.7810963 35.2592593 32.8390222"></polyline>
                <path d="M29.6848741,16.2958963 C29.6848741,21.4233531 26.2197877,25.5804889 21.9513432,25.5804889 C17.6756395,25.5804889 14.2129728,21.4233531 14.2129728,16.2958963 C14.2129728,11.1708593 17.6756395,7.01372346 21.9513432,7.01372346 C26.2197877,7.01372346 29.6848741,11.1708593 29.6848741,16.2958963 L29.6848741,16.2958963 Z" id="Stroke-968"></path>
                <path d="M29.6115556,15.0906173 C29.362321,15.1196543 29.0162963,15.1051358 28.7622222,15.1535309 C26.2432593,15.6399012 24.6268642,14.7276543 23.2379259,12.2982222 C22.4055309,13.8928395 19.8042963,15.1535309 17.6676543,15.1535309 C16.612642,15.1535309 15.3132346,14.8897778 14.4058272,14.4179259" id="Stroke-969"></path>
            </g>
        </g>
    </g>
</svg>