<?xml version="1.0" encoding="UTF-8"?>
<svg width="52px" height="80px" viewBox="0 0 52 80" version="1.1" xmlns="http://www.w3.org/2000/svg" xmlns:xlink="http://www.w3.org/1999/xlink">
    <!-- Generator: Sketch 47.1 (45422) - http://www.bohemiancoding.com/sketch -->
    <title>EOIs-emptyState</title>
    <desc>Created with Sketch.</desc>
    <defs></defs>
    <g id="•-Service-Packages" stroke="none" stroke-width="1" fill="none" fill-rule="evenodd" stroke-linejoin="round">
        <g id="MM-Expert-MyPackages_Awaiting_Example_1.2" transform="translate(-610.000000, -287.000000)" stroke-width="2">
            <g id="EOIs-emptyState" transform="translate(611.000000, 288.000000)">
                <path d="M16.058,0.666666667 C25.0146667,12.48 25.478,32.0233333 16.058,42.43 C13.558,39.4933333 11.8513333,36.2566667 11.058,32.3333333 C-8.59866667,46.4166667 1.76133333,77.3333333 26.058,77.3333333 C62.5946667,77.3333333 55.778,16.2866667 16.058,0.666666667 L16.058,0.666666667 Z" id="Stroke-329" stroke="#424242"></path>
                <path d="M27.7246667,47.3333333 C31.0246667,53.21 22.6846667,61.6466667 17.7246667,60.48 C18.4213333,64.3733333 21.808,67.3333333 25.9046667,67.3333333 C30.5113333,67.3333333 34.098,63.6 34.238,59 C34.3913333,54 32.7246667,47.3333333 27.7246667,47.3333333 L27.7246667,47.3333333 Z" id="Stroke-330" stroke="#1E70B7"></path>
            </g>
        </g>
    </g>
</svg>