<?xml version="1.0" encoding="UTF-8"?>
<svg width="107px" height="122px" viewBox="0 0 107 122" version="1.1" xmlns="http://www.w3.org/2000/svg" xmlns:xlink="http://www.w3.org/1999/xlink">
    <!-- Generator: Sketch 48.2 (47327) - http://www.bohemiancoding.com/sketch -->
    <title>expressedInterest-success</title>
    <desc>Created with Sketch.</desc>
    <defs/>
    <g id="MM_Expert_ViewProject-3" stroke="none" stroke-width="1" fill="none" fill-rule="evenodd" transform="translate(-571.000000, -303.000000)" stroke-linecap="round" stroke-linejoin="round">
        <g id="Group-8" stroke-width="2">
            <g id="Group-7" transform="translate(341.000000, 251.000000)">
                <g id="Group-6" transform="translate(62.000000, 53.000000)">
                    <g id="expressedInterest-success" transform="translate(169.000000, 0.000000)">
                        <g id="Group-5" transform="translate(31.168831, 28.831169)" stroke="#424242">
                            <path d="M31.7428571,15.5844156 C31.7428571,24.1922078 24.7662338,31.1688312 16.1584416,31.1688312 C7.55064935,31.1688312 0.574025974,24.1922078 0.574025974,15.5844156 C0.574025974,6.97662338 7.55064935,0 16.1584416,0 C24.7662338,0 31.7428571,6.97662338 31.7428571,15.5844156 L31.7428571,15.5844156 Z" id="Stroke-7806"/>
                            <path d="M31.585974,18.3392208 L55.1184416,41.8768831 C58.1625974,44.921039 58.1625974,49.2223377 55.1184416,52.2664935 C52.0794805,55.3002597 47.772987,55.3106494 44.7288312,52.2664935 L22.385974,29.8716883" id="Stroke-7807"/>
                            <path d="M5.14025974,26.6031169 L27.1714286,4.57194805" id="Stroke-7808"/>
                        </g>
                        <path d="M67.7922078,72.987013 L67.7922078,104.155844" id="Stroke-7809" stroke="#424242"/>
                        <path d="M60,104.155844 L75.5844156,104.155844" id="Stroke-7810" stroke="#424242"/>
                        <path d="M104.155844,106.753247 C104.155844,113.927273 86.7116883,119.74026 65.1948052,119.74026 C43.6779221,119.74026 26.2337662,113.927273 26.2337662,106.753247 C26.2337662,99.5792208 43.6779221,93.7662338 65.1948052,93.7662338 C86.7116883,93.7662338 104.155844,99.5792208 104.155844,106.753247 L104.155844,106.753247 Z" id="Stroke-7811" stroke="#424242"/>
                        <path d="M49.2961039,70.3896104 L29.5662338,101.490909" id="Stroke-7812" stroke="#424242"/>
                        <polyline id="Stroke-7813" stroke="#424242" points="104.155844 106.753247 93.7662338 0.25974026 70.7064935 36.6233766"/>
                        <path d="M13.2467532,10.6493506 C13.2155844,18.8051948 17.1948052,23.4441558 26.2337662,23.6363636 C17.8441558,23.6051948 13.6727273,28.1038961 13.2467532,36.6233766 C13.174026,28.587013 9.57402597,23.625974 0.25974026,23.6363636 C8.5974026,23.5220779 13.2155844,19.4961039 13.2467532,10.6493506 L13.2467532,10.6493506 Z" id="Stroke-7814" stroke="#1E70B7"/>
                        <path d="M62.5974026,0.25974026 C62.5662338,8.41558442 66.5454545,13.0545455 75.5844156,13.2467532 C67.1948052,13.2155844 63.0233766,17.7142857 62.5974026,26.2337662 C62.5246753,18.1974026 58.9246753,13.2363636 49.6103896,13.2467532 C57.9480519,13.1324675 62.5662338,9.10649351 62.5974026,0.25974026 L62.5974026,0.25974026 Z" id="Stroke-7815" stroke="#1E70B7"/>
                    </g>
                </g>
            </g>
        </g>
    </g>
</svg>