<?xml version="1.0" encoding="UTF-8"?>
<svg width="24px" height="14px" viewBox="0 0 24 14" version="1.1" xmlns="http://www.w3.org/2000/svg" xmlns:xlink="http://www.w3.org/1999/xlink">
    <!-- Generator: sketchtool 52.5 (67469) - http://www.bohemiancoding.com/sketch -->
    <title>4FD56743-3505-469B-85F5-444779778E45</title>
    <desc>Created with sketchtool.</desc>
    <g id="•-Onboarding" stroke="none" stroke-width="1" fill="none" fill-rule="evenodd" stroke-linecap="round" stroke-linejoin="round">
        <g id="Buyer-Onboarding-•-3-(Filled)" transform="translate(-614.000000, -445.000000)" stroke="#1D71B8">
            <g id="eye" transform="translate(614.000000, 445.000000)">
                <path d="M23.5,7 C23.5,7 18.352,13.5 12,13.5 C5.648,13.5 0.5,7 0.5,7 C0.5,7 5.648,0.5 12,0.5 C18.352,0.5 23.5,7 23.5,7 L23.5,7 Z" id="Stroke-130"></path>
                <path d="M16,7 C16,9.21 14.209,11 12,11 C9.791,11 8,9.21 8,7 C8,4.79 9.791,3 12,3 C14.209,3 16,4.79 16,7 L16,7 Z" id="Stroke-131"></path>
            </g>
        </g>
    </g>
</svg>