<?xml version="1.0" encoding="UTF-8"?>
<svg width="42px" height="42px" viewBox="0 0 42 42" version="1.1" xmlns="http://www.w3.org/2000/svg" xmlns:xlink="http://www.w3.org/1999/xlink">
    <!-- Generator: Sketch 49.1 (51147) - http://www.bohemiancoding.com/sketch -->
    <title>feeling-stuck</title>
    <desc>Created with Sketch.</desc>
    <defs></defs>
    <g id="Symbols" stroke="none" stroke-width="1" fill="none" fill-rule="evenodd" stroke-linecap="round" stroke-linejoin="round">
        <g id="Post-a-Project-RHS" transform="translate(1.000000, -311.000000)" stroke="#424242" stroke-width="2">
            <g id="Group-15">
                <g transform="translate(0.000000, 312.000000)">
                    <g id="feeling-stuck">
                        <path d="M24.1666667,0.909090909 L7.5,0.909090909 C3.81833333,0.909090909 0.833333333,4.16545455 0.833333333,8.18181818 L0.833333333,15.4545455 C0.833333333,19.4727273 3.81833333,22.7272727 7.5,22.7272727 L9.16666667,22.7272727 L9.16666667,30 L16.6666667,22.7272727 L24.1666667,22.7272727 C27.8483333,22.7272727 30.8333333,19.4727273 30.8333333,15.4545455 L30.8333333,8.18181818 C30.8333333,4.16545455 27.8483333,0.909090909 24.1666667,0.909090909 L24.1666667,0.909090909 Z" id="Stroke-5883"></path>
                        <path d="M19.1666667,29.0909091 C19.1666667,31.6018182 21.0316667,33.6363636 23.3333333,33.6363636 L27.5,33.6363636 L32.5,39.0909091 L32.5,33.6363636 L35,33.6363636 C37.3016667,33.6363636 39.1666667,31.6018182 39.1666667,29.0909091 L39.1666667,25.4545455 C39.1666667,22.9436364 37.3016667,20.9090909 35,20.9090909" id="Stroke-5884"></path>
                    </g>
                </g>
            </g>
        </g>
    </g>
</svg>