<?xml version="1.0" encoding="UTF-8" standalone="no"?>
<svg xmlns="http://www.w3.org/2000/svg" height="41px" width="277px" version="1.1" xmlns:xlink="http://www.w3.org/1999/xlink" viewBox="0 0 277 41"><!-- Generator: Sketch 40.3 (33839) - http://www.bohemiancoding.com/sketch -->
 <title>Footer_logo</title>
 <desc>Created with Sketch.</desc>
 <g id="Assets" fill-rule="evenodd" fill="none">
  <g id="Artboard" transform="translate(-1396 -161)">
   <g id="Footer_logo" transform="translate(1396 161)">
    <path id="Fill-24" fill="#36A9E1" d="m69.421 26.251l-14.217-14.217-11.597-11.597c-0.583-0.5828-1.537-0.5828-2.121 0.0002l-6.082 6.083 5.515 5.5138 14.217 14.217c0.583 0.583 0.583 1.538 0 2.121l-5.515 5.515 6.082 6.082c0.583 0.583 1.538 0.583 2.121 0l11.597-11.597c0.583-0.583 0.583-1.538 0-2.121"/>
    <path id="Fill-26" fill="#36A9E1" d="m21.188 33.887l6.082 6.082c0.582 0.583 1.538 0.583 2.12 0l6.014-6.013-7.142-7.143-7.074 7.074z"/>
    <path id="Fill-28" fill="#1D71B8" d="m15.673 26.251l14.217-14.217 5.514-5.5138-6.082-6.083c-0.583-0.583-1.538-0.583-2.121 0l-11.597 11.597-14.216 14.217c-0.5841 0.583-0.5841 1.538-0.0001 2.121l11.596 11.597c0.584 0.583 1.538 0.583 2.121 0l6.083-6.082-5.515-5.515c-0.583-0.583-0.583-1.538 0-2.121"/>
    <path id="Fill-30" fill="#1D71B8" d="m35.404 33.956l6.013 6.013c0.584 0.584 1.538 0.584 2.121 0l6.083-6.082-7.074-7.074-7.143 7.143z"/>
    <path id="Fill-32" fill="#29235C" d="m55.136 26.251l-14.218-14.217-5.514-5.5138-5.514 5.5138-14.218 14.217c-0.582 0.583-0.582 1.538 0 2.121l5.516 5.515 7.074-7.074 7.142 7.142 7.142-7.142 7.074 7.074 5.516-5.515c0.582-0.583 0.582-1.538 0-2.121"/>
    <path id="Measure" fill="#36A9E1" d="m100.04 9.7h-4.64l-5.51 9.019-5.51-9.019h-4.64v20.3h4.64v-11.803l5.249 8.613h0.522l5.249-8.613v11.803h4.64v-20.3zm7.12 14.79h10.3c0.11-0.551 0.17-1.131 0.17-1.74 0-4.379-3.13-7.656-7.37-7.656-4.58 0-7.71 3.335-7.71 7.656s3.07 7.656 8.03 7.656c2.76 0 4.9-1.015 6.32-2.987l-3.48-2.001c-0.58 0.638-1.59 1.102-2.78 1.102-1.59 0-2.93-0.522-3.48-2.03zm-0.09-3.248c0.41-1.479 1.51-2.291 3.17-2.291 1.3 0 2.6 0.609 3.07 2.291h-6.24zm23.31-5.742v1.363c-0.96-1.102-2.38-1.769-4.32-1.769-3.8 0-6.94 3.335-6.94 7.656s3.14 7.656 6.94 7.656c1.94 0 3.36-0.667 4.32-1.769v1.363h4.35v-14.5h-4.35zm-3.45 10.788c-2.01 0-3.45-1.363-3.45-3.538s1.44-3.538 3.45-3.538c2 0 3.45 1.363 3.45 3.538s-1.45 3.538-3.45 3.538zm14.86-6.554c0-0.522 0.46-0.812 1.22-0.812 0.95 0 1.53 0.522 1.94 1.276l3.71-2.001c-1.22-2.059-3.3-3.103-5.65-3.103-3.02 0-5.69 1.595-5.69 4.756 0 5.017 7.14 4.176 7.14 5.771 0 0.58-0.52 0.899-1.57 0.899-1.27 0-2.09-0.609-2.46-1.711l-3.77 2.146c1.13 2.349 3.33 3.451 6.23 3.451 3.13 0 6.03-1.421 6.03-4.756 0-5.365-7.13-4.263-7.13-5.916zm18.58-4.234v7.917c0 2.059-1.11 2.987-2.7 2.987-1.39 0-2.52-0.841-2.52-2.639v-8.265h-4.35v8.903c0 3.915 2.49 6.003 5.42 6.003 1.91 0 3.36-0.696 4.15-1.769v1.363h4.35v-14.5h-4.35zm11.79 2.581v-2.581h-4.35v14.5h4.35v-6.554c0-2.871 2.55-3.596 4.35-3.306v-4.93c-1.83 0-3.77 0.928-4.35 2.871zm10.16 6.409h10.3c0.11-0.551 0.17-1.131 0.17-1.74 0-4.379-3.13-7.656-7.37-7.656-4.58 0-7.71 3.335-7.71 7.656s3.07 7.656 8.03 7.656c2.76 0 4.9-1.015 6.33-2.987l-3.48-2.001c-0.58 0.638-1.6 1.102-2.79 1.102-1.59 0-2.93-0.522-3.48-2.03zm-0.08-3.248c0.4-1.479 1.5-2.291 3.16-2.291 1.3 0 2.61 0.609 3.07 2.291h-6.23z"/>
    <path id="Match" fill="#1D71B8" d="m214.88 9.7h-1.94l-7.25 12.006-7.25-12.006h-1.92v20.3h1.54v-18.038l7.51 12.47h0.26l7.51-12.47v18.038h1.54v-20.3zm17.42 5.8v3.277c-1.22-2.175-3.46-3.596-6.24-3.596-4.12 0-7.51 3.277-7.51 7.569s3.39 7.569 7.51 7.569c2.78 0 5.02-1.421 6.24-3.596v3.277h1.48v-14.5h-1.48zm-6.12 13.427c-3.45 0-6.15-2.726-6.15-6.177s2.7-6.177 6.15-6.177 6.12 2.726 6.12 6.177-2.67 6.177-6.12 6.177zm19.38-12.006v-1.421h-4.32v-4.06l-1.48 0.435v3.625h-3.18v1.421h3.18v9.425c0 3.306 2.01 4.234 5.8 3.654v-1.305c-2.95 0.261-4.32 0.203-4.32-2.349v-9.425h4.32zm9.16 13.398c2.84 0 5.27-1.45 6.43-3.683l-1.21-0.725c-0.96 1.798-2.88 3.016-5.22 3.016-3.51 0-6.15-2.726-6.15-6.177s2.64-6.177 6.15-6.177c2.32 0 4.29 1.189 5.13 3.016l1.19-0.696c-1.05-2.262-3.48-3.712-6.32-3.712-4.38 0-7.63 3.277-7.63 7.569s3.25 7.569 7.63 7.569zm16.16-15.138c-2.23 0-4.08 0.928-5.19 3.074v-8.555h-1.45v20.3h1.45v-7.656c0-3.915 2.24-5.771 5.08-5.771 2.73 0 4.26 1.74 4.26 4.408v9.019h1.48v-9.019c0-3.509-2.17-5.8-5.63-5.8z"/>
   </g>
  </g>
 </g>
</svg>
