<?xml version="1.0" encoding="UTF-8" standalone="no"?>
<svg width="25px" height="41px" viewBox="0 0 25 41" version="1.1" xmlns="http://www.w3.org/2000/svg" xmlns:xlink="http://www.w3.org/1999/xlink">
    <!-- Generator: sketchtool 3.8.3 (29802) - http://www.bohemiancoding.com/sketch -->
    <title>8D04296C-8F83-47C3-84D7-0D0C5290B741</title>
    <desc>Created with sketchtool.</desc>
    <defs></defs>
    <g id="Page-1" stroke="none" stroke-width="1" fill="none" fill-rule="evenodd">
        <g id="MM-HOME" transform="translate(-163.000000, -3952.000000)" fill="#3E3C37">
            <g id="GPS" transform="translate(163.000000, 3952.000000)">
                <path d="M12.5,0 C5.60909091,0 0,5.85388889 0,13.0516667 C0,19.8553889 11.0386364,39.5832222 11.5090909,40.4191667 C11.7113636,40.7767778 12.0886364,41 12.5,41 C12.9113636,41 13.2886364,40.7767778 13.4909091,40.4191667 C13.9613636,39.5809444 25,19.8531111 25,13.0516667 C25,5.85388889 19.3909091,0 12.5,0 L12.5,0 Z M12.5,37.5058889 C8.93409091,30.9436111 2.27272727,17.7279444 2.27272727,13.0516667 C2.27272727,7.11122222 6.86136364,2.27777778 12.5,2.27777778 C18.1386364,2.27777778 22.7272727,7.11122222 22.7272727,13.0516667 C22.7272727,17.7233889 16.0659091,30.9436111 12.5,37.5058889 L12.5,37.5058889 Z" id="Shape"></path>
                <path d="M12.5,6.83333333 C9.36590909,6.83333333 6.81818182,9.38672222 6.81818182,12.5277778 C6.81818182,15.6688333 9.36590909,18.2222222 12.5,18.2222222 C15.6340909,18.2222222 18.1818182,15.6688333 18.1818182,12.5277778 C18.1818182,9.38672222 15.6340909,6.83333333 12.5,6.83333333 L12.5,6.83333333 Z M12.5,15.9444444 C10.6204545,15.9444444 9.09090909,14.4115 9.09090909,12.5277778 C9.09090909,10.6440556 10.6204545,9.11111111 12.5,9.11111111 C14.3795455,9.11111111 15.9090909,10.6440556 15.9090909,12.5277778 C15.9090909,14.4115 14.3795455,15.9444444 12.5,15.9444444 L12.5,15.9444444 Z" id="Shape"></path>
            </g>
        </g>
    </g>
</svg>