<?xml version="1.0" encoding="UTF-8" standalone="no"?>
<svg width="40px" height="41px" viewBox="0 0 40 41" version="1.1" xmlns="http://www.w3.org/2000/svg" xmlns:xlink="http://www.w3.org/1999/xlink">
    <!-- Generator: sketchtool 3.8.3 (29802) - http://www.bohemiancoding.com/sketch -->
    <title>4E656D4D-1137-4E1E-9966-CE88461A8412</title>
    <desc>Created with sketchtool.</desc>
    <defs></defs>
    <g id="Page-1" stroke="none" stroke-width="1" fill="none" fill-rule="evenodd">
        <g id="MM-HOME" transform="translate(-148.000000, -1450.000000)" fill="#3E3C36">
            <g id="Get_paid" transform="translate(148.000000, 1450.000000)">
                <path d="M39.5850826,32.9576401 C39.2281983,32.2324217 38.723273,31.634788 38.1350747,31.1580241 C38.2989772,30.3414819 38.3915028,29.5007658 38.3915028,28.6479627 C38.3915028,24.5961408 31.6001259,15.573887 29.1429111,12.4406751 L31.0621558,12.4406751 C31.4269709,12.4406751 31.7230527,12.1398437 31.7230527,11.7691766 C31.7230527,11.3985094 31.4269709,11.0976781 31.0621558,11.0976781 L29.6557671,11.0976781 C31.8856334,9.22822628 35.7294099,5.6974872 35.9567585,3.39559036 C36.0122738,2.82347364 35.8629111,2.31582078 35.5232101,1.92500866 C34.1815893,0.380562123 30.5426908,2.67037199 28.5652872,4.11140776 C27.5171046,2.665 25.6546971,0.353702184 24.4531865,0.353702184 C23.2516758,0.353702184 21.3892683,2.665 20.3410858,4.11140776 C18.3650039,2.66902899 14.728749,0.379219127 13.3831629,1.92366566 C13.0434618,2.31447779 12.8940991,2.82347364 12.9496145,3.39424736 C13.1782848,5.6961442 17.0220614,9.22822628 19.2519276,11.0976781 L17.8442172,11.0976781 C17.479402,11.0976781 17.1833202,11.3985094 17.1833202,11.7691766 C17.1833202,12.1398437 17.479402,12.4406751 17.8442172,12.4406751 L19.7290952,12.4406751 C17.7146814,14.9023886 12.9985208,20.8773822 11.4255862,24.6538897 L9.6913926,24.2617346 C9.78920535,23.64127 9.86719119,23.0651242 9.90948859,22.5709014 C9.92799371,22.3667658 9.85265146,22.1666593 9.70593234,22.0256446 C8.2704642,20.6437007 1.92321007,20.510744 0.666184107,20.498657 C0.535326515,20.495971 0.322517703,20.5671498 0.195625492,20.6933916 C0.0713768686,20.8196333 0,20.9915369 0,21.1701555 L0,37.2861194 C0,37.6567865 0.296081825,37.9576178 0.660896932,37.9576178 L5.94807238,37.9576178 C6.24415421,37.9576178 6.50190401,37.7588543 6.58121164,37.4701099 C6.60896932,37.3720712 6.78080252,36.7569785 7.02797797,35.8397116 L18.7602203,39.8136397 C20.1335641,40.3414375 21.0826121,40.6462978 22.1532651,40.6462978 C23.821369,40.6449548 25.7829111,39.9022775 30.0998899,38.1026615 L39.2665303,33.869535 C39.4291109,33.7943272 39.5560031,33.6546555 39.6168057,33.4827519 C39.6762864,33.3108483 39.665712,33.1214857 39.5850826,32.9576401 L39.5850826,32.9576401 Z M14.2647994,3.25994767 C14.2396853,3.00477824 14.3097404,2.8865945 14.3745083,2.81272967 C14.7472541,2.38565663 17.3829111,3.52317508 20.0899449,5.59139044 C20.2340205,5.70151619 20.416428,5.74852108 20.5909048,5.71763215 C20.7680252,5.68942922 20.9253186,5.59004744 21.0284186,5.44097477 C22.3621086,3.5124311 23.9680881,1.76250602 24.4439339,1.69669917 C24.9382848,1.76250602 26.5429426,3.5110881 27.8779544,5.44097477 C27.9810543,5.59004744 28.1383478,5.68942922 28.3154681,5.71763215 C28.4899449,5.74717809 28.6723525,5.70151619 28.816428,5.59139044 C31.5247836,3.52451807 34.1591188,2.37894164 34.5318647,2.81272967 C34.5966326,2.8865945 34.6666876,3.00343524 34.6415736,3.25994767 C34.459166,5.09448155 30.2611487,8.97574285 27.534288,11.0976781 L21.372085,11.0976781 C18.6452242,8.97574285 14.4472069,5.09582455 14.2647994,3.25994767 L14.2647994,3.25994767 Z M21.4540362,12.4406751 L27.4457278,12.4406751 C30.3060897,15.9835011 37.0683871,25.1158806 37.0683871,28.6479627 C37.0683871,29.2442534 37.0075846,29.8311431 36.9177026,30.4086318 C35.8867034,29.9627568 34.715594,29.841887 33.5524154,30.1386894 L27.9493312,31.5622662 C27.860771,30.5012986 27.5263572,29.6565535 26.9156884,28.9998279 C27.4576239,28.4397982 27.7576711,27.7212948 27.7576711,26.9705595 C27.7576711,25.5496687 26.8905744,24.5880828 25.1140834,24.072372 L25.1140834,20.6007248 C25.8463572,20.8236623 26.3882927,21.401151 26.4371991,22.1035384 C26.4636349,22.4742056 26.7861526,22.7562349 27.1443588,22.725346 C27.5078521,22.6998291 27.7827852,22.3775098 27.7563493,22.0081856 C27.6572148,20.6154977 26.5455862,19.4887233 25.1140834,19.2187809 L25.1140834,18.4841615 C25.1140834,18.1134944 24.8180016,17.812663 24.4531865,17.812663 C24.0883714,17.812663 23.7922895,18.1134944 23.7922895,18.4841615 L23.7922895,19.2174379 C22.2854445,19.5021532 21.1487018,20.7350245 21.1487018,22.2082922 C21.1487018,23.629183 22.0171204,24.5907688 23.7922895,25.1051367 L23.7922895,27.4446374 L12.7381275,24.949349 C14.5635248,20.8048603 20.3172935,13.803817 21.4540362,12.4406751 L21.4540362,12.4406751 Z M23.7922895,23.6990188 C22.9014005,23.3807285 22.4704957,22.9120226 22.4704957,22.2082922 C22.4704957,21.4669578 23.0243273,20.8411212 23.7922895,20.6047538 L23.7922895,23.6990188 L23.7922895,23.6990188 Z M25.1140834,25.4784898 C26.0049725,25.7967801 26.4358773,26.2654861 26.4358773,26.9705595 C26.4358773,27.3761446 26.2653659,27.7696427 25.9587097,28.079875 C25.9256648,28.1121069 25.9098033,28.1537398 25.8846892,28.1913437 C25.6494099,28.05973 25.3916601,27.9415463 25.1140834,27.8341066 L25.1140834,25.4784898 L25.1140834,25.4784898 Z M1.32179386,36.6146209 L1.32179386,21.853741 C3.96538159,21.9222338 7.44302124,22.2458961 8.55729347,22.8341288 C8.22420142,25.846471 6.86804091,31.2721788 6.01680566,34.4940286 C5.95203777,34.5625215 5.89916601,34.6431013 5.86744296,34.7397971 C5.82911094,34.8579808 5.83439811,34.9775075 5.8595122,35.0916623 C5.68767899,35.7349578 5.54360346,36.2667846 5.44711251,36.6146209 C5.44711251,36.6146209 1.32179386,36.6146209 1.32179386,36.6146209 L1.32179386,36.6146209 Z M29.5777813,36.8711333 C22.667443,39.7478328 22.2722266,39.7263449 19.2030212,38.5485365 L7.37428796,34.5423765 C8.02328875,32.075291 8.91549961,28.504262 9.46272227,25.5872726 L23.8319434,28.8306103 C25.8014162,29.3315482 26.5905271,30.1722643 26.6592604,31.8899575 L24.9237451,32.3304605 C24.3064673,32.4875911 23.6495358,32.5037071 23.0203619,32.3761224 L15.7888277,30.9068837 C15.4345869,30.8330188 15.0843116,31.0693863 15.0116129,31.4333385 C14.940236,31.7972907 15.1728718,32.1504989 15.5310779,32.2230207 L22.7626121,33.6922594 C23.1274272,33.7674672 23.4988513,33.8037282 23.8715972,33.8037282 C24.334225,33.8037282 24.7968529,33.7473223 25.2436192,33.6331675 L27.4853816,33.0637368 L27.4880252,33.0637368 L33.8722895,31.4413965 C35.4769473,31.0331254 37.0987884,31.652247 38.0425492,32.9603261 L29.5777813,36.8711333 L29.5777813,36.8711333 Z"></path>
            </g>
        </g>
    </g>
</svg>