<?xml version="1.0" encoding="UTF-8" standalone="no"?>
<svg width="41px" height="37px" viewBox="0 0 41 37" version="1.1" xmlns="http://www.w3.org/2000/svg" xmlns:xlink="http://www.w3.org/1999/xlink">
    <!-- Generator: sketchtool 3.8.3 (29802) - http://www.bohemiancoding.com/sketch -->
    <title>A2096960-475C-4307-8F85-FC2F29108643</title>
    <desc>Created with sketchtool.</desc>
    <defs></defs>
    <g id="Page-1" stroke="none" stroke-width="1" fill="none" fill-rule="evenodd">
        <g id="MM-HOME" transform="translate(-148.000000, -1568.000000)" fill="#3E3C36">
            <g id="graduation_hat" transform="translate(148.000000, 1568.000000)">
                <path d="M39.902162,9.5997764 L22.240324,0.52052795 C21.2254022,-0.00183850932 19.6958045,-0.00183850932 18.6806536,0.52052795 L1.01904469,9.5997764 C0.371519553,9.93254658 -0.000687150838,10.4567516 1.1104215e-13,11.0384099 C1.1104215e-13,11.6200683 0.371519553,12.1442733 1.01881564,12.4770435 L6.33621788,15.2104472 C6.33598883,15.2182609 6.33186592,15.2249255 6.33186592,15.2327391 L6.33186592,25.6131925 C6.33186592,25.8914969 6.47639665,26.1498075 6.71277654,26.2948199 C6.93358101,26.4297205 12.2161676,29.6057453 20.6573575,29.6057453 C24.5974804,29.6057453 27.8373966,28.9128571 30.2076089,28.1613665 L30.2076089,30.517646 C28.8383464,30.8745466 27.8199888,32.1141615 27.8199888,33.5982981 C27.8199888,35.3598199 29.2476592,36.7922484 31.0033296,36.7922484 C32.759,36.7922484 34.1866704,35.3598199 34.1866704,33.5982981 C34.1866704,32.1141615 33.1683128,30.8747764 31.7990503,30.517646 L31.7990503,27.6054472 C33.5215084,26.9403665 34.5094022,26.3511242 34.6017095,26.2945901 C34.8380894,26.1495776 34.9826201,25.8914969 34.9826201,25.6129627 L34.9826201,15.2329689 C34.9826201,15.1598882 34.959486,15.0943913 34.9413911,15.0275155 L39.9023911,12.4772733 C40.5499162,12.1442733 40.9221229,11.6202981 40.9214358,11.0386398 C40.9212067,10.4567516 40.5496872,9.93254658 39.902162,9.5997764 L39.902162,9.5997764 Z M30.2071508,26.4749938 C27.9340559,27.2428012 24.668486,28.009 20.6571285,28.009 C13.9296927,28.009 9.24859218,25.8365714 7.92353631,25.1416149 L7.92353631,16.0265155 L18.6806536,21.5562919 C19.1882291,21.8175901 19.8238436,21.9476646 20.4603743,21.9476646 C21.096905,21.9476646 21.7325196,21.8173602 22.240095,21.5562919 L30.2071508,17.4607826 L30.2071508,26.4749938 L30.2071508,26.4749938 Z M32.595,33.598528 C32.595,34.4789441 31.8808212,35.1955031 31.0033296,35.1955031 C30.125838,35.1955031 29.4116592,34.4789441 29.4116592,33.598528 C29.4116592,32.7181118 30.125838,32.0015528 31.0033296,32.0015528 C31.8808212,32.0015528 32.595,32.7181118 32.595,33.598528 L32.595,33.598528 Z M33.3909497,25.1432236 C33.0618045,25.3165031 32.5246816,25.5817081 31.7992793,25.8818447 L31.7992793,16.8299441 C31.7992793,16.7697329 31.7777486,16.716646 31.7651508,16.6601118 L33.3909497,15.8245093 L33.3909497,25.1432236 L33.3909497,25.1432236 Z M39.1763017,11.0563354 L21.5144637,20.1355839 C20.9626816,20.4194037 19.9585251,20.4194037 19.406743,20.1355839 L1.74490503,11.0563354 C1.73322346,11.0501304 1.7224581,11.0439255 1.71146369,11.0384099 C1.7224581,11.0328944 1.73322346,11.0266894 1.74490503,11.0204845 L19.406743,1.94146584 C19.9585251,1.65764596 20.9626816,1.65764596 21.5144637,1.94146584 L39.1763017,11.0204845 C39.1879832,11.0266894 39.1987486,11.0328944 39.209743,11.0384099 C39.1987486,11.0439255 39.1879832,11.0501304 39.1763017,11.0563354 L39.1763017,11.0563354 Z" id="Shape"></path>
                <path d="M11.8189944,9.28631056 C11.6215531,8.8917205 11.1444413,8.73268944 10.751162,8.92918012 L7.56782123,10.5261553 C7.1745419,10.7235652 7.01535196,11.2029565 7.21187709,11.5975466 C7.35182682,11.8774596 7.63241341,12.0387888 7.92445251,12.0387888 C8.04424581,12.0387888 8.16541341,12.011441 8.2797095,11.9544472 L11.4630503,10.357472 C11.8563296,10.1602919 12.0155196,9.68090062 11.8189944,9.28631056 L11.8189944,9.28631056 Z" id="Shape"></path>
                <path d="M13.9345028,10.5261553 L10.751162,12.1231304 C10.3578827,12.3205404 10.1986927,12.7999317 10.3952179,13.1945217 C10.5351676,13.4744348 10.8157542,13.635764 11.1077933,13.635764 C11.2275866,13.635764 11.3487542,13.6084161 11.4630503,13.5514224 L14.6463911,11.9544472 C15.0396704,11.7570373 15.1988603,11.277646 15.0023352,10.8830559 C14.8058101,10.4886957 14.3275531,10.3312733 13.9345028,10.5261553 L13.9345028,10.5261553 Z" id="Shape"></path>
            </g>
        </g>
    </g>
</svg>