<?xml version="1.0" encoding="UTF-8"?>
<svg width="239px" height="112px" viewBox="0 0 239 112" version="1.1" xmlns="http://www.w3.org/2000/svg" xmlns:xlink="http://www.w3.org/1999/xlink">
    <!-- Generator: Sketch 40.3 (33839) - http://www.bohemiancoding.com/sketch -->
    <title>Header_logo</title>
    <desc>Created with Sketch.</desc>
    <defs></defs>
    <g id="Assets" stroke="none" stroke-width="1" fill="none" fill-rule="evenodd">
        <g id="Artboard" transform="translate(-96.000000, -60.000000)">
            <g id="Header_logo" transform="translate(96.000000, 59.000000)">
                <polygon id="Fill-1" fill="#36A9E0" points="18.9513742 86.9769685 12.284065 97.8934576 5.6151691 86.9769685 -0.0001586699 86.9769685 -0.0001586699 111.545416 5.6151691 111.545416 5.6151691 97.2603647 11.9683119 107.68339 12.5998181 107.68339 18.9513742 97.2603647 18.9513742 111.545416 24.566702 111.545416 24.566702 86.9769685"></polygon>
                <g id="Group-34" transform="translate(26.973883, 0.967093)">
                    <path d="M10.5406001,106.365478 C11.9797361,106.365478 13.2078412,105.803787 13.9091621,105.032651 L18.1202613,107.453954 C16.4018663,109.840349 13.80444,111.068454 10.4707854,111.068454 C4.46988976,111.068454 0.749080599,107.031892 0.749080599,101.803719 C0.749080599,96.5739587 4.53970451,92.5389832 10.0836308,92.5389832 C15.2086686,92.5389832 18.9977058,96.504144 18.9977058,101.803719 C18.9977058,102.539947 18.9278911,103.242855 18.7882616,103.909268 L6.32950099,103.909268 C6.99591457,105.733972 8.61117415,106.365478 10.5406001,106.365478 L10.5406001,106.365478 Z M13.7695326,99.9790148 C13.2078412,97.94328 11.6290757,97.2054649 10.0487234,97.2054649 C8.04948271,97.2054649 6.71506885,98.1876316 6.22319216,99.9790148 L13.7695326,99.9790148 Z" id="Fill-2" fill="#36A9E0"></path>
                    <path d="M39.8082153,93.0297492 L39.8082153,110.577053 L34.543548,110.577053 L34.543548,108.926886 C33.3852577,110.2613 31.6668627,111.06893 29.3153748,111.06893 C24.717121,111.06893 20.9264971,107.032368 20.9264971,101.802608 C20.9264971,96.5744348 24.717121,92.5378725 29.3153748,92.5378725 C31.6668627,92.5378725 33.3852577,93.3455023 34.543548,94.6783294 L34.543548,93.0297492 L39.8082153,93.0297492 Z M34.543548,101.802608 C34.543548,99.171861 32.7886589,97.5216941 30.3673562,97.5216941 C27.9460535,97.5216941 26.1911644,99.171861 26.1911644,101.802608 C26.1911644,104.434942 27.9460535,106.085109 30.3673562,106.085109 C32.7886589,106.085109 34.543548,104.434942 34.543548,101.802608 L34.543548,101.802608 Z" id="Fill-4" fill="#36A9E0"></path>
                    <path d="M57.1081531,105.312703 C57.1081531,109.349266 53.5983749,111.067661 49.807751,111.067661 C46.2995595,111.067661 43.6323185,109.734834 42.2629973,106.891469 L46.8247569,104.295629 C47.2817262,105.628457 48.2638929,106.364685 49.807751,106.364685 C51.0723501,106.364685 51.7038563,105.979117 51.7038563,105.277796 C51.7038563,103.346783 43.0706271,104.365444 43.0706271,98.2931471 C43.0706271,94.4676158 46.2995595,92.5381898 49.9489672,92.5381898 C52.7907452,92.5381898 55.3183567,93.8012022 56.7924,96.2939064 L52.3004552,98.715209 C51.8085785,97.8028571 51.1072575,97.1713509 49.9489672,97.1713509 C49.0366153,97.1713509 48.4749239,97.5220114 48.4749239,98.1535176 C48.4749239,100.154345 57.1081531,98.8199312 57.1081531,105.312703" id="Fill-6" fill="#36A9E0"></path>
                    <path d="M76.338945,93.0297492 L76.338945,110.577053 L71.0742778,110.577053 L71.0742778,108.926886 C70.1270184,110.226393 68.3721294,111.06893 66.0555488,111.06893 C62.5108632,111.06893 59.4929617,108.541319 59.4929617,103.803435 L59.4929617,93.0297492 L64.757629,93.0297492 L64.757629,103.0323 C64.757629,105.207664 66.1269503,106.224738 67.8104379,106.224738 C69.7414506,106.224738 71.0742778,105.102942 71.0742778,102.610238 L71.0742778,93.0297492 L76.338945,93.0297492 Z" id="Fill-8" fill="#36A9E0"></path>
                    <path d="M90.7258622,92.6786127 L90.7258622,98.6446009 C88.5504979,98.2939405 85.4611949,99.171385 85.4611949,102.644669 L85.4611949,110.576577 L80.1981144,110.576577 L80.1981144,93.0292732 L85.4611949,93.0292732 L85.4611949,96.1534835 C86.1641026,93.8019956 88.5155905,92.6786127 90.7258622,92.6786127" id="Fill-10" fill="#36A9E0"></path>
                    <path d="M101.569046,106.365478 C103.008182,106.365478 104.236287,105.803787 104.937608,105.032651 L109.148707,107.453954 C107.430312,109.840349 104.832886,111.068454 101.499231,111.068454 C95.4983355,111.068454 91.7775263,107.031892 91.7775263,101.803719 C91.7775263,96.5739587 95.5681502,92.5389832 101.112077,92.5389832 C106.237114,92.5389832 110.026152,96.504144 110.026152,101.803719 C110.026152,102.539947 109.956337,103.242855 109.816707,103.909268 L97.3579467,103.909268 C98.0243603,105.733972 99.6380332,106.365478 101.569046,106.365478 L101.569046,106.365478 Z M104.797978,99.9790148 C104.236287,97.94328 102.657521,97.2054649 101.077169,97.2054649 C99.0779284,97.2054649 97.7435146,98.1876316 97.2516379,99.9790148 L104.797978,99.9790148 Z" id="Fill-12" fill="#36A9E0"></path>
                    <polygon id="Fill-14" fill="#1D70B7" points="136.346156 110.577053 134.486545 110.577053 134.486545 88.7488353 125.396346 103.838343 125.080593 103.838343 115.991981 88.7488353 115.991981 110.577053 114.130783 110.577053 114.130783 86.0101928 116.447364 86.0101928 125.221809 100.539596 133.994668 86.0101928 136.346156 86.0101928"></polygon>
                    <path d="M159.33076,93.0297492 L159.33076,110.577053 L157.540964,110.577053 L157.540964,106.611893 C156.06692,109.24264 153.364772,110.962621 149.994623,110.962621 C145.012389,110.962621 140.906012,106.99746 140.906012,101.802608 C140.906012,96.6093421 145.012389,92.6441813 149.994623,92.6441813 C153.364772,92.6441813 156.06692,94.3625763 157.540964,96.99491 L157.540964,93.0297492 L159.33076,93.0297492 Z M157.540964,101.802608 C157.540964,97.6264162 154.312031,94.327669 150.13584,94.327669 C145.959648,94.327669 142.695808,97.6264162 142.695808,101.802608 C142.695808,105.9788 145.959648,109.279134 150.13584,109.279134 C154.312031,109.279134 157.540964,105.9788 157.540964,101.802608 L157.540964,101.802608 Z" id="Fill-16" fill="#1D70B7"></path>
                    <path d="M168.488552,94.7492549 L168.488552,106.154447 C168.488552,109.24375 170.138719,109.313565 173.718312,108.997812 L173.718312,110.576577 C169.120058,111.279485 166.698756,110.156102 166.698756,106.154447 L166.698756,94.7492549 L162.838317,94.7492549 L162.838317,93.0292732 L166.698756,93.0292732 L166.698756,88.6420504 L168.488552,88.1168531 L168.488552,93.0292732 L173.718312,93.0292732 L173.718312,94.7492549 L168.488552,94.7492549 Z" id="Fill-18" fill="#1D70B7"></path>
                    <path d="M175.681852,101.803243 C175.681852,96.6099768 179.612106,92.6432293 184.91168,92.6432293 C188.351644,92.6432293 191.29973,94.3981184 192.562743,97.1351742 L191.123607,97.9777114 C190.104946,95.7674396 187.718551,94.3283036 184.91168,94.3283036 C180.665674,94.3283036 177.471649,97.6270509 177.471649,101.803243 C177.471649,105.979434 180.665674,109.278182 184.91168,109.278182 C187.755045,109.278182 190.070039,107.804138 191.228329,105.628774 L192.702372,106.506218 C191.29973,109.208367 188.351644,110.963256 184.91168,110.963256 C179.612106,110.963256 175.681852,106.996508 175.681852,101.803243" id="Fill-20" fill="#1D70B7"></path>
                    <path d="M211.40638,99.6623097 L211.40638,110.577212 L209.616584,110.577212 L209.616584,99.6623097 C209.616584,96.4333772 207.756973,94.3278276 204.458225,94.3278276 C201.018262,94.3278276 198.316113,96.5745934 198.316113,101.312477 L198.316113,110.577212 L196.561224,110.577212 L196.561224,86.0103515 L198.316113,86.0103515 L198.316113,96.3635625 C199.650527,93.7661362 201.895706,92.6427533 204.597855,92.6427533 C208.774047,92.6427533 211.40638,95.4163032 211.40638,99.6623097" id="Fill-22" fill="#1D70B7"></path>
                    <path d="M146.644308,42.2723588 L124.086209,19.7142591 L105.68526,1.31331076 C104.760215,0.388265246 103.246504,0.388265246 102.319872,1.31331076 L92.6695685,10.9652008 L101.420214,19.7142591 L123.978313,42.2723588 C124.903359,43.1974043 124.903359,44.7127019 123.978313,45.6377474 L115.227668,54.3883924 L124.877972,64.0386957 C125.803017,64.9637412 127.318315,64.9637412 128.24336,64.0386957 L146.644308,45.6377474 C147.569354,44.7127019 147.569354,43.1974043 146.644308,42.2723588" id="Fill-24" fill="#36A9E0"></path>
                    <path d="M70.1122621,54.3877577 L79.7625655,64.038061 C80.687611,64.9631065 82.2029085,64.9631065 83.1279541,64.038061 L92.6703619,54.4972399 L81.3365709,43.163449 L70.1122621,54.3877577 Z" id="Fill-26" fill="#36A9E0"></path>
                    <path d="M61.3622518,42.2723588 L83.9203515,19.7142591 L92.6694098,10.9652008 L83.0191065,1.31331076 C82.094061,0.388265246 80.5787634,0.388265246 79.6537179,1.31331076 L61.2527696,19.7142591 L38.6962566,42.2723588 C37.7696244,43.1974043 37.7696244,44.7127019 38.6962566,45.6377474 L57.0956182,64.0386957 C58.0222504,64.9637412 59.5359613,64.9637412 60.4610068,64.0386957 L70.1128968,54.3883924 L61.3622518,45.6377474 C60.4372063,44.7127019 60.4372063,43.1974043 61.3622518,42.2723588" id="Fill-28" fill="#1D70B7"></path>
                    <path d="M92.6698859,54.4969226 L102.210707,64.0377437 C103.137339,64.9643759 104.65105,64.9643759 105.576096,64.0377437 L115.227986,54.3874404 L104.003677,43.1631316 L92.6698859,54.4969226 Z" id="Fill-30" fill="#1D70B7"></path>
                    <path d="M123.97752,42.2723588 L101.41942,19.7142591 L92.6703619,10.9652008 L83.9197169,19.7142591 L61.3616172,42.2723588 C60.4365716,43.1974043 60.4365716,44.7127019 61.3616172,45.6377474 L70.1122621,54.3883924 L81.3365709,43.1640836 L92.6703619,54.4962879 L104.002566,43.1640836 L115.226875,54.3883924 L123.97752,45.6377474 C124.902565,44.7127019 124.902565,43.1974043 123.97752,42.2723588" id="Fill-32" fill="#29235C"></path>
                </g>
            </g>
        </g>
    </g>
</svg>