<?xml version="1.0" encoding="UTF-8"?>
<svg width="16px" height="14px" viewBox="0 0 16 14" version="1.1" xmlns="http://www.w3.org/2000/svg" xmlns:xlink="http://www.w3.org/1999/xlink">
    <!-- Generator: Sketch 47.1 (45422) - http://www.bohemiancoding.com/sketch -->
    <title>hide-package-small</title>
    <desc>Created with Sketch.</desc>
    <defs></defs>
    <g id="•-Service-Packages" stroke="none" stroke-width="1" fill="none" fill-rule="evenodd" stroke-linecap="round" stroke-linejoin="round">
        <g id="MM-Expert-Package-HideFromPlatform1" transform="translate(-307.000000, -233.000000)" stroke="#36A9E1">
            <g id="hide-package-small" transform="translate(307.750000, 234.000000)">
                <path d="M11.71056,3.77286 C13.17396,4.83126 14.09976,6.00006 14.09976,6.00006 C14.09976,6.00006 11.01096,9.90006 7.19976,9.90006 C6.57636,9.90006 5.97276,9.79626 5.39856,9.62166" id="Stroke-194"></path>
                <path d="M2.68068,8.22072 C1.22208,7.16412 0.29988,6.00012 0.29988,6.00012 C0.29988,6.00012 3.38928,2.10012 7.19988,2.10012 C7.71588,2.10012 8.21868,2.17152 8.70228,2.29512" id="Stroke-195"></path>
                <path d="M4.8,6 C4.8,4.674 5.8746,3.6 7.2,3.6" id="Stroke-196"></path>
                <path d="M9.6,6 C9.6,7.326 8.5254,8.4 7.2,8.4" id="Stroke-197"></path>
                <path d="M13.05,0.15 L1.35,11.85" id="Stroke-198"></path>
            </g>
        </g>
    </g>
</svg>