<?xml version="1.0" encoding="UTF-8"?>
<svg width="25px" height="20px" viewBox="0 0 25 20" version="1.1" xmlns="http://www.w3.org/2000/svg" xmlns:xlink="http://www.w3.org/1999/xlink">
    <!-- Generator: Sketch 52.5 (67469) - http://www.bohemiancoding.com/sketch -->
    <title>hide-eye</title>
    <desc>Created with Sketch.</desc>
    <g id="•-Onboarding" stroke="none" stroke-width="1" fill="none" fill-rule="evenodd" stroke-linecap="round" stroke-linejoin="round">
        <g id="Buyer-Onboarding-•-3-(Filled)-PW-reveal" transform="translate(-613.000000, -442.000000)" stroke="#1D71B8">
            <g id="hide-eye" transform="translate(614.000000, 442.000000)">
                <path d="M19.5176,6.2881 C21.9566,8.0521 23.4996,10.0001 23.4996,10.0001 C23.4996,10.0001 18.3516,16.5001 11.9996,16.5001 C10.9606,16.5001 9.9546,16.3271 8.9976,16.0361" id="Stroke-194"/>
                <path d="M4.4678,13.7012 C2.0368,11.9402 0.4998,10.0002 0.4998,10.0002 C0.4998,10.0002 5.6488,3.5002 11.9998,3.5002 C12.8598,3.5002 13.6978,3.6192 14.5038,3.8252" id="Stroke-195"/>
                <path d="M8,10 C8,7.79 9.791,6 12,6" id="Stroke-196"/>
                <path d="M16,10 C16,12.21 14.209,14 12,14" id="Stroke-197"/>
                <path d="M21.75,0.25 L2.25,19.75" id="Stroke-198"/>
            </g>
        </g>
    </g>
</svg>