<?xml version="1.0" encoding="UTF-8"?>
<svg width="22px" height="22px" viewBox="0 0 22 22" version="1.1" xmlns="http://www.w3.org/2000/svg" xmlns:xlink="http://www.w3.org/1999/xlink">
    <!-- Generator: Sketch 49.1 (51147) - http://www.bohemiancoding.com/sketch -->
    <title>hover-help</title>
    <desc>Created with Sketch.</desc>
    <defs></defs>
    <g id="Symbols" stroke="none" stroke-width="1" fill="none" fill-rule="evenodd">
        <g id="project-title" transform="translate(-267.000000, -1.000000)">
            <g id="hover-help">
                <g transform="translate(268.000000, 2.000000)">
                    <path d="M19.5652174,10 C19.5652174,15.2826087 15.2826087,19.5652174 10,19.5652174 C4.7173913,19.5652174 0.434782609,15.2826087 0.434782609,10 C0.434782609,4.7173913 4.7173913,0.434782609 10,0.434782609 C15.2826087,0.434782609 19.5652174,4.7173913 19.5652174,10 L19.5652174,10 Z" id="Stroke-3215" stroke="#C7C7C7" stroke-width="1.5" stroke-linecap="round" stroke-linejoin="round"></path>
                    <path d="M7.39130435,7.82608696 C7.39130435,6.38608696 8.55913043,5.2173913 10,5.2173913 C11.44,5.2173913 12.6086957,6.38608696 12.6086957,7.82608696 C12.6086957,9.26782609 11.44,10.4347826 10,10.4347826 L10,13.0434783" id="Stroke-3216" stroke="#C7C7C7" stroke-width="1.5" stroke-linecap="round" stroke-linejoin="round"></path>
                    <path d="M10.75,15.25 C10.75,15.664 10.414,16 10,16 C9.586,16 9.25,15.664 9.25,15.25 C9.25,14.836 9.586,14.5 10,14.5 C10.414,14.5 10.75,14.836 10.75,15.25 L10.75,15.25 Z" id="Stroke-3217" fill="#C7C7C7"></path>
                </g>
            </g>
        </g>
    </g>
</svg>