<?xml version="1.0" encoding="UTF-8"?>
<svg width="22px" height="21px" viewBox="0 0 22 21" version="1.1" xmlns="http://www.w3.org/2000/svg" xmlns:xlink="http://www.w3.org/1999/xlink">
    <!-- Generator: Sketch 49.1 (51147) - http://www.bohemiancoding.com/sketch -->
    <title>hover-help-green</title>
    <desc>Created with Sketch.</desc>
    <defs></defs>
    <g id="•-Post-a-Project" stroke="none" stroke-width="1" fill="none" fill-rule="evenodd">
        <g id="PostAProject-HoverHelp" transform="translate(-630.000000, -300.000000)">
            <g id="section-1" transform="translate(363.000000, 242.000000)">
                <g id="project-title" transform="translate(0.000000, 56.473573)">
                    <g id="hover-help-green" transform="translate(268.000000, 2.016913)">
                        <path d="M19.5652174,10.0845666 C19.5652174,15.4118485 15.2826087,19.7306738 10,19.7306738 C4.7173913,19.7306738 0.434782609,15.4118485 0.434782609,10.0845666 C0.434782609,4.75728468 4.7173913,0.438459417 10,0.438459417 C15.2826087,0.438459417 19.5652174,4.75728468 19.5652174,10.0845666 L19.5652174,10.0845666 Z" id="Stroke-3215" stroke="#12BF79" stroke-width="1.5" stroke-linecap="round" stroke-linejoin="round"></path>
                        <path d="M7.39130435,7.89226951 C7.39130435,6.44009192 8.55913043,5.26151301 10,5.26151301 C11.44,5.26151301 12.6086957,6.44009192 12.6086957,7.89226951 C12.6086957,9.34620094 11.44,10.523026 10,10.523026 L10,13.1537825" id="Stroke-3216" stroke="#12BF79" stroke-width="1.5" stroke-linecap="round" stroke-linejoin="round"></path>
                        <path d="M10.75,15.3789641 C10.75,15.7964651 10.414,16.1353066 10,16.1353066 C9.586,16.1353066 9.25,15.7964651 9.25,15.3789641 C9.25,14.961463 9.586,14.6226216 10,14.6226216 C10.414,14.6226216 10.75,14.961463 10.75,15.3789641 L10.75,15.3789641 Z" id="Stroke-3217" fill="#12BF79"></path>
                    </g>
                </g>
            </g>
        </g>
    </g>
</svg>