<?xml version="1.0" encoding="UTF-8"?>
<svg width="14px" height="10px" viewBox="0 0 14 10" version="1.1" xmlns="http://www.w3.org/2000/svg" xmlns:xlink="http://www.w3.org/1999/xlink">
    <!-- Generator: Sketch 42 (36781) - http://www.bohemiancoding.com/sketch -->
    <title>ic_account_child copy</title>
    <desc>Created with Sketch.</desc>
    <defs></defs>
    <g id="•-Find-a-match" stroke="none" stroke-width="1" fill="none" fill-rule="evenodd">
        <g id="MMExpert_FindAProject_4" transform="translate(-519.000000, -231.000000)" fill="#BDBDBD">
            <g id="ic_account_child-copy" transform="translate(518.000000, 228.000000)">
                <path d="M11,8 C11.92,8 12.66,7.25333333 12.66,6.33333333 C12.66,5.41333333 11.92,4.66666667 11,4.66666667 C10.08,4.66666667 9.33333333,5.41333333 9.33333333,6.33333333 C9.33333333,7.25333333 10.08,8 11,8 L11,8 Z M6,7.33333333 C7.10666667,7.33333333 7.99333333,6.44 7.99333333,5.33333333 C7.99333333,4.22666667 7.10666667,3.33333333 6,3.33333333 C4.89333333,3.33333333 4,4.22666667 4,5.33333333 C4,6.44 4.89333333,7.33333333 6,7.33333333 L6,7.33333333 Z M11,9.33333333 C9.78,9.33333333 7.33333333,9.94666667 7.33333333,11.1666667 L7.33333333,12.6666667 L14.6666667,12.6666667 L14.6666667,11.1666667 C14.6666667,9.94666667 12.22,9.33333333 11,9.33333333 L11,9.33333333 Z M6,8.66666667 C4.44666667,8.66666667 1.33333333,9.44666667 1.33333333,11 L1.33333333,12.6666667 L6,12.6666667 L6,11.1666667 C6,10.6 6.22,9.60666667 7.58,8.85333333 C7,8.73333333 6.44,8.66666667 6,8.66666667 L6,8.66666667 Z" id="Shape"></path>
            </g>
        </g>
    </g>
</svg>