<?xml version="1.0" encoding="utf-8"?>
<!-- Generator: Adobe Illustrator 19.0.0, SVG Export Plug-In . SVG Version: 6.00 Build 0)  -->
<svg version="1.1" id="Layer_1" xmlns="http://www.w3.org/2000/svg" xmlns:xlink="http://www.w3.org/1999/xlink" x="0px" y="0px"
	 width="17px" height="19px" viewBox="-297 387 17 19" style="enable-background:new -297 387 17 19;" xml:space="preserve">
<style type="text/css">
	.st0{fill:#29235C;}
</style>
<title>ic_attachment</title>
<desc>Created with Sketch.</desc>
<g id="Assets">
	<g id="Artboard" transform="translate(-2165.000000, -1288.000000)">
		
			<g id="ic_attachment" transform="translate(2174.000000, 1297.000000) rotate(-45.000000) translate(-2174.000000, -1297.000000) translate(2162.000000, 1285.000000)">
			<path id="Shape" class="st0" d="M-476.2,81.6c-3,0-5.5-2.5-5.5-5.5s2.5-5.5,5.5-5.5h10.5c2.2,0,4,1.8,4,4s-1.8,4-4,4h-8.5
				c-1.4,0-2.5-1.1-2.5-2.5s1.1-2.5,2.5-2.5h7.5v1.5h-7.5c-0.6,0-1,0.4-1,1c0,0.5,0.4,1,1,1h8.5c1.4,0,2.5-1.1,2.5-2.5
				s-1.1-2.5-2.5-2.5h-10.5c-2.2,0-4,1.8-4,4s1.8,4,4,4h9.5v1.5H-476.2L-476.2,81.6z"/>
		</g>
	</g>
</g>
</svg>
