<?xml version="1.0" encoding="UTF-8"?>
<svg width="16px" height="18px" viewBox="0 0 16 18" version="1.1" xmlns="http://www.w3.org/2000/svg" xmlns:xlink="http://www.w3.org/1999/xlink">
    <!-- Generator: Sketch 48.2 (47327) - http://www.bohemiancoding.com/sketch -->
    <title>ic_event_note</title>
    <desc>Created with Sketch.</desc>
    <defs/>
    <g id="•-Projects" stroke="none" stroke-width="1" fill="none" fill-rule="evenodd">
        <g id="ic_event_note" transform="translate(-2.000000, 0.000000)" fill="#424242">
            <path d="M14.1666667,8.33333333 L5.83333333,8.33333333 L5.83333333,10 L14.1666667,10 L14.1666667,8.33333333 L14.1666667,8.33333333 Z M15.8333333,2.5 L15,2.5 L15,0.833333333 L13.3333333,0.833333333 L13.3333333,2.5 L6.66666667,2.5 L6.66666667,0.833333333 L5,0.833333333 L5,2.5 L4.16666667,2.5 C3.24166667,2.5 2.50833333,3.25 2.50833333,4.16666667 L2.5,15.8333333 C2.5,16.75 3.24166667,17.5 4.16666667,17.5 L15.8333333,17.5 C16.75,17.5 17.5,16.75 17.5,15.8333333 L17.5,4.16666667 C17.5,3.25 16.75,2.5 15.8333333,2.5 L15.8333333,2.5 Z M15.8333333,15.8333333 L4.16666667,15.8333333 L4.16666667,6.66666667 L15.8333333,6.66666667 L15.8333333,15.8333333 L15.8333333,15.8333333 Z M11.6666667,11.6666667 L5.83333333,11.6666667 L5.83333333,13.3333333 L11.6666667,13.3333333 L11.6666667,11.6666667 L11.6666667,11.6666667 Z" id="Shape"/>
        </g>
    </g>
</svg>