<?xml version="1.0" encoding="UTF-8"?>
<svg width="68px" height="68px" viewBox="0 0 68 68" version="1.1" xmlns="http://www.w3.org/2000/svg" xmlns:xlink="http://www.w3.org/1999/xlink">
    <!-- Generator: Sketch 41.2 (35397) - http://www.bohemiancoding.com/sketch -->
    <title>ic_forum</title>
    <desc>Created with Sketch.</desc>
    <defs></defs>
    <g id="•-Landing-Page" stroke="none" stroke-width="1" fill="none" fill-rule="evenodd">
        <g id="MM_Landing_ContactUs" transform="translate(-942.000000, -570.000000)" fill="#1D71B8">
            <g id="ic_forum" transform="translate(936.000000, 564.000000)">
                <path d="M70,20 L63.3333333,20 L63.3333333,50 L20,50 L20,56.6666667 C20,58.5 21.5,60 23.3333333,60 L60,60 L73.3333333,73.3333333 L73.3333333,23.3333333 C73.3333333,21.5 71.8333333,20 70,20 L70,20 Z M56.6666667,40 L56.6666667,10 C56.6666667,8.16666667 55.1666667,6.66666667 53.3333333,6.66666667 L10,6.66666667 C8.16666667,6.66666667 6.66666667,8.16666667 6.66666667,10 L6.66666667,56.6666667 L20,43.3333333 L53.3333333,43.3333333 C55.1666667,43.3333333 56.6666667,41.8333333 56.6666667,40 L56.6666667,40 Z" id="Shape"></path>
            </g>
        </g>
    </g>
</svg>