<?xml version="1.0" encoding="UTF-8"?>
<svg width="24px" height="24px" viewBox="0 0 24 24" version="1.1" xmlns="http://www.w3.org/2000/svg" xmlns:xlink="http://www.w3.org/1999/xlink">
    <!-- Generator: Sketch 44.1 (41455) - http://www.bohemiancoding.com/sketch -->
    <title>ic_goodcheck</title>
    <desc>Created with Sketch.</desc>
    <defs></defs>
    <g id="•-Buyer-Sign-Up" stroke="none" stroke-width="1" fill="none" fill-rule="evenodd">
        <g id="Artboard" transform="translate(-50.000000, -21.000000)" fill="#1E70B7">
            <path d="M66.5693333,30.7073333 L60.8053333,36.4713333 C60.6746667,36.602 60.504,36.6666667 60.3333333,36.6666667 C60.1633333,36.6666667 59.9926667,36.602 59.862,36.4713333 L56.7646667,33.374 C56.6346667,33.244 56.6346667,33.0326667 56.7646667,32.9026667 L57.236,32.4313333 C57.366,32.3013333 57.5773333,32.3013333 57.7073333,32.4313333 L60.3333333,35.0573333 L65.6266667,29.7646667 C65.7566667,29.6346667 65.968,29.6346667 66.098,29.7646667 L66.5693333,30.236 C66.6993333,30.366 66.6993333,30.5773333 66.5693333,30.7073333 M62,25 C57.5893333,25 54,28.5893333 54,33 C54,37.4113333 57.5893333,41 62,41 C66.4113333,41 70,37.4113333 70,33 C70,28.5893333 66.4113333,25 62,25" id="ic_goodcheck"></path>
        </g>
    </g>
</svg>