<?xml version="1.0" encoding="UTF-8" standalone="no"?>
<svg width="13px" height="16px" viewBox="0 0 13 16" version="1.1" xmlns="http://www.w3.org/2000/svg" xmlns:xlink="http://www.w3.org/1999/xlink">
    <!-- Generator: Sketch 39.1 (31720) - http://www.bohemiancoding.com/sketch -->
    <title>ic_parent_company</title>
    <desc>Created with Sketch.</desc>
    <defs>
        <path d="M7,0.0224215077 C7.16468102,0.00758130641 7.33145515,0 7.5,0 C10.5375661,0 13,2.46243388 13,5.5 C13,8.53756612 10.5375661,11 7.5,11 C4.46243388,11 2,8.53756612 2,5.5 C2,5.33145515 2.00758131,5.16468102 2.02242151,5 L7,5 L7,0.0224215077 Z" id="path-1"></path>
        <mask id="mask-2" maskContentUnits="userSpaceOnUse" maskUnits="objectBoundingBox" x="0" y="0" width="11" height="11" fill="white">
            <use xlink:href="#path-1"></use>
        </mask>
        <path d="M2.50302352,5.56799271 C2.50302352,5.56799271 2.70495035,3.33514712 0.301831977,3.33514712" id="path-3"></path>
    </defs>
    <g id="Profile" stroke="none" stroke-width="1" fill="none" fill-rule="evenodd">
        <g id="Buyer_Profile_EditMode_Summary_Data" transform="translate(-220.000000, -478.000000)" stroke="#444444">
            <g id="ic_parent_company" transform="translate(220.000000, 478.000000)">
                <ellipse id="Oval-5" cx="10.5" cy="13.5" rx="1.5" ry="1.5"></ellipse>
                <ellipse id="Oval-5-Copy" cx="4.5" cy="13.5" rx="1.5" ry="1.5"></ellipse>
                <use id="Combined-Shape" mask="url(#mask-2)" stroke-width="2" stroke-linejoin="round" xlink:href="#path-1"></use>
                <g id="Path-5" stroke-linecap="round">
                    <use xlink:href="#path-3"></use>
                    <use xlink:href="#path-3"></use>
                </g>
            </g>
        </g>
    </g>
</svg>