<?xml version="1.0" encoding="UTF-8"?>
<svg width="48px" height="68px" viewBox="0 0 48 68" version="1.1" xmlns="http://www.w3.org/2000/svg" xmlns:xlink="http://www.w3.org/1999/xlink">
    <!-- Generator: Sketch 41.2 (35397) - http://www.bohemiancoding.com/sketch -->
    <title>ic_place copy</title>
    <desc>Created with Sketch.</desc>
    <defs></defs>
    <g id="•-Landing-Page" stroke="none" stroke-width="1" fill="none" fill-rule="evenodd">
        <g id="MM_Landing_ContactUs" transform="translate(-616.000000, -570.000000)" fill="#1D71B8">
            <g id="ic_place-copy" transform="translate(600.000000, 564.000000)">
                <path d="M40,6.66666667 C27.1,6.66666667 16.6666667,17.1 16.6666667,30 C16.6666667,47.5 40,73.3333333 40,73.3333333 C40,73.3333333 63.3333333,47.5 63.3333333,30 C63.3333333,17.1 52.9,6.66666667 40,6.66666667 L40,6.66666667 Z M40,38.3333333 C35.4,38.3333333 31.6666667,34.6 31.6666667,30 C31.6666667,25.4 35.4,21.6666667 40,21.6666667 C44.6,21.6666667 48.3333333,25.4 48.3333333,30 C48.3333333,34.6 44.6,38.3333333 40,38.3333333 L40,38.3333333 Z" id="Shape"></path>
            </g>
        </g>
    </g>
</svg>