<?xml version="1.0" encoding="UTF-8"?>
<svg width="23px" height="23px" viewBox="0 0 23 23" version="1.1" xmlns="http://www.w3.org/2000/svg" xmlns:xlink="http://www.w3.org/1999/xlink">
    <!-- Generator: Sketch 42 (36781) - http://www.bohemiancoding.com/sketch -->
    <title>ic_rotate_image</title>
    <desc>Created with Sketch.</desc>
    <defs></defs>
    <g id="Assets" stroke="none" stroke-width="1" fill="none" fill-rule="evenodd">
        <g id="Artboard" transform="translate(-307.000000, -3364.000000)" fill="#9E9E9E">
            <g id="ic_rotate_image" transform="translate(307.000000, 3363.000000)">
                <path d="M12.6275576,9.66316426 L12.6275576,1.02060183 L0.0876742063,1.02060183 L0.0876742063,17.0129552 L4.7190551,17.0129552 L4.7190551,9.66316426 L12.6275576,9.66316426 Z" id="Combined-Shape"></path>
                <rect id="Rectangle-21-Copy-4" x="6.67549669" y="11.3825503" width="15.8940397" height="12.6174497"></rect>
                <path d="M23.1089849,6.22190196 L22.1339463,6.22190196 C21.8030002,4.10235827 19.960242,2.47833627 17.7296394,2.47833627 C16.0093441,2.47833627 14.5191715,3.44452342 13.7742557,4.85755255 L14.4135394,5.11110011 C15.0538637,3.94819993 16.2988053,3.15899752 17.7296394,3.15899752 C19.5802568,3.15899752 21.1174049,4.47979516 21.4404919,6.22190196 L20.2689204,6.22190196 C20.1629653,6.32399759 20.0614421,6.38731326 20.213368,6.5642802 L21.4929401,7.85548542 C21.5989132,7.95756324 21.7707382,7.95756324 21.8767292,7.85548542 L23.1648962,6.5642802 C23.2705284,6.46218458 23.214958,6.3240154 23.1089849,6.22190196 Z" id="Path" transform="translate(18.497912, 5.205190) rotate(30.000000) translate(-18.497912, -5.205190) "></path>
            </g>
        </g>
    </g>
</svg>