<?xml version="1.0" encoding="UTF-8"?>
<svg width="20px" height="20px" viewBox="0 0 20 20" version="1.1" xmlns="http://www.w3.org/2000/svg" xmlns:xlink="http://www.w3.org/1999/xlink">
    <!-- Generator: Sketch 47.1 (45422) - http://www.bohemiancoding.com/sketch -->
    <title>icon-cancel</title>
    <desc>Created with Sketch.</desc>
    <defs></defs>
    <g id="•-Service-Packages" stroke="none" stroke-width="1" fill="none" fill-rule="evenodd">
        <g id="MM_Buyer_findAServicePackage_1.3" transform="translate(-854.000000, -166.000000)">
            <g id="Group-8" transform="translate(324.000000, 164.000000)">
                <g id="icon-cancel" transform="translate(528.000000, 0.000000)">
                    <rect id="Rectangle" fill="#FFFFFF" x="2" y="2" width="20" height="20" rx="10"></rect>
                    <g>
                        <polygon id="Bounds" points="0 0 24 0 24 24 0 24"></polygon>
                        <path d="M12,2 C6.47,2 2,6.47 2,12 C2,17.53 6.47,22 12,22 C17.53,22 22,17.53 22,12 C22,6.47 17.53,2 12,2 L12,2 Z M17,15.59 L15.59,17 L12,13.41 L8.41,17 L7,15.59 L10.59,12 L7,8.41 L8.41,7 L12,10.59 L15.59,7 L17,8.41 L13.41,12 L17,15.59 L17,15.59 Z" id="Shape" fill="#1D71B8"></path>
                    </g>
                </g>
            </g>
        </g>
    </g>
</svg>