<?xml version="1.0" encoding="UTF-8"?>
<svg width="104px" height="66px" viewBox="0 0 104 66" version="1.1" xmlns="http://www.w3.org/2000/svg" xmlns:xlink="http://www.w3.org/1999/xlink">
    <!-- Generator: Sketch 45.2 (43514) - http://www.bohemiancoding.com/sketch -->
    <title>icon/112px/inviteExperts</title>
    <desc>Created with Sketch.</desc>
    <defs></defs>
    <g id="•-Buyer-overview" stroke="none" stroke-width="1" fill="none" fill-rule="evenodd" opacity="0.4">
        <g id="MM_Buyer_myProjects_AllProjects_inviteExperts_AwaitingApproval" transform="translate(-562.000000, -295.000000)" fill="#424242">
            <g id="icon/112px/inviteExperts" transform="translate(558.000000, 272.000000)">
                <path d="M74.6666667,51.3333333 C82.4133333,51.3333333 88.62,45.08 88.62,37.3333333 C88.62,29.5866667 82.4133333,23.3333333 74.6666667,23.3333333 C66.92,23.3333333 60.6666667,29.5866667 60.6666667,37.3333333 C60.6666667,45.08 66.92,51.3333333 74.6666667,51.3333333 L74.6666667,51.3333333 Z M37.3333333,51.3333333 C45.08,51.3333333 51.2866667,45.08 51.2866667,37.3333333 C51.2866667,29.5866667 45.08,23.3333333 37.3333333,23.3333333 C29.5866667,23.3333333 23.3333333,29.5866667 23.3333333,37.3333333 C23.3333333,45.08 29.5866667,51.3333333 37.3333333,51.3333333 L37.3333333,51.3333333 Z M37.3333333,60.6666667 C26.46,60.6666667 4.66666667,66.1266667 4.66666667,77 L4.66666667,88.6666667 L70,88.6666667 L70,77 C70,66.1266667 48.2066667,60.6666667 37.3333333,60.6666667 L37.3333333,60.6666667 Z M74.6666667,60.6666667 C73.3133333,60.6666667 71.7733333,60.76 70.14,60.9 C75.5533333,64.82 79.3333333,70.0933333 79.3333333,77 L79.3333333,88.6666667 L107.333333,88.6666667 L107.333333,77 C107.333333,66.1266667 85.54,60.6666667 74.6666667,60.6666667 L74.6666667,60.6666667 Z" id="Shape"></path>
            </g>
        </g>
    </g>
</svg>