<?xml version="1.0" encoding="UTF-8" standalone="no"?>
<svg xmlns="http://www.w3.org/2000/svg" height="69px" width="56px" version="1.1" xmlns:xlink="http://www.w3.org/1999/xlink" viewBox="0 0 56 69"><!-- Generator: Sketch 41.2 (35397) - http://www.bohemiancoding.com/sketch -->
 <title>join icon</title>
 <desc>Created with Sketch.</desc>
 <g id="•-Landing-Page" fill-rule="evenodd" fill="none">
  <g id="MM_landing_updated" transform="translate(-100 -1396)">
   <g id="join-icon" transform="translate(100 1396)">
    <path id="Shape" fill="#1D71B8" d="m30.717 10.189c0-5.6296-4.507-10.189-10.072-10.189-5.564 0-10.072 4.5594-10.072 10.189 0 5.629 4.508 10.188 10.072 10.188 5.565 0 10.072-4.559 10.072-10.188zm-30.717 25.471v17.673h41.291v-17.673c0-6.775-13.922-10.189-20.646-10.189-6.723 0-20.645 3.414-20.645 10.189z"/>
    <g id="Page-1" transform="translate(29.846 41.7)">
     <path id="Fill-1" fill="#fff" d="m26.097 13.41c0 7.169-5.746 12.98-12.836 12.98-7.0902 0-12.837-5.811-12.837-12.98 0.00034-7.1693 5.7468-12.981 12.837-12.981 7.09-0.00031 12.836 5.8117 12.836 12.981"/>
     <path id="Stroke-3" stroke="#1D71B8" stroke-width="4" d="m23.547 12.12c0 6.458-5.175 11.692-11.561 11.692-6.3859 0-11.562-5.234-11.562-11.692 0.00034-6.4566 5.1761-11.691 11.562-11.691 6.386-0.00031 11.561 5.2344 11.561 11.691z"/>
    </g>
    <g id="Group-14" stroke="#1D71B8" stroke-width="4" transform="translate(34.024 46.432)">
     <path id="Stroke-5" d="m0 7.349h15.195"/>
     <path id="Stroke-7" d="m7.5975 0v15.366"/>
    </g>
   </g>
  </g>
 </g>
</svg>
