<?xml version="1.0" encoding="utf-8"?>
<!-- Generator: Adobe Illustrator 16.0.0, SVG Export Plug-In . SVG Version: 6.00 Build 0)  -->
<!DOCTYPE svg PUBLIC "-//W3C//DTD SVG 1.1//EN" "http://www.w3.org/Graphics/SVG/1.1/DTD/svg11.dtd">
<svg version="1.1" id="Layer_1" xmlns="http://www.w3.org/2000/svg" xmlns:xlink="http://www.w3.org/1999/xlink" x="0px" y="0px"
	 width="40px" height="81.875px" viewBox="0 0 40 81.875" enable-background="new 0 0 40 81.875" xml:space="preserve">
<filter  height="143.8%" width="143.8%" x="-21.9%" filterUnits="objectBoundingBox" id="filter-2" y="-15.6%">
	<feOffset  dx="0" dy="2" in="SourceAlpha" result="shadowOffsetOuter1"></feOffset>
	<feGaussianBlur  in="shadowOffsetOuter1" result="shadowBlurOuter1" stdDeviation="2"></feGaussianBlur>
	<feColorMatrix  type="matrix" in="shadowBlurOuter1" values="0 0 0 0 0   0 0 0 0 0   0 0 0 0 0  0 0 0 0.244508605 0">
		</feColorMatrix>
</filter>
<title>Oval 2@3x</title>
<desc>Created with Sketch.</desc>
<g>
	<g id="Symbols">
		<g id="Tile-_x28_FindAMatch_x29_" transform="translate(-161.000000, -14.000000)">
			<g id="Group">
				<g transform="translate(165.000000, 16.000000)">
					<g id="Oval-2">
						<g filter="url(#filter-2)">
							<circle id="path-1_3_" cx="16" cy="16" r="16"/>
						</g>
						<g>
							<circle id="path-1_1_" fill="#FFFFFF" cx="16" cy="15.5" r="16"/>
						</g>
					</g>
				</g>
			</g>
		</g>
	</g>
	<g id="Symbols_1_">
		<g id="Tile-_x28_FindAMatch_x29__1_" transform="translate(-171.000000, -22.000000)">
			<g id="Group_1_">
				<g transform="translate(165.000000, 16.000000)">
					
						<g id="icon_x2F_20px_x2F_stealthLine" transform="translate(16.000000, 16.000000) rotate(-180.000000) translate(-16.000000, -16.000000) translate(6.000000, 6.000000)">
						
							<g id="icons_x2F_20px_x2F_stealthLine" transform="translate(10.000000, 10.000000) rotate(-180.000000) translate(-10.000000, -10.000000) ">
							<rect id="Rectangle-7" x="10" y="7.5" fill="#FFFFFF" width="20" height="20"/>
							<path id="Fill-32" fill="none" stroke="#1D71B8" stroke-width="1.5" stroke-linejoin="round" d="M27.826,19.894l-5.639-5.517
								L20,12.237l-2.188,2.14l-5.639,5.517c-0.231,0.226-0.231,0.597,0,0.823l2.188,2.14l2.806-2.745L20,22.883l2.833-2.771
								l2.806,2.745l2.188-2.14C28.058,20.49,28.058,20.119,27.826,19.894"/>
						</g>
					</g>
				</g>
			</g>
		</g>
	</g>
</g>
<g>
	<g id="Symbols_3_">
		<g id="Tile-_x28_FindAMatch_x29__3_" transform="translate(-161.000000, -14.000000)">
			<g id="Group_3_">
				<g transform="translate(165.000000, 16.000000)">
					<g id="Oval-2_1_">
						<g filter="url(#filter-2)">
							<circle id="path-1_3_" cx="16" cy="57.625" r="16"/>
						</g>
						<g>
							<circle id="path-1_2_" fill="#FFFFFF" cx="16" cy="57.125" r="16"/>
						</g>
					</g>
				</g>
			</g>
		</g>
	</g>
	<g id="Symbols_2_">
		<g id="Tile-_x28_FindAMatch_x29__2_" transform="translate(-171.000000, -22.000000)">
			<g id="Group_2_">
				<g transform="translate(165.000000, 16.000000)">
					
						<g id="icon_x2F_20px_x2F_stealthLine_1_" transform="translate(16.000000, 16.000000) rotate(-180.000000) translate(-16.000000, -16.000000) translate(6.000000, 6.000000)">
						
							<g id="icons_x2F_20px_x2F_stealthLine_1_" transform="translate(10.000000, 10.000000) rotate(-180.000000) translate(-10.000000, -10.000000) ">
							<rect id="Rectangle-7_1_" x="10" y="49.125" fill="#FFFFFF" width="20" height="20"/>
							<path id="Fill-32_1_" fill="#1D71B8" stroke="#1D71B8" stroke-width="1.5" stroke-linejoin="round" d="M27.826,61.519
								l-5.639-5.517L20,53.862l-2.188,2.14l-5.639,5.517c-0.231,0.226-0.231,0.597,0,0.823l2.188,2.14l2.806-2.745L20,64.508
								l2.833-2.771l2.806,2.745l2.188-2.14C28.058,62.115,28.058,61.744,27.826,61.519"/>
						</g>
					</g>
				</g>
			</g>
		</g>
	</g>
</g>
</svg>
