<?xml version="1.0" encoding="UTF-8"?>
<svg width="16px" height="16px" viewBox="0 0 16 16" version="1.1" xmlns="http://www.w3.org/2000/svg" xmlns:xlink="http://www.w3.org/1999/xlink">
    <!-- Generator: Sketch 47.1 (45422) - http://www.bohemiancoding.com/sketch -->
    <title>live-on-measurematch</title>
    <desc>Created with Sketch.</desc>
    <defs></defs>
    <g id="•-Service-Packages" stroke="none" stroke-width="1" fill="none" fill-rule="evenodd" stroke-linejoin="round">
        <g id="MM-Expert-MyPackages_Awaiting_1.2" transform="translate(-453.000000, -362.000000)" stroke="#5DBAE7">
            <g id="live-on-measurematch" transform="translate(454.000000, 363.000000)">
                <polyline id="Stroke-2767" stroke-linecap="round" points="9.91666667 4.95833333 5.54166667 9.04166667 4.08333333 7.58333333"></polyline>
                <path d="M13.7083333,7 C13.7083333,6.42891667 13.2970833,5.95583333 12.7551667,5.8555 C13.2165833,5.5545 13.4149167,4.96066667 13.1979167,4.43333333 C12.9791667,3.90483333 12.418,3.62541667 11.8784167,3.73975 C12.1905,3.28533333 12.1461667,2.66058333 11.7425,2.25633333 C11.3388333,1.85325 10.7135,1.8095 10.2596667,2.12041667 C10.374,1.58141667 10.094,1.02141667 9.5655,0.802666667 C9.03816667,0.583916667 8.44433333,0.78225 8.14391667,1.24425 C8.043,0.702333333 7.57108333,0.291666667 7,0.291666667 C6.42775,0.291666667 5.95525,0.702333333 5.85375,1.24425 C5.55391667,0.78225 4.9595,0.583916667 4.43158333,0.802666667 C3.90366667,1.02083333 3.62425,1.58141667 3.738,2.12041667 C3.28416667,1.8095 2.65941667,1.85325 2.25516667,2.25691667 C1.8515,2.66058333 1.80775,3.28533333 2.11925,3.73975 C1.58025,3.62541667 1.02141667,3.90541667 0.802666667,4.43333333 C0.583916667,4.96066667 0.781083333,5.5545 1.2425,5.85491667 C0.700583333,5.95583333 0.291666667,6.42891667 0.291666667,7 C0.291666667,7.57108333 0.701166667,8.04416667 1.2425,8.14508333 C0.781083333,8.44608333 0.583916667,9.0405 0.802083333,9.56783333 C1.02083333,10.0951667 1.58025,10.3745833 2.11925,10.2608333 C1.80775,10.71525 1.85208333,11.34 2.25516667,11.7436667 C2.65941667,12.1473333 3.28358333,12.1916667 3.738,11.88075 C3.62425,12.4191667 3.90425,12.9791667 4.43216667,13.1979167 C4.9595,13.4166667 5.55391667,13.2183333 5.85375,12.7563333 C5.95525,13.29825 6.42891667,13.7083333 7,13.7083333 C7.57108333,13.7083333 8.043,13.29825 8.14391667,12.7563333 C8.44433333,13.2183333 9.03816667,13.4160833 9.56608333,13.1979167 C10.094,12.9791667 10.3734167,12.4191667 10.2596667,11.8795833 C10.7135,12.1916667 11.3388333,12.1473333 11.7425,11.7436667 C12.1461667,11.34 12.1905,10.71525 11.8784167,10.2608333 C12.4174167,10.3751667 12.9791667,10.0951667 13.1979167,9.56783333 C13.4166667,9.0405 13.2171667,8.44608333 12.7551667,8.14508333 C13.2965,8.04475 13.7083333,7.57108333 13.7083333,7 L13.7083333,7 Z" id="Stroke-2768"></path>
            </g>
        </g>
    </g>
</svg>