<?xml version="1.0" encoding="UTF-8"?>
<svg width="46px" height="48px" viewBox="0 0 46 48" version="1.1" xmlns="http://www.w3.org/2000/svg" xmlns:xlink="http://www.w3.org/1999/xlink">
    <!-- Generator: Sketch 47.1 (45422) - http://www.bohemiancoding.com/sketch -->
    <title>live-on-measurematch-step-3</title>
    <desc>Created with Sketch.</desc>
    <defs></defs>
    <g id="•-Service-Packages" stroke="none" stroke-width="1" fill="none" fill-rule="evenodd">
        <g id="MM-Expert-CreatePackage-1.1" transform="translate(-814.000000, -189.000000)">
            <g id="live-on-measurematch-step-3" transform="translate(815.000000, 190.000000)">
                <g id="Group-1153" stroke="#424242" stroke-width="2" stroke-linecap="round" stroke-linejoin="round">
                    <path d="M0,0 L0,46" id="Stroke-7266"></path>
                    <path d="M44,5.42436005 C27.332,13.9303601 23.292,-6.34963995 4,4.03836005 L4,34.0383601 C22.4,24.1303601 28.224,43.4383601 44,35.5083601 L44,5.42436005 L44,5.42436005 Z" id="Stroke-7267"></path>
                </g>
                <g id="Group-2" transform="translate(14.000000, 13.000000)">
                    <path d="M20.7698602,7.68327805 L16.5163187,3.52220488 L13.0466472,0.127960976 C12.8722211,-0.0426731707 12.5867967,-0.0426731707 12.4120715,0.127960976 L10.5924163,1.90835122 L12.2424325,3.52220488 L16.495974,7.68327805 C16.6704,7.8539122 16.6704,8.13342439 16.495974,8.30405854 L14.8459577,9.91820488 L16.665613,11.6983024 C16.840039,11.8689366 17.1257626,11.8689366 17.3001886,11.6983024 L20.7698602,8.30405854 C20.9442862,8.13342439 20.9442862,7.8539122 20.7698602,7.68327805" id="Fill-24" fill="#36A9E1"></path>
                    <path d="M6.33902439,9.9180878 L8.15867967,11.6981854 C8.33310569,11.8688195 8.61882927,11.8688195 8.79325528,11.6981854 L10.5925659,9.93828293 L8.45547317,7.84764878 L6.33902439,9.9180878 Z" id="Fill-26" fill="#36A9E1"></path>
                    <path d="M4.6891278,7.68327805 L8.94266927,3.52220488 L10.5923863,1.90835122 L8.77273106,0.127960976 C8.59830504,-0.0426731707 8.31258146,-0.0426731707 8.13815545,0.127960976 L4.6684839,3.52220488 L0.415241626,7.68327805 C0.240516423,7.8539122 0.240516423,8.13342439 0.415241626,8.30405854 L3.88461398,11.6983024 C4.05933919,11.8689366 4.34476358,11.8689366 4.51918959,11.6983024 L6.33914407,9.91820488 L4.6891278,8.30405854 C4.51470179,8.13342439 4.51470179,7.8539122 4.6891278,7.68327805" id="Fill-28" fill="#1D71B8"></path>
                    <path d="M10.5924761,9.93822439 L12.3914875,11.6981268 C12.5662127,11.8690537 12.8516371,11.8690537 13.0260631,11.6981268 L14.8460176,9.91802927 L12.7295688,7.84759024 L10.5924761,9.93822439 Z" id="Fill-30" fill="#1D71B8"></path>
                    <path d="M16.4958244,7.68327805 L12.2422829,3.52220488 L10.5925659,1.90835122 L8.94254959,3.52220488 L4.68900813,7.68327805 C4.51458211,7.8539122 4.51458211,8.13342439 4.68900813,8.30405854 L6.33902439,9.91820488 L8.45547317,7.84776585 L10.5925659,9.93810732 L12.7293593,7.84776585 L14.8458081,9.91820488 L16.4958244,8.30405854 C16.6702504,8.13342439 16.6702504,7.8539122 16.4958244,7.68327805" id="Fill-32" fill="#29235C"></path>
                </g>
            </g>
        </g>
    </g>
</svg>