<?xml version="1.0" encoding="UTF-8"?>
<svg width="667px" height="383px" viewBox="0 0 667 383" version="1.1" xmlns="http://www.w3.org/2000/svg" xmlns:xlink="http://www.w3.org/1999/xlink">
    <!-- Generator: Sketch 42 (36781) - http://www.bohemiancoding.com/sketch -->
    <title>logo_mm_large</title>
    <desc>Created with Sketch.</desc>
    <defs></defs>
    <g id="Assets" stroke="none" stroke-width="1" fill="none" fill-rule="evenodd">
        <g id="Artboard" transform="translate(-72.000000, -2317.000000)">
            <g id="logo_mm_large" transform="translate(72.000000, 2317.000000)">
                <path d="M662.475094,248.311314 L525.03362,113.832054 L412.920744,4.13549501 C407.284648,-1.37912894 398.061945,-1.37912894 392.416181,4.13549501 L333.619034,61.6748732 L386.934763,113.832054 L524.376237,248.311314 C530.012333,253.825938 530.012333,262.859328 524.376237,268.373952 L471.060507,320.540591 L529.857655,378.070511 C535.493751,383.585135 544.726121,383.585135 550.362217,378.070511 L662.475094,268.373952 C668.11119,262.859328 668.11119,253.825938 662.475094,248.311314" id="Fill-24" fill="#36A9E1"></path>
                <path d="M196.182394,320.536808 L254.979541,378.066727 C260.615638,383.581351 269.848008,383.581351 275.484104,378.066727 L333.623868,321.189482 L264.569606,253.623515 L196.182394,320.536808 Z" id="Fill-26" fill="#36A9E1"></path>
                <path d="M142.870532,248.311314 L280.312005,113.832054 L333.618067,61.6748732 L274.82092,4.13549501 C269.184824,-1.37912894 259.952454,-1.37912894 254.316358,4.13549501 L142.203481,113.832054 L4.77167483,248.311314 C-0.874088731,253.825938 -0.874088731,262.859328 4.77167483,268.373952 L116.874884,378.070511 C122.520648,383.585135 131.74335,383.585135 137.379447,378.070511 L196.186261,320.540591 L142.870532,268.373952 C137.234436,262.859328 137.234436,253.825938 142.870532,248.311314" id="Fill-28" fill="#1D71B8"></path>
                <path d="M333.620967,321.18759 L391.751064,378.064835 C397.396827,383.588918 406.61953,383.588918 412.255626,378.064835 L471.062441,320.534916 L402.67523,253.621623 L333.620967,321.18759 Z" id="Fill-30" fill="#1D71B8"></path>
                <path d="M524.371403,248.311314 L386.92993,113.832054 L333.623868,61.6748732 L280.308138,113.832054 L142.866665,248.311314 C137.230569,253.825938 137.230569,262.859328 142.866665,268.373952 L196.182394,320.540591 L264.569606,253.627298 L333.623868,321.183807 L402.668462,253.627298 L471.055674,320.540591 L524.371403,268.373952 C530.007499,262.859328 530.007499,253.825938 524.371403,248.311314" id="Fill-32" fill="#29235C"></path>
            </g>
        </g>
    </g>
</svg>