<?xml version="1.0" encoding="utf-8"?>
<!-- Generator: Adobe Illustrator 16.0.0, SVG Export Plug-In . SVG Version: 6.00 Build 0)  -->
<!DOCTYPE svg PUBLIC "-//W3C//DTD SVG 1.1//EN" "http://www.w3.org/Graphics/SVG/1.1/DTD/svg11.dtd">
<svg version="1.1" id="Layer_1" xmlns="http://www.w3.org/2000/svg" xmlns:xlink="http://www.w3.org/1999/xlink" x="0px" y="0px"
	 width="172px" height="27px" viewBox="0 0 172 27" enable-background="new 0 0 172 27" xml:space="preserve">
<g id="Assets">
	<g id="Artboard" transform="translate(-1692 -1444)">
		<g id="MM-Logo" transform="translate(1692 1444)">
			<g id="Group-2">
				<path id="Fill-24" fill="#36A9E1" d="M42.77,17.237l-8.853-8.851l-7.219-7.22c-0.344-0.344-0.946-0.344-1.29,0l-3.782,3.782
					l3.438,3.438l8.853,8.851c0.344,0.344,0.344,0.947,0,1.289l-3.438,3.438l3.782,3.783c0.344,0.344,0.945,0.344,1.29,0l7.22-7.221
					C43.113,18.185,43.113,17.581,42.77,17.237"/>
				<path id="Fill-26" fill="#36A9E1" d="M12.689,21.964l3.781,3.783c0.344,0.344,0.946,0.344,1.289,0l3.782-3.783l-4.469-4.468
					L12.689,21.964L12.689,21.964z"/>
				<path id="Fill-28" fill="#1D71B8" d="M9.251,17.237l8.852-8.851l3.438-3.438l-3.782-3.782c-0.343-0.344-0.945-0.344-1.289,0
					l-7.219,7.22l-8.938,8.851c-0.344,0.344-0.344,0.947,0,1.289l7.22,7.221c0.343,0.344,0.945,0.344,1.289,0l3.781-3.783
					l-3.438-3.438C8.907,18.185,8.907,17.581,9.251,17.237"/>
				<path id="Fill-30" fill="#1D71B8" d="M21.542,22.052l3.781,3.781c0.344,0.344,0.946,0.344,1.29,0l3.782-3.781l-4.383-4.385
					L21.542,22.052L21.542,22.052z"/>
				<path id="Fill-32" fill="#29235C" d="M33.917,17.237l-8.853-8.851l-3.438-3.438l-3.438,3.438l-8.852,8.851
					c-0.344,0.344-0.344,0.947,0,1.289l3.438,3.438l4.383-4.383l4.469,4.471l4.469-4.471l4.383,4.383l3.438-3.438
					C34.261,18.185,34.261,17.581,33.917,17.237"/>
			</g>
			<path id="Measure" fill="#36A9E1" d="M61.849,6.925h-2.921l-3.438,5.586l-3.438-5.586h-2.923V19.56h2.923v-7.392l3.265,5.413
				h0.344l3.266-5.413v7.392h2.921V6.925z M66.318,16.122h6.446c0.087-0.345,0.087-0.688,0.087-1.119
				c0-2.75-1.978-4.813-4.556-4.813c-2.837,0-4.813,2.063-4.813,4.813c0,2.752,1.891,4.813,4.984,4.813
				c1.719,0,3.095-0.602,3.955-1.891l-2.148-1.289c-0.344,0.431-1.033,0.688-1.719,0.688C67.521,17.41,66.662,17.067,66.318,16.122z
				 M66.318,14.144c0.258-0.944,0.947-1.46,1.978-1.46c0.774,0,1.633,0.345,1.89,1.46H66.318z M80.843,10.535v0.859
				c-0.601-0.688-1.46-1.118-2.664-1.118c-2.407,0-4.297,2.063-4.297,4.813c0,2.751,1.977,4.814,4.297,4.814
				c1.204,0,2.063-0.43,2.664-1.118v0.859h2.751v-9.11H80.843z M78.694,17.237c-1.289,0-2.148-0.858-2.148-2.234
				c0-1.374,0.945-2.234,2.148-2.234c1.29,0,2.148,0.86,2.148,2.234C80.843,16.379,79.898,17.237,78.694,17.237z M87.978,13.199
				c0-0.345,0.257-0.516,0.773-0.516c0.602,0,0.945,0.345,1.202,0.775l2.321-1.29c-0.774-1.289-2.063-1.978-3.523-1.978
				c-1.892,0-3.525,1.032-3.525,3.009c0,3.094,4.471,2.578,4.471,3.609c0,0.344-0.344,0.602-0.945,0.602
				c-0.773,0-1.289-0.343-1.548-1.031l-2.32,1.376c0.687,1.46,2.062,2.148,3.868,2.148c1.976,0,3.78-0.859,3.78-3.008
				C92.36,13.544,87.978,14.229,87.978,13.199L87.978,13.199z M99.494,10.535v4.899c0,1.289-0.688,1.891-1.719,1.891
				c-0.859,0-1.548-0.516-1.548-1.632v-5.158h-2.749v5.587c0,2.404,1.546,3.781,3.35,3.781c1.204,0,2.063-0.43,2.579-1.118v0.859
				h2.751v-9.11H99.494L99.494,10.535z M106.885,12.168v-1.633h-2.751v9.025h2.751v-4.126c0-1.805,1.634-2.234,2.75-2.063v-3.094
				C108.432,10.363,107.229,10.964,106.885,12.168z M113.246,16.122h6.445c0.085-0.345,0.085-0.688,0.085-1.119
				c0-2.75-1.977-4.813-4.556-4.813c-2.835,0-4.813,2.063-4.813,4.813c0,2.752,1.891,4.813,4.985,4.813
				c1.72,0,3.095-0.602,3.953-1.891l-2.147-1.289c-0.345,0.431-1.033,0.688-1.72,0.688C114.361,17.41,113.588,17.067,113.246,16.122
				z M113.158,14.144c0.259-0.944,0.946-1.46,1.978-1.46c0.773,0,1.633,0.345,1.89,1.46H113.158z"/>
			<path id="Match" fill="#1D71B8" d="M133.528,6.925h-1.203l-4.557,7.478l-4.555-7.478h-1.202V19.56h0.945V8.3l4.727,7.822h0.172
				l4.728-7.822V19.56h0.945V6.925L133.528,6.925z M144.357,10.535v2.063c-0.774-1.375-2.149-2.235-3.868-2.235
				c-2.578,0-4.727,2.062-4.727,4.726c0,2.666,2.148,4.728,4.727,4.728c1.719,0,3.094-0.859,3.868-2.235v2.063h0.944v-9.11H144.357z
				 M140.575,18.871c-2.149,0-3.867-1.719-3.867-3.868c0-2.148,1.718-3.867,3.867-3.867c2.148,0,3.782,1.719,3.782,3.867
				C144.357,17.152,142.724,18.871,140.575,18.871z M152.692,11.394v-0.859h-2.663V8.042L149.084,8.3v2.234h-1.978v0.859h1.978
				v5.843c0,2.063,1.289,2.666,3.608,2.322v-0.774c-1.804,0.172-2.663,0.086-2.663-1.461v-5.845h2.663V11.394z M158.366,19.73
				c1.806,0,3.265-0.945,4.039-2.32l-0.774-0.429c-0.601,1.115-1.804,1.89-3.265,1.89c-2.148,0-3.867-1.719-3.867-3.868
				c0-2.148,1.631-3.867,3.867-3.867c1.461,0,2.664,0.773,3.18,1.892l0.773-0.43c-0.688-1.375-2.147-2.321-3.953-2.321
				c-2.75,0-4.727,2.063-4.727,4.727C153.64,17.755,155.616,19.73,158.366,19.73z M168.422,10.363c-1.375,0-2.579,0.602-3.268,1.891
				V6.925h-0.944V19.56h0.944v-4.813c0-2.408,1.377-3.611,3.182-3.611c1.719,0,2.664,1.118,2.664,2.752v5.586h0.945v-5.586
				C171.945,11.738,170.655,10.363,168.422,10.363L168.422,10.363z"/>
		</g>
	</g>
</g>
</svg>
