<?xml version="1.0" encoding="UTF-8" standalone="no"?>
<!-- Generator: Adobe Illustrator 19.0.0, SVG Export Plug-In . SVG Version: 6.00 Build 0)  -->
<svg id="Layer_1" style="enable-background:new 145.7 17.5 200 29.3" xmlns="http://www.w3.org/2000/svg" xml:space="preserve" height="29.3px" viewBox="145.7 17.5 200 29.3" width="200px" version="1.1" y="0px" x="0px" xmlns:xlink="http://www.w3.org/1999/xlink">
<style type="text/css">
	.st0{fill:#36A9E1;}
	.st1{fill:#1D71B8;}
	.st2{fill:#29235C;}
</style>
<title>MM Logo</title>
<desc>Created with Sketch.</desc>
<g id="Assets">
	<g id="Artboard" transform="translate(-1692 -1444)">
		<g id="MM-Logo" transform="translate(1692 1444)">
			<g id="Group-2">
				<path id="Fill-24" d="m195.4 36.6l-10.3-10.3-8.4-8.4c-0.4-0.4-1.1-0.4-1.5 0l-4.4 4.4 4 4 10.3 10.3c0.4 0.4 0.4 1.1 0 1.5l-4 4 4.4 4.4c0.4 0.4 1.1 0.4 1.5 0l8.4-8.4c0.4-0.4 0.4-1.1 0-1.5" class="st0"/>
				<path id="Fill-26" d="m160.4 42.1l4.4 4.4c0.4 0.4 1.1 0.4 1.5 0l4.4-4.4-5.2-5.2-5.1 5.2z" class="st0"/>
				<path id="Fill-28" d="m156.4 36.6l10.3-10.3 4-4-4.4-4.4c-0.4-0.4-1.1-0.4-1.5 0l-8.4 8.4-10.4 10.3c-0.4 0.4-0.4 1.1 0 1.5l8.4 8.4c0.4 0.4 1.1 0.4 1.5 0l4.4-4.4-4-4c-0.3-0.4-0.3-1.1 0.1-1.5" class="st1"/>
				<path id="Fill-30" d="m170.7 42.2l4.4 4.4c0.4 0.4 1.1 0.4 1.5 0l4.4-4.4-5.1-5.1-5.2 5.1z" class="st1"/>
				<path id="Fill-32" d="m185.1 36.6l-10.3-10.3-4-4-4 4-10.3 10.3c-0.4 0.4-0.4 1.1 0 1.5l4 4 5.1-5.1 5.2 5.2 5.2-5.2 5.1 5.1 4-4c0.4-0.4 0.4-1.1 0-1.5" class="st2"/>
			</g>
			<path id="Measure" d="m217.6 24.6h-3.4l-4 6.5-4-6.5h-3.4v14.7h3.4v-8.6l3.8 6.3h0.4l3.8-6.3v8.6h3.4v-14.7zm5.2 10.7h7.5c0.1-0.4 0.1-0.8 0.1-1.3 0-3.2-2.3-5.6-5.3-5.6-3.3 0-5.6 2.4-5.6 5.6s2.2 5.6 5.8 5.6c2 0 3.6-0.7 4.6-2.2l-2.5-1.5c-0.4 0.5-1.2 0.8-2 0.8-1.2 0.1-2.2-0.3-2.6-1.4zm0-2.3c0.3-1.1 1.1-1.7 2.3-1.7 0.9 0 1.9 0.4 2.2 1.7h-4.5zm16.9-4.2v1c-0.7-0.8-1.7-1.3-3.1-1.3-2.8 0-5 2.4-5 5.6s2.3 5.6 5 5.6c1.4 0 2.4-0.5 3.1-1.3v1h3.2v-10.6h-3.2zm-2.5 7.8c-1.5 0-2.5-1-2.5-2.6s1.1-2.6 2.5-2.6c1.5 0 2.5 1 2.5 2.6s-1.1 2.6-2.5 2.6zm10.8-4.7c0-0.4 0.3-0.6 0.9-0.6 0.7 0 1.1 0.4 1.4 0.9l2.7-1.5c-0.9-1.5-2.4-2.3-4.1-2.3-2.2 0-4.1 1.2-4.1 3.5 0 3.6 5.2 3 5.2 4.2 0 0.4-0.4 0.7-1.1 0.7-0.9 0-1.5-0.4-1.8-1.2l-2.7 1.6c0.8 1.7 2.4 2.5 4.5 2.5 2.3 0 4.4-1 4.4-3.5-0.2-3.9-5.3-3.1-5.3-4.3zm13.4-3.1v5.7c0 1.5-0.8 2.2-2 2.2-1 0-1.8-0.6-1.8-1.9v-6h-3.2v6.5c0 2.8 1.8 4.4 3.9 4.4 1.4 0 2.4-0.5 3-1.3v1h3.2v-10.6h-3.1zm8.6 1.9v-1.9h-3.2v10.5h3.2v-4.8c0-2.1 1.9-2.6 3.2-2.4v-3.6c-1.4 0.1-2.8 0.8-3.2 2.2zm7.4 4.6h7.5c0.1-0.4 0.1-0.8 0.1-1.3 0-3.2-2.3-5.6-5.3-5.6-3.3 0-5.6 2.4-5.6 5.6s2.2 5.6 5.8 5.6c2 0 3.6-0.7 4.6-2.2l-2.5-1.5c-0.4 0.5-1.2 0.8-2 0.8-1.3 0.1-2.2-0.3-2.6-1.4zm-0.1-2.3c0.3-1.1 1.1-1.7 2.3-1.7 0.9 0 1.9 0.4 2.2 1.7h-4.5z" class="st0"/>
			<path id="Match" d="m301 24.6h-1.4l-5.3 8.7-5.3-8.7h-1.4v14.7h1.1v-13.1l5.5 9.1h0.2l5.5-9.1v13.1h1.1v-14.7zm12.6 4.2v2.4c-0.9-1.6-2.5-2.6-4.5-2.6-3 0-5.5 2.4-5.5 5.5s2.5 5.5 5.5 5.5c2 0 3.6-1 4.5-2.6v2.4h1.1v-10.6h-1.1zm-4.4 9.7c-2.5 0-4.5-2-4.5-4.5s2-4.5 4.5-4.5c2.5 0 4.4 2 4.4 4.5s-1.9 4.5-4.4 4.5zm14.1-8.7v-1h-3.1v-2.9l-1.1 0.3v2.6h-2.3v1h2.3v6.8c0 2.4 1.5 3.1 4.2 2.7v-0.9c-2.1 0.2-3.1 0.1-3.1-1.7v-6.8h3.1zm6.6 9.7c2.1 0 3.8-1.1 4.7-2.7l-0.9-0.5c-0.7 1.3-2.1 2.2-3.8 2.2-2.5 0-4.5-2-4.5-4.5s1.9-4.5 4.5-4.5c1.7 0 3.1 0.9 3.7 2.2l0.9-0.5c-0.8-1.6-2.5-2.7-4.6-2.7-3.2 0-5.5 2.4-5.5 5.5 0 3.2 2.3 5.5 5.5 5.5zm11.7-10.9c-1.6 0-3 0.7-3.8 2.2v-6.2h-1.1v14.7h1.1v-5.6c0-2.8 1.6-4.2 3.7-4.2 2 0 3.1 1.3 3.1 3.2v6.5h1.1v-6.5c0-2.5-1.5-4.1-4.1-4.1z" class="st1"/>
		</g>
	</g>
</g>
</svg>
