<?xml version="1.0" encoding="utf-8"?>
<!-- Generator: Adobe Illustrator 16.0.0, SVG Export Plug-In . SVG Version: 6.00 Build 0)  -->
<!DOCTYPE svg PUBLIC "-//W3C//DTD SVG 1.1//EN" "http://www.w3.org/Graphics/SVG/1.1/DTD/svg11.dtd">
<svg version="1.1" id="Layer_1" xmlns="http://www.w3.org/2000/svg" xmlns:xlink="http://www.w3.org/1999/xlink" x="0px" y="0px"
	 width="50px" height="29.3px" viewBox="0 0.001 50 29.3" enable-background="new 0 0.001 50 29.3" xml:space="preserve">
<title>MM Logo</title>
<desc>Created with Sketch.</desc>
<g id="Assets">
	<g id="Artboard" transform="translate(-1692 -1444)">
		<g id="MM-Logo" transform="translate(1692 1444)">
			<g id="Group-2">
				<path id="Fill-24" fill="#36A9E1" d="M49.7,19.001l-10.301-10.3L31,0.301c-0.4-0.4-1.101-0.4-1.5,0l-4.4,4.4l4,4l10.3,10.3
					c0.4,0.399,0.4,1.101,0,1.5l-4,4l4.4,4.399c0.4,0.4,1.1,0.4,1.5,0l8.4-8.399C50.1,20.102,50.1,19.401,49.7,19.001"/>
				<path id="Fill-26" fill="#36A9E1" d="M14.7,24.501l4.399,4.399c0.4,0.4,1.101,0.4,1.5,0l4.4-4.399l-5.2-5.2L14.7,24.501
					L14.7,24.501z"/>
				<path id="Fill-28" fill="#1D71B8" d="M10.7,19.001L21,8.702l4-4l-4.4-4.4c-0.399-0.4-1.1-0.4-1.5,0l-8.399,8.4l-10.4,10.3
					c-0.4,0.399-0.4,1.101,0,1.5l8.4,8.399c0.399,0.4,1.1,0.4,1.5,0l4.399-4.399l-4-4C10.3,20.102,10.3,19.401,10.7,19.001"/>
				<path id="Fill-30" fill="#1D71B8" d="M25,24.602l4.399,4.399c0.4,0.399,1.101,0.399,1.5,0l4.4-4.399l-5.1-5.101L25,24.602
					L25,24.602z"/>
				<path id="Fill-32" fill="#29235C" d="M39.399,19.001l-10.3-10.3l-4-4l-4,4l-10.3,10.3c-0.4,0.399-0.4,1.101,0,1.5l4,4l5.1-5.101
					l5.2,5.201l5.2-5.201l5.1,5.101l4-4C39.8,20.102,39.8,19.401,39.399,19.001"/>
			</g>
		</g>
	</g>
</g>
</svg>
