<?xml version="1.0" encoding="UTF-8" standalone="no"?>
<svg width="39px" height="26px" viewBox="0 0 39 26" version="1.1" xmlns="http://www.w3.org/2000/svg" xmlns:xlink="http://www.w3.org/1999/xlink">
    <!-- Generator: sketchtool 3.8.3 (29802) - http://www.bohemiancoding.com/sketch -->
    <title>118576D9-E33D-4C8D-8496-6113C0581C3F</title>
    <desc>Created with sketchtool.</desc>
    <defs></defs>
    <g id="Page-1" stroke="none" stroke-width="1" fill="none" fill-rule="evenodd">
        <g id="MM-HOME" transform="translate(-156.000000, -3841.000000)" fill="#3E3C37">
            <g id="mail" transform="translate(156.000000, 3841.000000)">
                <path d="M34.9375,0 L4.0625,0 C1.82325,0 0,1.82325 0,4.0625 L0,21.9375 C0,24.17675 1.82325,26 4.0625,26 L34.9375,26 C37.17675,26 39,24.17675 39,21.9375 L39,4.0625 C39,1.82325 37.17675,0 34.9375,0 L34.9375,0 Z M37.375,21.9375 C37.375,23.281375 36.281375,24.375 34.9375,24.375 L4.0625,24.375 C2.718625,24.375 1.625,23.281375 1.625,21.9375 L1.625,4.0625 C1.625,2.718625 2.718625,1.625 4.0625,1.625 L34.9375,1.625 C36.281375,1.625 37.375,2.718625 37.375,4.0625 L37.375,21.9375 L37.375,21.9375 Z" id="Shape"></path>
                <path d="M35.608625,3.60425 C35.35675,3.235375 34.851375,3.1395 34.47925,3.393 L21.152625,12.510875 C20.148375,13.196625 18.851625,13.196625 17.849,12.510875 L4.522375,3.393 C4.151875,3.137875 3.6465,3.23375 3.393,3.60425 C3.1395,3.97475 3.23375,4.480125 3.60425,4.733625 L16.930875,13.8515 C17.710875,14.386125 18.60625,14.652625 19.5,14.652625 C20.39375,14.652625 21.289125,14.386125 22.07075,13.8515 L35.397375,4.733625 C35.767875,4.480125 35.862125,3.97475 35.608625,3.60425 L35.608625,3.60425 Z" id="Shape"></path>
                <path d="M13.290875,13.186875 L3.540875,21.311875 C3.196375,21.5995 3.14925,22.113 3.436875,22.4575 C3.59775,22.650875 3.8285,22.75 4.0625,22.75 C4.246125,22.75 4.431375,22.68825 4.5825,22.5615 L14.3325,14.4365 C14.677,14.148875 14.724125,13.635375 14.4365,13.290875 C14.14725,12.948 13.635375,12.900875 13.290875,13.186875 L13.290875,13.186875 Z" id="Shape"></path>
                <path d="M25.709125,13.186875 C25.363,12.900875 24.85275,12.948 24.5635,13.290875 C24.275875,13.637 24.323,14.148875 24.6675,14.4365 L34.4175,22.5615 C34.57025,22.68825 34.753875,22.75 34.9375,22.75 C35.169875,22.75 35.400625,22.650875 35.563125,22.4575 C35.85075,22.111375 35.803625,21.5995 35.459125,21.311875 L25.709125,13.186875 L25.709125,13.186875 Z" id="Shape"></path>
            </g>
        </g>
    </g>
</svg>