<?xml version="1.0" encoding="UTF-8" standalone="no"?>
<svg xmlns="http://www.w3.org/2000/svg" height="69px" width="71px" version="1.1" xmlns:xlink="http://www.w3.org/1999/xlink" viewBox="0 0 71 69"><!-- Generator: Sketch 41.2 (35397) - http://www.bohemiancoding.com/sketch -->
 <title>measure icon</title>
 <desc>Created with Sketch.</desc>
 <defs>
  <polygon id="path-1" points="0.28518 19.2 20.065 19.2 20.065 0.27372 0.28518 0.27372"/>
  <polygon id="path-3" points="0.079647 19.2 19.859 19.2 19.859 0.27372 0.079647 0.27372"/>
  <polygon id="path-5" points="20.229 19.122 20.229 0.19644 0.44999 0.19644 0.44999 19.122"/>
 </defs>
 <g id="•-Landing-Page" fill-rule="evenodd" fill="none">
  <g id="MM_landing_updated" transform="translate(-1117 -1383)">
   <g id="measure-icon" transform="translate(1117 1383)">
    <g id="Group-3" transform="translate(10.204 49.289)">
     <mask id="mask-2" fill="white">
      <use xlink:href="#path-1"/>
     </mask>
     <path id="Fill-1" fill="#1D71B8" mask="url(#mask-2)" d="m16.745 17.742l-0.909-5.299 3.851-3.7525c0.341-0.3318 0.463-0.8274 0.317-1.2786-0.147-0.4518-0.538-0.7806-1.008-0.849l-5.322-0.7728-2.38-4.821c-0.211-0.42598-0.644-0.69538-1.119-0.69538s-0.9089 0.2694-1.119 0.6954l-2.3799 4.821-5.3234 0.7728c-0.47001 0.0684-0.85955 0.3972-1.0066 0.849-0.14646 0.4512-0.02402 0.9468 0.31571 1.2786l3.8511 3.7525-0.9094 5.299c-0.0798 0.468 0.1123 0.94 0.497 1.22 0.2173 0.158 0.4748 0.238 0.7329 0.238 0.1987 0 0.3979-0.047 0.5804-0.143l4.7612-2.502 4.76 2.502c0.421 0.221 0.929 0.184 1.314-0.095 0.384-0.28 0.577-0.752 0.496-1.22"/>
    </g>
    <g id="Group-6" transform="translate(40.215 49.289)">
     <mask id="mask-4" fill="white">
      <use xlink:href="#path-3"/>
     </mask>
     <path id="Fill-4" fill="#1D71B8" mask="url(#mask-4)" d="m16.54 17.742l-0.91-5.299 3.852-3.7525c0.34-0.3318 0.463-0.8274 0.316-1.2786-0.147-0.4518-0.537-0.7806-1.007-0.849l-5.323-0.7728-2.38-4.821c-0.21-0.42598-0.644-0.69538-1.1184-0.69538-0.4747 0-0.9087 0.2694-1.1194 0.6954l-2.3799 4.821-5.3228 0.7728c-0.46996 0.0684-0.86011 0.3972-1.0066 0.849-0.14702 0.4512-0.02458 0.9468 0.31515 1.2786l3.8516 3.7525-0.9092 5.299c-0.0799 0.468 0.1122 0.94 0.4964 1.22 0.2172 0.158 0.4747 0.238 0.7334 0.238 0.1981 0 0.3974-0.047 0.5804-0.143l4.7604-2.502 4.76 2.502c0.421 0.221 0.93 0.184 1.315-0.095 0.383-0.28 0.576-0.752 0.496-1.22"/>
    </g>
    <path id="Fill-7" fill="#1D71B8" d="m16.461 39.353l-0.91-5.299 3.852-3.753c0.34-0.331 0.463-0.826 0.316-1.278-0.147-0.451-0.538-0.781-1.008-0.849l-5.322-0.773-2.38-4.821c-0.211-0.425-0.644-0.695-1.1191-0.695-0.4747 0-0.9087 0.27-1.1188 0.695l-2.3799 4.821-5.3234 0.773c-0.46937 0.068-0.85952 0.398-1.0066 0.849-0.14643 0.452-0.023986 0.947 0.31574 1.278l3.8511 3.753-0.9093 5.299c-0.0799 0.468 0.1128 0.941 0.4969 1.22 0.2173 0.158 0.4748 0.238 0.7329 0.238 0.1987 0 0.398-0.047 0.5804-0.143l4.761-2.502 4.7601 2.502c0.421 0.221 0.93 0.184 1.314-0.095s0.577-0.752 0.497-1.22"/>
    <g id="Group-11" transform="translate(50.419 21.689)">
     <mask id="mask-6" fill="white">
      <use xlink:href="#path-5"/>
     </mask>
     <path id="Fill-9" fill="#1D71B8" mask="url(#mask-6)" d="m13.789 11.037c-0.293 0.287-0.427 0.699-0.358 1.104l0.593 3.455-3.104-1.631c-0.364-0.191-0.797-0.191-1.161 0l-3.1038 1.631 0.593-3.455c0.0696-0.405-0.0648-0.817-0.3589-1.104l-2.5108-2.4466 3.4699-0.504c0.4064-0.0594 0.7575-0.3144 0.9394-0.6828l1.5512-3.1428 1.553 3.1428c0.181 0.3684 0.533 0.6234 0.938 0.6828l3.471 0.504-2.512 2.4466zm3.121 6.627l-0.909-5.298 3.852-3.7534c0.34-0.3318 0.462-0.8268 0.316-1.2786-0.147-0.4512-0.538-0.7806-1.007-0.849l-5.323-0.7728-2.381-4.821c-0.209-0.42536-0.643-0.69476-1.118-0.69476-0.4748 0-0.9088 0.2694-1.1188 0.6948l-2.3805 4.821-5.3222 0.7728c-0.4706 0.0684-0.86077 0.3978-1.0072 0.849-0.14708 0.4518-0.02464 0.9468 0.31509 1.2786l3.8516 3.7534-0.9087 5.298c-0.0804 0.468 0.1116 0.941 0.4958 1.22 0.2173 0.158 0.4754 0.238 0.7335 0.238 0.1992 0 0.3979-0.047 0.5804-0.143l4.761-2.502 4.76 2.502c0.421 0.221 0.93 0.184 1.314-0.095s0.577-0.752 0.496-1.22z"/>
    </g>
    <path id="Fill-12" fill="#1D71B8" d="m41.852 17.469l-0.909-5.299 3.851-3.7534c0.34-0.3312 0.463-0.8268 0.316-1.2786-0.146-0.4512-0.537-0.7806-1.007-0.8484l-5.323-0.7734-2.38-4.821c-0.21-0.42598-0.643-0.69478-1.118-0.69478s-0.909 0.2688-1.12 0.6948l-2.379 4.821-5.323 0.7734c-0.47 0.0678-0.86 0.3972-1.007 0.8484-0.147 0.4518-0.025 0.9474 0.316 1.2786l3.851 3.7534-0.91 5.299c-0.079 0.467 0.113 0.94 0.497 1.219 0.217 0.158 0.475 0.239 0.733 0.239 0.199 0 0.398-0.048 0.581-0.144l4.761-2.502 4.76 2.502c0.42 0.221 0.929 0.184 1.314-0.095 0.384-0.279 0.576-0.752 0.496-1.219"/>
   </g>
  </g>
 </g>
</svg>
