<?xml version="1.0" encoding="UTF-8"?>
<svg width="42px" height="24px" viewBox="0 0 42 24" version="1.1" xmlns="http://www.w3.org/2000/svg" xmlns:xlink="http://www.w3.org/1999/xlink">
    <!-- Generator: Sketch 48.2 (47327) - http://www.bohemiancoding.com/sketch -->
    <title>mm-logo-stealth</title>
    <desc>Created with Sketch.</desc>
    <defs/>
    <g id="Expert-Nav" stroke="none" stroke-width="1" fill="none" fill-rule="evenodd" transform="translate(-20.000000, -16.000000)">
        <g id="Group-3">
            <g id="Group" transform="translate(20.000000, 16.000000)">
                <g id="mm-logo-stealth">
                    <path d="M41.5397203,15.3665561 L33.0326374,7.04440976 L26.0932943,0.255921951 C25.7444423,-0.0853463415 25.1735935,-0.0853463415 24.8241431,0.255921951 L21.1848325,3.81670244 L24.484865,7.04440976 L32.991948,15.3665561 C33.3408,15.7078244 33.3408,16.2668488 32.991948,16.6081171 L29.6919154,19.8364098 L33.331226,23.3966049 C33.680078,23.7378732 34.2515252,23.7378732 34.6003772,23.3966049 L41.5397203,16.6081171 C41.8885724,16.2668488 41.8885724,15.7078244 41.5397203,15.3665561" id="Fill-24" fill="#36A9E1"/>
                    <path d="M12.6780488,19.8361756 L16.3173593,23.3963707 C16.6662114,23.737639 17.2376585,23.737639 17.5865106,23.3963707 L21.1851317,19.8765659 L16.9109463,15.6952976 L12.6780488,19.8361756 Z" id="Fill-26" fill="#36A9E1"/>
                    <path d="M9.37825561,15.3665561 L17.8853385,7.04440976 L21.1847727,3.81670244 L17.5454621,0.255921951 C17.1966101,-0.0853463415 16.6251629,-0.0853463415 16.2763109,0.255921951 L9.3369678,7.04440976 L0.830483252,15.3665561 C0.481032846,15.7078244 0.481032846,16.2668488 0.830483252,16.6081171 L7.76922797,23.3966049 C8.11867837,23.7378732 8.68952715,23.7378732 9.03837919,23.3966049 L12.6782881,19.8364098 L9.37825561,16.6081171 C9.02940358,16.2668488 9.02940358,15.7078244 9.37825561,15.3665561" id="Fill-28" fill="#1D71B8"/>
                    <path d="M21.1849522,19.8764488 L24.782975,23.3962537 C25.1324254,23.7381073 25.7032741,23.7381073 26.0521262,23.3962537 L29.6920351,19.8360585 L25.4591376,15.6951805 L21.1849522,19.8764488 Z" id="Fill-30" fill="#1D71B8"/>
                    <path d="M32.9916488,15.3665561 L24.4845659,7.04440976 L21.1851317,3.81670244 L17.8850992,7.04440976 L9.37801626,15.3665561 C9.02916423,15.7078244 9.02916423,16.2668488 9.37801626,16.6081171 L12.6780488,19.8364098 L16.9109463,15.6955317 L21.1851317,19.8762146 L25.4587187,15.6955317 L29.6916163,19.8364098 L32.9916488,16.6081171 C33.3405008,16.2668488 33.3405008,15.7078244 32.9916488,15.3665561" id="Fill-32" fill="#29235C"/>
                </g>
            </g>
        </g>
    </g>
</svg>