<?xml version="1.0" encoding="UTF-8"?>
<svg width="221px" height="32px" viewBox="0 0 221 32" version="1.1" xmlns="http://www.w3.org/2000/svg" xmlns:xlink="http://www.w3.org/1999/xlink">
    <!-- Generator: sketchtool 52.1 (67048) - http://www.bohemiancoding.com/sketch -->
    <title>DE4826FE-D86B-41CF-AB75-0158CCD43FB5</title>
    <desc>Created with sketchtool.</desc>
    <g id="•-Create-Account-v2" stroke="none" stroke-width="1" fill="none" fill-rule="evenodd">
        <g id="Sign-up" transform="translate(-1085.000000, -56.000000)" fill="#FFFFFF">
            <g id="mm-logo-white" transform="translate(1085.000000, 56.000000)">
                <g id="Group-2">
                    <path d="M54.9845344,20.4887415 L43.6217042,9.39254634 L34.3528893,0.341229268 C33.886931,-0.113795122 33.1244536,-0.113795122 32.657696,0.341229268 L27.7967034,5.08893659 L32.2045256,9.39254634 L43.5673557,20.4887415 C44.0333141,20.9437659 44.0333141,21.6891317 43.5673557,22.1441561 L39.1595335,26.4485463 L44.0205262,31.1954732 C44.4864846,31.6504976 45.2497611,31.6504976 45.7157195,31.1954732 L54.9845344,22.1441561 C55.4504928,21.6891317 55.4504928,20.9437659 54.9845344,20.4887415" id="Fill-24" opacity="0.475656703"></path>
                    <path d="M16.4342728,26.4482341 L21.2952655,31.195161 C21.7612238,31.6501854 22.5245004,31.6501854 22.9904588,31.195161 L27.797103,26.5020878 L22.088114,20.9270634 L16.4342728,26.4482341 Z" id="Fill-26" opacity="0.475656703"></path>
                    <path d="M12.0267703,20.4887415 L23.3896005,9.39254634 L27.7966234,5.08893659 L22.9356307,0.341229268 C22.4696724,-0.113795122 21.7063958,-0.113795122 21.2404375,0.341229268 L11.9716226,9.39254634 L0.609591619,20.4887415 C0.142834018,20.9437659 0.142834018,21.6891317 0.609591619,22.1441561 L9.87760728,31.1954732 C10.3443649,31.6504976 11.1068422,31.6504976 11.5728006,31.1954732 L16.4345925,26.4485463 L12.0267703,22.1441561 C11.5608119,21.6891317 11.5608119,20.9437659 12.0267703,20.4887415" id="Fill-28" opacity="0.720000029"></path>
                    <path d="M27.7968632,26.5019317 L32.6027082,31.1950049 C33.0694658,31.6508098 33.8319431,31.6508098 34.2979014,31.1950049 L39.1596934,26.448078 L33.5058522,20.9269073 L27.7968632,26.5019317 Z" id="Fill-30" opacity="0.720000029"></path>
                    <path d="M43.5669561,20.4887415 L32.2041259,9.39254634 L27.797103,5.08893659 L23.3892808,9.39254634 L12.0264506,20.4887415 C11.5604922,20.9437659 11.5604922,21.6891317 12.0264506,22.1441561 L16.4342728,26.4485463 L22.088114,20.9273756 L27.797103,26.5016195 L33.5052927,20.9273756 L39.1591339,26.4485463 L43.5669561,22.1441561 C44.0329145,21.6891317 44.0329145,20.9437659 43.5669561,20.4887415" id="Fill-32"></path>
                </g>
                <path d="M79.4565395,7.57073171 L75.7480545,7.57073171 L71.3442285,14.6099512 L66.9404025,7.57073171 L63.2319174,7.57073171 L63.2319174,23.4146341 L66.9404025,23.4146341 L66.9404025,14.2025366 L71.1356262,20.924878 L71.5528308,20.924878 L75.7480545,14.2025366 L75.7480545,23.4146341 L79.4565395,23.4146341 L79.4565395,7.57073171 Z M85.1479452,19.1141463 L93.3761464,19.1141463 C93.4688585,18.6840976 93.5152146,18.2314146 93.5152146,17.7560976 C93.5152146,14.3383415 91.0119871,11.7806829 87.6279945,11.7806829 C83.9658655,11.7806829 81.4626381,14.3836098 81.4626381,17.7560976 C81.4626381,21.1285854 83.9195095,23.7315122 87.8829529,23.7315122 C90.0848659,23.7315122 91.8000402,22.9393171 92.9357638,21.4001951 L90.1544,19.838439 C89.6908393,20.3363902 88.8796082,20.6985366 87.9293089,20.6985366 C86.6545172,20.6985366 85.5883278,20.291122 85.1479452,19.1141463 L85.1479452,19.1141463 Z M85.0784111,16.579122 C85.4029035,15.4247805 86.2836687,14.7910244 87.6048165,14.7910244 C88.6478279,14.7910244 89.6908393,15.2663415 90.0616879,16.579122 L85.0784111,16.579122 Z M103.703158,12.097561 L103.703158,13.1613659 C102.938283,12.3012683 101.80256,11.7806829 100.249632,11.7806829 C97.2133095,11.7806829 94.710082,14.3836098 94.710082,17.7560976 C94.710082,21.1285854 97.2133095,23.7315122 100.249632,23.7315122 C101.80256,23.7315122 102.938283,23.2109268 103.703158,22.3508293 L103.703158,23.4146341 L107.179863,23.4146341 L107.179863,12.097561 L103.703158,12.097561 Z M100.944973,20.5174634 C99.3456884,20.5174634 98.1867868,19.4536585 98.1867868,17.7560976 C98.1867868,16.0585366 99.3456884,14.9947317 100.944973,14.9947317 C102.544257,14.9947317 103.703158,16.0585366 103.703158,17.7560976 C103.703158,19.4536585 102.544257,20.5174634 100.944973,20.5174634 L100.944973,20.5174634 Z M112.824913,15.4021463 C112.824913,14.9947317 113.195761,14.7683902 113.79839,14.7683902 C114.563265,14.7683902 115.026826,15.1758049 115.351318,15.7642927 L118.318106,14.2025366 C117.344629,12.5955122 115.67581,11.7806829 113.79839,11.7806829 C111.387875,11.7806829 109.255496,13.025561 109.255496,15.4926829 C109.255496,19.4083902 114.957292,18.752 114.957292,19.996878 C114.957292,20.449561 114.540087,20.6985366 113.705678,20.6985366 C112.685844,20.6985366 112.03686,20.2232195 111.735545,19.363122 L108.722401,21.0380488 C109.626344,22.8714146 111.387875,23.7315122 113.705678,23.7315122 C116.208905,23.7315122 118.526708,22.622439 118.526708,20.0195122 C118.526708,15.8321951 112.824913,16.6922927 112.824913,15.4021463 L112.824913,15.4021463 Z M127.671641,12.097561 L127.671641,18.2766829 C127.671641,19.8837073 126.790875,20.608 125.516084,20.608 C124.403538,20.608 123.499595,19.9516098 123.499595,18.5482927 L123.499595,12.097561 L120.02289,12.097561 L120.02289,19.0462439 C120.02289,22.1018537 122.016201,23.7315122 124.357182,23.7315122 C125.886932,23.7315122 127.045834,23.1882927 127.671641,22.3508293 L127.671641,23.4146341 L131.148345,23.4146341 L131.148345,12.097561 L127.671641,12.097561 Z M137.094709,14.112 L137.094709,12.097561 L133.618005,12.097561 L133.618005,23.4146341 L137.094709,23.4146341 L137.094709,18.2993171 C137.094709,16.0585366 139.134376,15.4926829 140.571414,15.7190244 L140.571414,11.8712195 C139.111198,11.8712195 137.55827,12.5955122 137.094709,14.112 L137.094709,14.112 Z M145.219808,19.1141463 L153.44801,19.1141463 C153.540722,18.6840976 153.587078,18.2314146 153.587078,17.7560976 C153.587078,14.3383415 151.08385,11.7806829 147.699858,11.7806829 C144.037729,11.7806829 141.534501,14.3836098 141.534501,17.7560976 C141.534501,21.1285854 143.991373,23.7315122 147.954816,23.7315122 C150.156729,23.7315122 151.871903,22.9393171 153.007627,21.4001951 L150.226263,19.838439 C149.762703,20.3363902 148.951471,20.6985366 148.001172,20.6985366 C146.72638,20.6985366 145.660191,20.291122 145.219808,19.1141463 L145.219808,19.1141463 Z M145.150274,16.579122 C145.474767,15.4247805 146.355532,14.7910244 147.67668,14.7910244 C148.719691,14.7910244 149.762703,15.2663415 150.133551,16.579122 L145.150274,16.579122 Z" id="Measure"></path>
                <path d="M171.241545,7.57073171 L169.688617,7.57073171 L163.894109,16.9412683 L158.099601,7.57073171 L156.569851,7.57073171 L156.569851,23.4146341 L157.798286,23.4146341 L157.798286,9.33619512 L163.801396,19.068878 L164.009999,19.068878 L170.013109,9.33619512 L170.013109,23.4146341 L171.241545,23.4146341 L171.241545,7.57073171 Z M185.161151,12.097561 L185.161151,14.6552195 C184.187674,12.9576585 182.402966,11.8485854 180.177875,11.8485854 C176.886594,11.8485854 174.174764,14.4062439 174.174764,17.7560976 C174.174764,21.1059512 176.886594,23.6636098 180.177875,23.6636098 C182.402966,23.6636098 184.187674,22.5545366 185.161151,20.8569756 L185.161151,23.4146341 L186.343231,23.4146341 L186.343231,12.097561 L185.161151,12.097561 Z M180.270587,22.5771707 C177.512401,22.5771707 175.356844,20.449561 175.356844,17.7560976 C175.356844,15.0626341 177.512401,12.9350244 180.270587,12.9350244 C183.028773,12.9350244 185.161151,15.0626341 185.161151,17.7560976 C185.161151,20.449561 183.028773,22.5771707 180.270587,22.5771707 L180.270587,22.5771707 Z M195.7663,13.2066341 L195.7663,12.097561 L192.312773,12.097561 L192.312773,8.92878049 L191.130693,9.26829268 L191.130693,12.097561 L188.58111,12.097561 L188.58111,13.2066341 L191.130693,13.2066341 L191.130693,20.5627317 C191.130693,23.1430244 192.729978,23.8673171 195.7663,23.4146341 L195.7663,22.3960976 C193.402141,22.5998049 192.312773,22.5545366 192.312773,20.5627317 L192.312773,13.2066341 L195.7663,13.2066341 Z M203.080168,23.6636098 C205.351615,23.6636098 207.298569,22.5319024 208.225691,20.7890732 L207.252213,20.2232195 C206.487338,21.6265366 204.957588,22.5771707 203.080168,22.5771707 C200.275626,22.5771707 198.166425,20.449561 198.166425,17.7560976 C198.166425,15.0626341 200.275626,12.9350244 203.080168,12.9350244 C204.93441,12.9350244 206.510516,13.8630244 207.182679,15.2889756 L208.132978,14.7457561 C207.298569,12.9802927 205.351615,11.8485854 203.080168,11.8485854 C199.580285,11.8485854 196.984345,14.4062439 196.984345,17.7560976 C196.984345,21.1059512 199.580285,23.6636098 203.080168,23.6636098 L203.080168,23.6636098 Z M216.003119,11.8485854 C214.218411,11.8485854 212.735017,12.572878 211.854251,14.2478049 L211.854251,7.57073171 L210.69535,7.57073171 L210.69535,23.4146341 L211.854251,23.4146341 L211.854251,17.4392195 C211.854251,14.3836098 213.63896,12.9350244 215.910407,12.9350244 C218.089142,12.9350244 219.317578,14.2930732 219.317578,16.3754146 L219.317578,23.4146341 L220.499657,23.4146341 L220.499657,16.3754146 C220.499657,13.6366829 218.761305,11.8485854 216.003119,11.8485854 L216.003119,11.8485854 Z" id="Match"></path>
            </g>
        </g>
    </g>
</svg>