<?xml version="1.0" encoding="UTF-8"?>
<svg width="139px" height="20px" viewBox="0 0 139 20" version="1.1" xmlns="http://www.w3.org/2000/svg" xmlns:xlink="http://www.w3.org/1999/xlink">
    <!-- Generator: Sketch 50.2 (55047) - http://www.bohemiancoding.com/sketch -->
    <title>MM Logo Copy 3</title>
    <desc>Created with Sketch.</desc>
    <defs></defs>
    <g id="1.-Accepting-EOIs" stroke="none" stroke-width="1" fill="none" fill-rule="evenodd">
        <g id="mm-buyer-mobile" transform="translate(-16.000000, -18.000000)">
            <g id="Group">
                <g id="MM-Logo-Copy-3" transform="translate(16.000000, 18.000000)">
                    <g id="Group-2">
                        <path d="M34.7000482,12.8054634 L27.5936886,5.87034146 L21.7969347,0.213268293 C21.5055224,-0.0711219512 21.0286661,-0.0711219512 20.736754,0.213268293 L17.6966697,3.18058537 L20.4533394,5.87034146 L27.5596989,12.8054634 C27.8511111,13.0898537 27.8511111,13.5557073 27.5596989,13.8400976 L24.8030292,16.5303415 L27.8431135,19.4971707 C28.1345257,19.781561 28.611882,19.781561 28.9032942,19.4971707 L34.7000482,13.8400976 C34.9914604,13.5557073 34.9914604,13.0898537 34.7000482,12.8054634" id="Fill-24" fill="#36A9E1"></path>
                        <path d="M10.5905601,16.5301463 L13.6306444,19.4969756 C13.9220566,19.7813659 14.3994128,19.7813659 14.6908251,19.4969756 L17.6969196,16.5638049 L14.126495,13.0794146 L10.5905601,16.5301463 Z" id="Fill-26" fill="#36A9E1"></path>
                        <path d="M7.83409033,12.8054634 L14.9404499,5.87034146 L17.6966197,3.18058537 L14.6565354,0.213268293 C14.3651232,-0.0711219512 13.8877669,-0.0711219512 13.5963547,0.213268293 L7.79960072,5.87034146 L0.693741042,12.8054634 C0.401828967,13.0898537 0.401828967,13.5557073 0.693741042,13.8400976 L6.48999518,19.4971707 C6.78190726,19.781561 7.25876363,19.781561 7.55017585,19.4971707 L10.59076,16.5303415 L7.83409033,13.8400976 C7.54267811,13.5557073 7.54267811,13.0898537 7.83409033,12.8054634" id="Fill-28" fill="#1D71B8"></path>
                        <path d="M17.6967696,16.5637073 L20.7023643,19.496878 C20.9942764,19.7817561 21.4711328,19.7817561 21.762545,19.496878 L24.8031292,16.5300488 L21.2671942,13.0793171 L17.6967696,16.5637073 Z" id="Fill-30" fill="#1D71B8"></path>
                        <path d="M27.559449,12.8054634 L20.4530894,5.87034146 L17.6969196,3.18058537 L14.9402499,5.87034146 L7.83389039,12.8054634 C7.54247817,13.0898537 7.54247817,13.5557073 7.83389039,13.8400976 L10.5905601,16.5303415 L14.126495,13.0796098 L17.6969196,16.5635122 L21.2668443,13.0796098 L24.8027793,16.5303415 L27.559449,13.8400976 C27.8508612,13.5557073 27.8508612,13.0898537 27.559449,12.8054634" id="Fill-32" fill="#29235C"></path>
                    </g>
                    <path d="M50.0049383,4.73170732 L47.6856369,4.73170732 L44.9314664,9.13121951 L42.177296,4.73170732 L39.8579946,4.73170732 L39.8579946,14.6341463 L42.177296,14.6341463 L42.177296,8.87658537 L44.8010057,13.0780488 L45.0619271,13.0780488 L47.6856369,8.87658537 L47.6856369,14.6341463 L50.0049383,14.6341463 L50.0049383,4.73170732 Z M53.5643662,11.9463415 L58.7103162,11.9463415 C58.7682987,11.677561 58.79729,11.3946341 58.79729,11.097561 C58.79729,8.96146341 57.2317615,7.36292683 55.115399,7.36292683 C52.8250888,7.36292683 51.2595604,8.9897561 51.2595604,11.097561 C51.2595604,13.2053659 52.7960976,14.8321951 55.2748509,14.8321951 C56.6519362,14.8321951 57.7246131,14.3370732 58.4348991,13.375122 L56.6954231,12.3990244 C56.4055104,12.7102439 55.8981632,12.9365854 55.3038422,12.9365854 C54.5065824,12.9365854 53.8397832,12.6819512 53.5643662,11.9463415 L53.5643662,11.9463415 Z M53.5208793,10.3619512 C53.7238181,9.6404878 54.2746522,9.24439024 55.1009033,9.24439024 C55.7532069,9.24439024 56.4055104,9.54146341 56.6374405,10.3619512 L53.5208793,10.3619512 Z M65.1688708,7.56097561 L65.1688708,8.22585366 C64.6905149,7.68829268 63.9802288,7.36292683 63.0090214,7.36292683 C61.1100933,7.36292683 59.5445649,8.9897561 59.5445649,11.097561 C59.5445649,13.2053659 61.1100933,14.8321951 63.0090214,14.8321951 C63.9802288,14.8321951 64.6905149,14.5068293 65.1688708,13.9692683 L65.1688708,14.6341463 L67.3432159,14.6341463 L67.3432159,7.56097561 L65.1688708,7.56097561 Z M63.4438904,12.8234146 C62.4436917,12.8234146 61.71891,12.1585366 61.71891,11.097561 C61.71891,10.0365854 62.4436917,9.37170732 63.4438904,9.37170732 C64.4440891,9.37170732 65.1688708,10.0365854 65.1688708,11.097561 C65.1688708,12.1585366 64.4440891,12.8234146 63.4438904,12.8234146 L63.4438904,12.8234146 Z M70.8736525,9.62634146 C70.8736525,9.37170732 71.1055827,9.2302439 71.4824691,9.2302439 C71.9608251,9.2302439 72.2507377,9.48487805 72.4536766,9.85268293 L74.3091177,8.87658537 C73.7003011,7.87219512 72.6566155,7.36292683 71.4824691,7.36292683 C69.9749232,7.36292683 68.6413249,8.14097561 68.6413249,9.68292683 C68.6413249,12.1302439 72.2072508,11.72 72.2072508,12.4980488 C72.2072508,12.7809756 71.9463294,12.9365854 71.4244866,12.9365854 C70.7866787,12.9365854 70.380801,12.6395122 70.1923577,12.1019512 L68.3079253,13.1487805 C68.873255,14.2946341 69.9749232,14.8321951 71.4244866,14.8321951 C72.9900151,14.8321951 74.4395784,14.1390244 74.4395784,12.5121951 C74.4395784,9.89512195 70.8736525,10.4326829 70.8736525,9.62634146 L70.8736525,9.62634146 Z M80.1588558,7.56097561 L80.1588558,11.4229268 C80.1588558,12.4273171 79.6080217,12.88 78.8107618,12.88 C78.1149714,12.88 77.5496417,12.4697561 77.5496417,11.5926829 L77.5496417,7.56097561 L75.3752966,7.56097561 L75.3752966,11.9039024 C75.3752966,13.8136585 76.6219211,14.8321951 78.0859801,14.8321951 C79.042692,14.8321951 79.7674736,14.4926829 80.1588558,13.9692683 L80.1588558,14.6341463 L82.3332008,14.6341463 L82.3332008,7.56097561 L80.1588558,7.56097561 Z M86.0520807,8.82 L86.0520807,7.56097561 L83.8777356,7.56097561 L83.8777356,14.6341463 L86.0520807,14.6341463 L86.0520807,11.4370732 C86.0520807,10.0365854 87.3276965,9.68292683 88.2264258,9.82439024 L88.2264258,7.4195122 C87.3132008,7.4195122 86.3419934,7.87219512 86.0520807,8.82 L86.0520807,8.82 Z M91.1335501,11.9463415 L96.2795001,11.9463415 C96.3374827,11.677561 96.3664739,11.3946341 96.3664739,11.097561 C96.3664739,8.96146341 94.8009455,7.36292683 92.684583,7.36292683 C90.3942728,7.36292683 88.8287443,8.9897561 88.8287443,11.097561 C88.8287443,13.2053659 90.3652815,14.8321951 92.8440349,14.8321951 C94.2211201,14.8321951 95.293797,14.3370732 96.0040831,13.375122 L94.264607,12.3990244 C93.9746944,12.7102439 93.4673472,12.9365854 92.8730262,12.9365854 C92.0757663,12.9365854 91.4089672,12.6819512 91.1335501,11.9463415 L91.1335501,11.9463415 Z M91.0900632,10.3619512 C91.2930021,9.6404878 91.8438362,9.24439024 92.6700873,9.24439024 C93.3223908,9.24439024 93.9746944,9.54146341 94.2066245,10.3619512 L91.0900632,10.3619512 Z" id="Measure" fill="#36A9E1"></path>
                    <path d="M107.407648,4.73170732 L106.436441,4.73170732 L102.812532,10.5882927 L99.1886239,4.73170732 L98.2319121,4.73170732 L98.2319121,14.6341463 L99.0001807,14.6341463 L99.0001807,5.83512195 L102.75455,11.9180488 L102.885011,11.9180488 L106.63938,5.83512195 L106.63938,14.6341463 L107.407648,14.6341463 L107.407648,4.73170732 Z M116.113026,7.56097561 L116.113026,9.1595122 C115.50421,8.09853659 114.388046,7.40536585 112.996465,7.40536585 C110.938085,7.40536585 109.242096,9.00390244 109.242096,11.097561 C109.242096,13.1912195 110.938085,14.7897561 112.996465,14.7897561 C114.388046,14.7897561 115.50421,14.0965854 116.113026,13.0356098 L116.113026,14.6341463 L116.852304,14.6341463 L116.852304,7.56097561 L116.113026,7.56097561 Z M113.054447,14.1107317 C111.329467,14.1107317 109.981373,12.7809756 109.981373,11.097561 C109.981373,9.41414634 111.329467,8.08439024 113.054447,8.08439024 C114.779428,8.08439024 116.113026,9.41414634 116.113026,11.097561 C116.113026,12.7809756 114.779428,14.1107317 113.054447,14.1107317 L113.054447,14.1107317 Z M122.745528,8.25414634 L122.745528,7.56097561 L120.585679,7.56097561 L120.585679,5.5804878 L119.846402,5.79268293 L119.846402,7.56097561 L118.251882,7.56097561 L118.251882,8.25414634 L119.846402,8.25414634 L119.846402,12.8517073 C119.846402,14.4643902 120.8466,14.9170732 122.745528,14.6341463 L122.745528,13.997561 C121.266974,14.124878 120.585679,14.0965854 120.585679,12.8517073 L120.585679,8.25414634 L122.745528,8.25414634 Z M127.319651,14.7897561 C128.740223,14.7897561 129.957856,14.082439 130.537681,12.9931707 L129.928865,12.6395122 C129.450509,13.5165854 128.493797,14.1107317 127.319651,14.1107317 C125.565679,14.1107317 124.246576,12.7809756 124.246576,11.097561 C124.246576,9.41414634 125.565679,8.08439024 127.319651,8.08439024 C128.479301,8.08439024 129.465005,8.66439024 129.885378,9.55560976 L130.479699,9.21609756 C129.957856,8.11268293 128.740223,7.40536585 127.319651,7.40536585 C125.13081,7.40536585 123.507299,9.00390244 123.507299,11.097561 C123.507299,13.1912195 125.13081,14.7897561 127.319651,14.7897561 L127.319651,14.7897561 Z M135.401716,7.40536585 C134.285553,7.40536585 133.357832,7.85804878 132.806998,8.90487805 L132.806998,4.73170732 L132.082216,4.73170732 L132.082216,14.6341463 L132.806998,14.6341463 L132.806998,10.8995122 C132.806998,8.9897561 133.923162,8.08439024 135.343734,8.08439024 C136.706323,8.08439024 137.474592,8.93317073 137.474592,10.2346341 L137.474592,14.6341463 L138.213869,14.6341463 L138.213869,10.2346341 C138.213869,8.52292683 137.126697,7.40536585 135.401716,7.40536585 L135.401716,7.40536585 Z" id="Match" fill="#1D71B8"></path>
                </g>
            </g>
        </g>
    </g>
</svg>