<?xml version="1.0" encoding="UTF-8"?>
<svg width="22px" height="18px" viewBox="0 0 22 18" version="1.1" xmlns="http://www.w3.org/2000/svg" xmlns:xlink="http://www.w3.org/1999/xlink">
    <!-- Generator: Sketch 52.6 (67491) - http://www.bohemiancoding.com/sketch -->
    <title>my-service-hub-black</title>
    <desc>Created with Sketch.</desc>
    <g id="•-Vendors" stroke="none" stroke-width="1" fill="none" fill-rule="evenodd" stroke-linecap="round" stroke-linejoin="round">
        <g id="Vendor-•-CreateHub" transform="translate(-51.000000, -347.000000)" stroke="#424242" stroke-width="1">
            <g id="Group-3" transform="translate(32.000000, 72.000000)">
                <g id="my-service-hub-black" transform="translate(20.000000, 276.000000)">
                    <path d="M19.5833333,13.75 C19.5833333,14.67 18.8383333,15.4166667 17.9166667,15.4166667 L2.08333333,15.4166667 C1.16333333,15.4166667 0.416666667,14.67 0.416666667,13.75 L0.416666667,2.08333333 C0.416666667,1.16333333 1.16333333,0.416666667 2.08333333,0.416666667 L17.9166667,0.416666667 C18.8383333,0.416666667 19.5833333,1.16333333 19.5833333,2.08333333 L19.5833333,13.75 L19.5833333,13.75 Z" id="Stroke-105"></path>
                    <path d="M0.416666667,4.58333333 L19.5833333,4.58333333" id="Stroke-106"></path>
                    <path d="M3.75,2.5 C3.75,2.73 3.56333333,2.91666667 3.33333333,2.91666667 C3.10333333,2.91666667 2.91666667,2.73 2.91666667,2.5 C2.91666667,2.27 3.10333333,2.08333333 3.33333333,2.08333333 C3.56333333,2.08333333 3.75,2.27 3.75,2.5 L3.75,2.5 Z" id="Stroke-107"></path>
                    <path d="M6.25,2.5 C6.25,2.73 6.06333333,2.91666667 5.83333333,2.91666667 C5.60333333,2.91666667 5.41666667,2.73 5.41666667,2.5 C5.41666667,2.27 5.60333333,2.08333333 5.83333333,2.08333333 C6.06333333,2.08333333 6.25,2.27 6.25,2.5 L6.25,2.5 Z" id="Stroke-108"></path>
                    <path d="M8.75,2.5 C8.75,2.73 8.56333333,2.91666667 8.33333333,2.91666667 C8.10333333,2.91666667 7.91666667,2.73 7.91666667,2.5 C7.91666667,2.27 8.10333333,2.08333333 8.33333333,2.08333333 C8.56333333,2.08333333 8.75,2.27 8.75,2.5 L8.75,2.5 Z" id="Stroke-109"></path>
                    <polyline id="Stroke-110" points="0.416666667 10.4166667 4.58333333 10.4166667 6.25 7.91666667 7.91666667 12.0833333 11.25 7.08333333 13.75 12.9166667 15.4166667 10.4166667 19.5833333 10.4166667"></polyline>
                </g>
            </g>
        </g>
    </g>
</svg>
