<?xml version="1.0" encoding="utf-8"?>
<!-- Generator: Adobe Illustrator 16.0.0, SVG Export Plug-In . SVG Version: 6.00 Build 0)  -->
<!DOCTYPE svg PUBLIC "-//W3C//DTD SVG 1.1//EN" "http://www.w3.org/Graphics/SVG/1.1/DTD/svg11.dtd">
<svg version="1.1" id="Layer_1" xmlns="http://www.w3.org/2000/svg" xmlns:xlink="http://www.w3.org/1999/xlink" x="0px" y="0px"
	 width="18px" height="17px" viewBox="0 0 18 17" enable-background="new 0 0 18 17" xml:space="preserve">
<title>navigation-home</title>
<desc>Created with Sketch.</desc>
<g id="_x2022_-Find-an-Expert" display="none">
	<g id="navigation-home" transform="translate(1.000000, 0.000000)" display="inline">
		<polyline id="Stroke-4934" fill="none" stroke="#424242" stroke-linecap="round" stroke-linejoin="round" points="2.435,8.696 
			2.435,15.652 6.609,15.652 6.609,10.783 10.087,10.783 10.087,15.652 14.261,15.652 14.261,9.044 		"/>
		<polyline id="Stroke-4935" fill="none" stroke="#424242" stroke-linecap="round" stroke-linejoin="round" points="0.348,8.348 
			8.348,0.348 16.348,8.348 		"/>
		<polyline id="Stroke-4936" fill="none" stroke="#424242" stroke-linecap="round" stroke-linejoin="round" points="11.131,1.044 
			13.565,1.044 13.565,3.479 		"/>
	</g>
</g>
<g>
	<g>
		<path fill="#424242" d="M0.025,3.956v9.086c0,1.252,1.021,2.274,2.273,2.274h7.344c1.252,0,2.273-1.022,2.273-2.274V11.57
			c0-0.248-0.201-0.449-0.45-0.449s-0.45,0.201-0.45,0.449v1.472c0,0.759-0.618,1.377-1.377,1.377h-7.34
			c-0.758,0-1.376-0.618-1.376-1.377V3.956c0-0.758,0.619-1.376,1.376-1.376h7.344c0.758,0,1.377,0.619,1.377,1.376v1.472
			c0,0.249,0.201,0.45,0.45,0.45s0.45-0.201,0.45-0.45V3.956c0-1.252-1.021-2.273-2.273-2.273H2.299
			C1.047,1.683,0.025,2.701,0.025,3.956z"/>
		<path fill="#424242" d="M14.134,11.886c0.089,0.088,0.202,0.132,0.319,0.132s0.23-0.044,0.318-0.132l3.071-3.072
			c0.176-0.175,0.176-0.457,0-0.632l-3.071-3.072c-0.176-0.176-0.458-0.176-0.634,0c-0.175,0.176-0.175,0.458,0,0.633l2.307,2.306
			H8.028c-0.249,0-0.451,0.201-0.451,0.451c0,0.249,0.202,0.45,0.451,0.45h8.413l-2.308,2.306
			C13.959,11.428,13.959,11.714,14.134,11.886z"/>
	</g>
</g>
<path display="none" fill="#424242" d="M14.016,12.162l-2.7-1.352c-0.255-0.127-0.413-0.384-0.413-0.669V9.186
	c0.063-0.078,0.132-0.17,0.202-0.269c0.352-0.495,0.631-1.045,0.836-1.64c0.398-0.183,0.657-0.577,0.657-1.022V5.124
	c0-0.272-0.102-0.537-0.282-0.742V2.877c0.016-0.156,0.078-1.081-0.591-1.845c-0.581-0.662-1.523-0.999-2.803-0.999
	c-1.279,0-2.22,0.336-2.802,0.998c-0.669,0.764-0.607,1.69-0.592,1.846v1.504c-0.18,0.206-0.282,0.47-0.282,0.742v1.131
	c0,0.344,0.156,0.665,0.424,0.879C5.929,8.16,6.471,8.932,6.66,9.18v0.937c0,0.273-0.15,0.524-0.39,0.656l-2.523,1.376
	c-0.82,0.446-1.329,1.305-1.329,2.239v0.915C2.419,16.645,6.672,17,8.922,17c2.25,0,6.504-0.355,6.504-1.697v-0.86
	C15.426,13.471,14.886,12.596,14.016,12.162z M14.86,15.303c0,0.384-2.096,1.131-5.938,1.131c-3.842,0-5.938-0.747-5.938-1.131
	v-0.915c0-0.728,0.396-1.396,1.036-1.742l2.522-1.377c0.422-0.23,0.684-0.673,0.684-1.152V8.979L7.16,8.901
	C7.153,8.892,6.46,8.054,6.195,6.903L6.169,6.791L6.074,6.729C5.909,6.623,5.812,6.446,5.812,6.255V5.124
	c0-0.159,0.067-0.306,0.189-0.417l0.093-0.083V2.862L6.092,2.825c-0.001-0.008-0.097-0.792,0.454-1.42
	C7.014,0.871,7.814,0.6,8.922,0.6c1.104,0,1.903,0.269,2.372,0.8c0.55,0.622,0.459,1.418,0.458,1.425l-0.003,1.798l0.094,0.083
	c0.123,0.111,0.19,0.258,0.19,0.417v1.131c0,0.247-0.162,0.463-0.402,0.536l-0.142,0.044l-0.045,0.14
	c-0.189,0.588-0.458,1.132-0.801,1.615c-0.084,0.119-0.166,0.225-0.237,0.305l-0.069,0.081v1.166c0,0.501,0.277,0.951,0.725,1.175
	l2.7,1.351c0.678,0.339,1.099,1.02,1.099,1.775V15.303z"/>
</svg>
