<?xml version="1.0" encoding="UTF-8" standalone="no"?>
<svg width="40px" height="35px" viewBox="0 0 40 35" version="1.1" xmlns="http://www.w3.org/2000/svg" xmlns:xlink="http://www.w3.org/1999/xlink">
    <!-- Generator: sketchtool 3.8.3 (29802) - http://www.bohemiancoding.com/sketch -->
    <title>A9996E59-417A-456D-ABF2-68613E3699A5</title>
    <desc>Created with sketchtool.</desc>
    <defs></defs>
    <g id="Page-1" stroke="none" stroke-width="1" fill="none" fill-rule="evenodd">
        <g id="MM-HOME" transform="translate(-733.000000, -2685.000000)" fill="#3E3C37">
            <g id="Negotiable_pricing" transform="translate(733.000000, 2695.000000)">
                <path d="M34.3277419,-9.9496875 L15.9483871,-9.9496875 C13.0576344,-9.9496875 10.7058065,-7.5574375 10.7058065,-4.617 L10.7058065,-4.4984375 L5.24215054,-4.4984375 C2.35182796,-4.4984375 0,-2.1061875 0,0.8346875 L0,11.791 C0,14.731 2.35139785,17.12325 5.24215054,17.12325 L6.82193548,17.12325 L6.82193548,24.075125 C6.82193548,24.4290625 7.03139785,24.748 7.35311828,24.883625 C7.45935484,24.9286875 7.5711828,24.950125 7.68215054,24.950125 C7.90623656,24.950125 8.12602151,24.8613125 8.29075269,24.69375 L15.7333333,17.12325 L23.6232258,17.12325 C25.0980645,17.12325 26.4946237,16.4683125 27.4804301,15.37675 L31.2812903,19.2425 C31.4455914,19.4100625 31.6658065,19.498875 31.8898925,19.498875 C32.0008602,19.498875 32.1126882,19.477 32.2189247,19.432375 C32.5402151,19.29675 32.7496774,18.9778125 32.7496774,18.623875 L32.7496774,11.672 L34.3286022,11.672 C37.2189247,11.672 39.5703226,9.2801875 39.5703226,6.3401875 L39.5703226,-4.6165625 C39.5698925,-7.5574375 37.2180645,-9.9496875 34.3277419,-9.9496875 L34.3277419,-9.9496875 Z M23.6227957,15.3728125 L15.3763441,15.3728125 C15.1483871,15.3728125 14.9294624,15.465125 14.768172,15.6291875 L8.54236559,21.962 L8.54236559,16.2478125 C8.54236559,15.7648125 8.15698925,15.3728125 7.68215054,15.3728125 L5.24215054,15.3728125 C3.30021505,15.3728125 1.72043011,13.765875 1.72043011,11.791 L1.72043011,0.8346875 C1.72043011,-1.1410625 3.30021505,-2.748 5.24215054,-2.748 L10.7058065,-2.748 L10.7058065,6.33975 C10.7058065,9.27975 13.0576344,11.6715625 15.9483871,11.6715625 L23.8369892,11.6715625 L26.264086,14.140375 C25.5991398,14.9095 24.6378495,15.3728125 23.6227957,15.3728125 L23.6227957,15.3728125 Z M37.8494624,6.33975 C37.8494624,8.314625 36.2696774,9.9215625 34.328172,9.9215625 L31.8890323,9.9215625 C31.4141935,9.9215625 31.0288172,10.3135625 31.0288172,10.7965625 L31.0288172,16.5111875 L27.9853763,13.415875 C27.9802151,13.4110625 27.975914,13.4058125 27.9707527,13.401 L24.8021505,10.1779375 C24.6408602,10.013875 24.4219355,9.9215625 24.1939785,9.9215625 L15.9483871,9.9215625 C14.0060215,9.9215625 12.4262366,8.314625 12.4262366,6.33975 L12.4262366,-4.6165625 C12.4262366,-6.5923125 14.0064516,-8.19925 15.9483871,-8.19925 L34.3277419,-8.19925 C36.2692473,-8.19925 37.8490323,-6.591875 37.8490323,-4.6165625 L37.8490323,6.33975 L37.8494624,6.33975 Z" id="Shape"></path>
            </g>
        </g>
    </g>
</svg>