<?xml version="1.0" encoding="UTF-8" standalone="no"?>
<svg width="20px" height="18px" viewBox="0 0 20 18" version="1.1" xmlns="http://www.w3.org/2000/svg" xmlns:xlink="http://www.w3.org/1999/xlink">
    <!-- Generator: Sketch 39.1 (31720) - http://www.bohemiancoding.com/sketch -->
    <title>paperclip</title>
    <desc>Created with Sketch.</desc>
    <defs></defs>
    <g id="Assets" stroke="none" stroke-width="1" fill="none" fill-rule="evenodd">
        <g id="assets" transform="translate(-222.000000, -130.000000)" fill="#4CB18E">
            <g id="paperclip" transform="translate(222.000000, 130.000000)">
                <g id="business_icons_tnp">
                    <path d="M20,4.91086957 C20.0020725,6.16180122 19.4938271,7.36183383 18.588,8.24478261 L9.576,17.0530435 C9.47824405,17.1647124 9.32475264,17.2133538 9.17863241,17.1789692 C9.03251218,17.1445846 8.91842467,17.0329772 8.88327595,16.8900335 C8.84812722,16.7470898 8.89784954,16.5969352 9.012,16.5013043 L18.02,7.69695652 C18.7797183,6.96191547 19.207232,5.96007471 19.207232,4.91478261 C19.207232,3.86949051 18.7797183,2.86764975 18.02,2.1326087 C16.4465693,0.598826267 13.9014307,0.598826267 12.328,2.1326087 L2,12.2282609 C1.2,13.0108696 0.8,13.7934783 0.8,14.5526087 C0.817111861,15.2122584 1.10554808,15.8372558 1.6,16.286087 C2.728,17.3895652 4.58,17.2486957 5.904,15.9534783 L14.212,7.82608696 C14.4807545,7.56848687 14.6322041,7.21590287 14.6322041,6.84782609 C14.6322041,6.4797493 14.4807545,6.12716531 14.212,5.86956522 C13.9481341,5.60763833 13.5879175,5.4601659 13.212,5.4601659 C12.8360825,5.4601659 12.4758659,5.60763833 12.212,5.86956522 L5.316,12.6469565 C5.21824405,12.7586255 5.06475264,12.8072668 4.91863241,12.7728822 C4.77251218,12.7384976 4.65842467,12.6268903 4.62327595,12.4839466 C4.58812722,12.3410029 4.63784954,12.1908482 4.752,12.0952174 L11.66,5.34130435 C12.2118816,4.77442597 13.0344947,4.54471485 13.8091138,4.74117366 C14.583733,4.93763248 15.1886424,5.52939164 15.3894669,6.28717127 C15.5902915,7.04495089 15.3554757,7.84968105 14.776,8.38956522 L6.472,16.5052174 C5.67835508,17.3101089 4.59094664,17.7744526 3.448,17.7965217 C2.54470052,17.8024399 1.6769222,17.4527214 1.04,16.826087 C0.394919737,16.2359081 0.0200429994,15.4164138 0,14.5526087 C0,13.5821739 0.496,12.596087 1.432,11.6726087 L11.764,1.56521739 C13.1447147,0.213783871 15.2221966,-0.18982241 17.0260159,0.542930409 C18.8298353,1.27568323 20.0039857,3.00017715 20,4.91086957 L20,4.91086957 Z" id="Shape"></path>
                </g>
            </g>
        </g>
    </g>
</svg>