<?xml version="1.0" encoding="UTF-8"?>
<svg width="98px" height="81px" viewBox="0 0 98 81" version="1.1" xmlns="http://www.w3.org/2000/svg" xmlns:xlink="http://www.w3.org/1999/xlink">
    <!-- Generator: Sketch 49.3 (51167) - http://www.bohemiancoding.com/sketch -->
    <title>payment</title>
    <desc>Created with Sketch.</desc>
    <defs></defs>
    <g id="•-Post-a-Project" stroke="none" stroke-width="1" fill="none" fill-rule="evenodd" stroke-linecap="round" stroke-linejoin="round">
        <g id="Code-of-Conduct" transform="translate(-991.000000, -343.000000)" stroke-width="2">
            <g id="Group-3" transform="translate(250.000000, 88.000000)">
                <g id="payment" transform="translate(742.000000, 256.000000)">
                    <path d="M95.1794872,18.2024291 L45.5220513,18.2024291" id="Stroke-1195" stroke="#1D71B8"></path>
                    <path d="M52.1025641,78.6612686 L21.3333333,78.6612686 C10.0020513,78.6612686 0.820512821,68.9964912 0.820512821,57.0688259 L0.820512821,42.6709852 C0.820512821,18.2024291 17.2307692,13.8839406 25.4358974,13.8839406 L37.7435897,13.8839406 C41.7312821,13.8839406 45.9487179,16.0431849 45.9487179,20.3616734 L45.9487179,22.5209177 C45.9487179,26.8394062 41.8461538,28.9986505 37.7435897,28.9986505 L29.5384615,28.9986505 C29.5384615,28.9986505 25.4358974,44.1133603 17.2307692,44.1133603" id="Stroke-1192" stroke="#424242"></path>
                    <path d="M41.8461538,52.7503374 L68.5128205,52.7503374 C71.9097436,52.7503374 74.6666667,55.6523617 74.6666667,59.2280702 C74.6666667,62.8080972 71.9097436,65.705803 68.5128205,65.705803 L52.1025641,65.705803" id="Stroke-1193" stroke="#424242"></path>
                    <path d="M41.8461538,65.705803 L52.1025641,65.705803 C55.4994872,65.705803 58.2564103,68.6078273 58.2564103,72.1835358 C58.2564103,75.7635628 55.4994872,78.6612686 52.1025641,78.6612686 L45.9487179,78.6612686" id="Stroke-1194" stroke="#424242"></path>
                    <path d="M21.3333333,14.2190553 L21.3333333,7.40448043 C21.3333333,3.82877193 24.0902564,0.926747638 27.4871795,0.926747638 L89.025641,0.926747638 C92.4225641,0.926747638 95.1794872,3.82877193 95.1794872,7.40448043 L95.1794872,46.2708772 C95.1794872,49.8509042 92.4225641,52.74861 89.025641,52.74861 L27.4871795,52.74861 C24.0902564,52.74861 21.3333333,49.8509042 21.3333333,46.2708772 L21.3333333,42.7642645" id="Stroke-1196" stroke="#424242"></path>
                    <path d="M86.974359,26.8394062 L74.6666667,26.8394062" id="Stroke-1197" stroke="#1D71B8"></path>
                </g>
            </g>
        </g>
    </g>
</svg>