<?xml version="1.0" encoding="UTF-8" standalone="no"?>
<svg xmlns="http://www.w3.org/2000/svg" height="54px" width="86px" version="1.1" xmlns:xlink="http://www.w3.org/1999/xlink" viewBox="0 0 86 54"><!-- Generator: Sketch 41.2 (35397) - http://www.bohemiancoding.com/sketch -->
 <title>payment icon</title>
 <desc>Created with Sketch.</desc>
 <defs>
  <polygon id="path-1" points="85.781 1.258e-14 0.00026764 1.258e-14 0.00026764 53.999 85.781 53.999 85.781 0"/>
  <polygon id="path-3" points="0 54 85.782 54 85.782 0 0 0"/>
 </defs>
 <g id="•-Landing-Page" fill-rule="evenodd" fill="none">
  <g id="MM_landing_updated" transform="translate(-853 -1399)">
   <g id="payment-icon" transform="translate(853 1399)">
    <g id="Group-3">
     <mask id="mask-2" fill="white">
      <use xlink:href="#path-1"/>
     </mask>
     <path id="Fill-1" fill="#1D71B8" mask="url(#mask-2)" d="m81.253 48.069c0 0.978-0.8 1.771-1.785 1.771h-73.155c-0.9849 0-1.7842-0.793-1.7842-1.771v-42.138c0-0.9777 0.7993-1.7709 1.7842-1.7709h73.155c0.985 0 1.785 0.7932 1.785 1.7705v42.138zm1.852-48.07h-80.428c-1.4786 0-2.6767 1.1897-2.6767 2.6557l-0.00003236 48.689c0 1.467 1.1981 2.655 2.6764 2.655h80.428c1.478 0 2.676-1.188 2.676-2.655v-48.689c0-1.4658-1.198-2.6555-2.676-2.6555v-0.00003115z"/>
    </g>
    <path id="Fill-4" fill="#1D71B8" d="m23.71 25.672h-9.814c-0.985 0-1.784-0.793-1.784-1.771v-7.082c0-0.977 0.799-1.77 1.784-1.77h9.814c0.985 0 1.784 0.793 1.784 1.77v7.082c0 0.978-0.799 1.771-1.784 1.771"/>
    <mask id="mask-4" fill="white">
     <use xlink:href="#path-3"/>
    </mask>
    <polygon id="Fill-6" points="12.112 36.295 25.945 36.295 25.945 33.639 12.112 33.639" mask="url(#mask-4)" fill="#1D71B8"/>
    <polygon id="Fill-8" points="28.019 36.295 41.853 36.295 41.853 33.639 28.019 33.639" mask="url(#mask-4)" fill="#1D71B8"/>
    <polygon id="Fill-9" points="43.928 36.295 57.762 36.295 57.762 33.639 43.928 33.639" mask="url(#mask-4)" fill="#1D71B8"/>
    <polygon id="Fill-10" points="59.836 36.295 73.669 36.295 73.669 33.639 59.836 33.639" mask="url(#mask-4)" fill="#1D71B8"/>
    <polygon id="Fill-11" points="12.558 43.337 41.106 43.337 41.106 40.762 12.558 40.762" mask="url(#mask-4)" fill="#1D71B8"/>
   </g>
  </g>
 </g>
</svg>
