<?xml version="1.0" encoding="UTF-8"?>
<svg width="80px" height="80px" viewBox="0 0 80 80" version="1.1" xmlns="http://www.w3.org/2000/svg" xmlns:xlink="http://www.w3.org/1999/xlink">
    <!-- Generator: Sketch 50.2 (55047) - http://www.bohemiancoding.com/sketch -->
    <title>project-live</title>
    <desc>Created with Sketch.</desc>
    <defs></defs>
    <g id="1.-Accepting-EOIs" stroke="none" stroke-width="1" fill="none" fill-rule="evenodd" stroke-linejoin="round">
        <g id="Project---brief-approved-(no-EOIs)" transform="translate(-825.000000, -263.000000)" stroke-width="2.5">
            <g id="Group-6" transform="translate(557.000000, 264.000000)">
                <g id="Group-5" transform="translate(27.000000, 0.000000)">
                    <g id="project-live" transform="translate(243.000000, 0.000000)">
                        <polygon id="Stroke-6197" stroke="#424242" points="60.8743333 33.5506667 66.3343333 29.0006667 60.8743333 24.4506667 64.1743333 18.1573333 57.391 16.044 58.0343333 8.964 50.9543333 9.60733333 48.8443333 2.824 42.551 6.124 38.001 0.667333333 33.451 6.124 27.1576667 2.824 25.0443333 9.60733333 17.9643333 8.964 18.6076667 16.044 11.8243333 18.1573333 15.1243333 24.4506667 9.66766667 29.0006667 15.1243333 33.5506667 11.8243333 39.844 18.6076667 41.9573333 17.9643333 49.0373333 25.0443333 48.3906667 27.1576667 55.174 33.451 51.874 38.001 57.334 42.551 51.874 48.8443333 55.174 50.9543333 48.3906667 58.0343333 49.0373333 57.391 41.9573333 64.1743333 39.844"></polygon>
                        <polyline id="Stroke-6198" stroke="#424242" points="64.5333333 47.776 75.7933333 67.2726667 62.96 65.0993333 58.5066667 77.3326667 49.65 62.376"></polyline>
                        <polyline id="Stroke-6199" stroke="#424242" points="11.4636667 47.776 0.207 67.2726667 13.0403333 65.0993333 17.4936667 77.3326667 26.3503333 62.376"></polyline>
                        <path d="M47.886,37.5613333 C47.0126667,39.6013333 45.006,40.668 42.786,40.668 L37.426,40.668 C31.8793333,40.668 33.5393333,38.4146667 23.5393333,38.4146667 L23.5393333,27.3346667 L26.3293333,27.3346667 C31.1826667,27.3346667 34.016,21.6046667 36.8126667,15.5346667 C37.7293333,13.5413333 40.206,12.4413333 40.206,16.6013333 L40.206,24.0013333 L50.606,24.0013333 C51.756,24.0013333 52.686,25.0713333 52.686,26.2213333 L47.886,37.5613333 L47.886,37.5613333 Z" id="Stroke-6200" stroke="#1D71B8" stroke-linecap="round"></path>
                    </g>
                </g>
            </g>
        </g>
    </g>
</svg>