<?xml version="1.0" encoding="UTF-8"?>
<svg width="12px" height="14px" viewBox="0 0 12 14" version="1.1" xmlns="http://www.w3.org/2000/svg" xmlns:xlink="http://www.w3.org/1999/xlink">
    <!-- Generator: Sketch 49.2 (51160) - http://www.bohemiancoding.com/sketch -->
    <title>project-start</title>
    <desc>Created with Sketch.</desc>
    <defs/>
    <g id="•-Projects" stroke="none" stroke-width="1" fill="none" fill-rule="evenodd">
        <g id="MM_Expert_ViewProject-updated" transform="translate(-591.000000, -202.000000)" fill="#BDBDBD">
            <g id="project-start" transform="translate(589.000000, 202.000000)">
                <path d="M11.3333333,6.66666667 L4.66666667,6.66666667 L4.66666667,8 L11.3333333,8 L11.3333333,6.66666667 L11.3333333,6.66666667 Z M12.6666667,2 L12,2 L12,0.666666667 L10.6666667,0.666666667 L10.6666667,2 L5.33333333,2 L5.33333333,0.666666667 L4,0.666666667 L4,2 L3.33333333,2 C2.59333333,2 2.00666667,2.6 2.00666667,3.33333333 L2,12.6666667 C2,13.4 2.59333333,14 3.33333333,14 L12.6666667,14 C13.4,14 14,13.4 14,12.6666667 L14,3.33333333 C14,2.6 13.4,2 12.6666667,2 L12.6666667,2 Z M12.6666667,12.6666667 L3.33333333,12.6666667 L3.33333333,5.33333333 L12.6666667,5.33333333 L12.6666667,12.6666667 L12.6666667,12.6666667 Z M9.33333333,9.33333333 L4.66666667,9.33333333 L4.66666667,10.6666667 L9.33333333,10.6666667 L9.33333333,9.33333333 L9.33333333,9.33333333 Z" id="Shape"/>
            </g>
        </g>
    </g>
</svg>