<?xml version="1.0" encoding="UTF-8"?>
<svg width="22px" height="22px" viewBox="0 0 22 22" version="1.1" xmlns="http://www.w3.org/2000/svg" xmlns:xlink="http://www.w3.org/1999/xlink">
    <!-- Generator: Sketch 52.5 (67469) - http://www.bohemiancoding.com/sketch -->
    <title>proposal-accepted</title>
    <desc>Created with Sketch.</desc>
    <g id="2.-Proposals-(v1)" stroke="none" stroke-width="1" fill="none" fill-rule="evenodd" stroke-linejoin="round">
        <g id="Buyer---AcceptingProposal---5" transform="translate(-797.000000, -518.000000)" stroke-width="1.5">
            <g id="Group-18" transform="translate(766.000000, 465.000000)">
                <g id="Group-11">
                    <g id="Group-6" transform="translate(16.000000, 44.000000)">
                        <g id="proposal-accepted" transform="translate(16.000000, 10.000000)">
                            <path d="M20,10 C20,9.14869565 19.3869565,8.44347826 18.5791304,8.29391304 C19.2669565,7.84521739 19.5626087,6.96 19.2391304,6.17391304 C18.9130435,5.38608696 18.0765217,4.96956522 17.2721739,5.14 C17.7373913,4.4626087 17.6713043,3.53130435 17.0695652,2.92869565 C16.4678261,2.32782609 15.5356522,2.2626087 14.8591304,2.72608696 C15.0295652,1.9226087 14.6121739,1.08782609 13.8243478,0.76173913 C13.0382609,0.435652174 12.1530435,0.731304348 11.7052174,1.42 C11.5547826,0.612173913 10.8513043,0 10,0 C9.14695652,0 8.4426087,0.612173913 8.29130435,1.42 C7.84434783,0.731304348 6.95826087,0.435652174 6.17130435,0.76173913 C5.38434783,1.08695652 4.96782609,1.9226087 5.1373913,2.72608696 C4.46086957,2.2626087 3.52956522,2.32782609 2.92695652,2.92956522 C2.32521739,3.53130435 2.26,4.4626087 2.72434783,5.14 C1.92086957,4.96956522 1.08782609,5.38695652 0.76173913,6.17391304 C0.435652174,6.96 0.729565217,7.84521739 1.4173913,8.29304348 C0.609565217,8.44347826 0,9.14869565 0,10 C0,10.8513043 0.610434783,11.5565217 1.4173913,11.7069565 C0.729565217,12.1556522 0.435652174,13.0417391 0.760869565,13.8278261 C1.08695652,14.613913 1.92086957,15.0304348 2.72434783,14.8608696 C2.26,15.5382609 2.32608696,16.4695652 2.92695652,17.0713043 C3.52956522,17.6730435 4.46,17.7391304 5.1373913,17.2756522 C4.96782609,18.0782609 5.38521739,18.9130435 6.17217391,19.2391304 C6.95826087,19.5652174 7.84434783,19.2695652 8.29130435,18.5808696 C8.4426087,19.3886957 9.14869565,20 10,20 C10.8513043,20 11.5547826,19.3886957 11.7052174,18.5808696 C12.1530435,19.2695652 13.0382609,19.5643478 13.8252174,19.2391304 C14.6121739,18.9130435 15.0286957,18.0782609 14.8591304,17.273913 C15.5356522,17.7391304 16.4678261,17.6730435 17.0695652,17.0713043 C17.6713043,16.4695652 17.7373913,15.5382609 17.2721739,14.8608696 C18.0756522,15.0313043 18.9130435,14.613913 19.2391304,13.8278261 C19.5652174,13.0417391 19.2678261,12.1556522 18.5791304,11.7069565 C19.386087,11.5573913 20,10.8513043 20,10 L20,10 Z" id="Stroke-2768" stroke="#1D71B8" fill="#EDF4FA"></path>
                            <polyline id="Stroke-2767" stroke="#424242" stroke-linecap="round" points="14.4210526 7 8.10526316 13.3157895 6 11.0601504"></polyline>
                        </g>
                    </g>
                </g>
            </g>
        </g>
    </g>
</svg>