<?xml version="1.0" encoding="utf-8"?>
<!-- Generator: Adobe Illustrator 16.0.0, SVG Export Plug-In . SVG Version: 6.00 Build 0)  -->
<!DOCTYPE svg PUBLIC "-//W3C//DTD SVG 1.1//EN" "http://www.w3.org/Graphics/SVG/1.1/DTD/svg11.dtd">
<svg version="1.1" id="Layer_1" xmlns="http://www.w3.org/2000/svg" xmlns:xlink="http://www.w3.org/1999/xlink" x="0px" y="0px"
	 width="667.73px" height="105.019px" viewBox="0 0 667.73 105.019" enable-background="new 0 0 667.73 105.019"
	 xml:space="preserve">
<g>
	<polygon fill="#29235C" points="11.131,99.874 169.498,99.874 169.498,24.052 12.625,24.052 63.048,63.644 	"/>
	<polygon fill="none" stroke="#29235C" stroke-width="7" stroke-miterlimit="10" points="11.131,99.874 169.498,99.874 
		169.498,24.052 12.625,24.052 63.048,63.644 	"/>
	<polygon fill="none" stroke="#FFFFFF" stroke-miterlimit="10" points="11.131,99.874 169.498,99.874 169.498,24.052 12.625,24.052 
		63.048,63.644 	"/>
</g>
<g>
	<polygon fill="#29235C" points="656.598,99.127 498.232,99.127 498.232,23.305 655.104,23.305 604.681,62.897 	"/>
	<polygon fill="none" stroke="#29235C" stroke-width="7" stroke-miterlimit="10" points="656.598,99.127 498.232,99.127 
		498.232,23.305 655.104,23.305 604.681,62.897 	"/>
	<polygon fill="none" stroke="#FFFFFF" stroke-miterlimit="10" points="656.598,99.127 498.232,99.127 498.232,23.305 
		655.104,23.305 604.681,62.897 	"/>
</g>
<polygon fill="#0C092D" points="81.475,86.179 174.727,105.019 174.727,77.028 95.827,78.562 "/>
<polygon fill="#0C092D" points="579.606,86.179 493.014,104.31 493.014,63.411 567.095,65.651 "/>
<g>
	<rect x="87.439" y="3" fill="#29235C" width="486.577" height="77.215"/>
	<g>
		<path fill="#29235C" d="M571.016,6v71.215H90.439V6H571.016 M577.016,0h-6H90.439h-6v6v71.215v6h6h480.577h6v-6V6V0L577.016,0z"/>
	</g>
	<rect x="90.439" y="6" fill="none" stroke="#FFFFFF" stroke-miterlimit="10" width="480.577" height="71.215"/>
</g>
</svg>
