<?xml version="1.0" encoding="UTF-8"?>
<svg width="32px" height="32px" viewBox="0 0 32 32" version="1.1" xmlns="http://www.w3.org/2000/svg" xmlns:xlink="http://www.w3.org/1999/xlink">
    <!-- Generator: Sketch 44.1 (41455) - http://www.bohemiancoding.com/sketch -->
    <title>rotateIcon</title>
    <desc>Created with Sketch.</desc>
    <defs></defs>
    <g id="•-SignUp" stroke="none" stroke-width="1" fill="none" fill-rule="evenodd">
        <g id="Artboard" transform="translate(-83.000000, -152.000000)">
            <g id="rotateIcon" transform="translate(83.000000, 152.000000)">
                <rect id="Rectangle" fill="#D8D8D8" opacity="0" x="0" y="0" width="32" height="32"></rect>
                <g id="Group-7" transform="translate(4.000000, 5.000000)" stroke="#FFFFFF">
                    <g id="Group-4">
                        <g id="Group" transform="translate(0.000000, 13.000000)" stroke-linecap="round">
                            <path d="M2.34008789,0.131103516 L0.0562744141,2.33374023" id="Line"></path>
                            <path d="M4.67077637,0.155883789 L2.38696289,2.35852051" id="Line-Copy" transform="translate(3.528870, 1.257202) scale(-1, 1) translate(-3.528870, -1.257202) "></path>
                            <path d="M7.40441895,7.38562012 C4.01989746,7.41231283 2.32763672,5.00386556 2.32763672,0.16027832" id="Path-2"></path>
                        </g>
                        <g id="Group-Copy" transform="translate(20.000000, 4.000000) scale(-1, -1) translate(-20.000000, -4.000000) translate(16.000000, 0.000000)" stroke-linecap="round">
                            <path d="M2.34008789,0.131103516 L0.0562744141,2.33374023" id="Line"></path>
                            <path d="M4.67077637,0.155883789 L2.38696289,2.35852051" id="Line-Copy" transform="translate(3.528870, 1.257202) scale(-1, 1) translate(-3.528870, -1.257202) "></path>
                            <path d="M7.40441895,7.38562012 C4.01989746,7.41231283 2.32763672,5.00386556 2.32763672,0.16027832" id="Path-2"></path>
                        </g>
                        <rect id="Rectangle-4" x="7.5" y="6.5" width="9" height="9"></rect>
                    </g>
                </g>
            </g>
        </g>
    </g>
</svg>