<?xml version="1.0" encoding="UTF-8" standalone="no"?>
<svg xmlns="http://www.w3.org/2000/svg" height="50px" width="50px" version="1.1" xmlns:xlink="http://www.w3.org/1999/xlink" viewBox="0 0 50 50"><!-- Generator: Sketch 40.3 (33839) - http://www.bohemiancoding.com/sketch -->
 <title>Scroll down button</title>
 <desc>Created with Sketch.</desc>
 <defs>
  <polygon id="path-1" points="0 0.000023171 0 18.725 23.835 18.725 23.835 0.000023171"/>
 </defs>
 <g id="Assets" fill-rule="evenodd" fill="none">
  <g id="Artboard" transform="translate(-423 -103)">
   <g id="Scroll-down-button" transform="translate(423 103)">
    <circle id="Oval" cy="25" cx="25" r="25" fill="#29235C"/>
    <g id="Group" transform="translate(25 25.5) rotate(180) translate(-12 -9.5)">
     <mask id="mask-2" fill="white">
      <use xlink:href="#path-1"/>
     </mask>
     <path id="Fill-1" fill="#fff" mask="url(#mask-2)" d="m23.645 12.165l-6.204-6.5881-2.406-2.5553-1.504 1.5969 1.503-1.5969-2.654-2.819c-0.254-0.27012-0.671-0.27012-0.925 0.00005l-5.0607 5.3742-6.2033 6.5882c-0.25484 0.27-0.25484 0.713 0 0.983l5.0601 5.374c0.2548 0.271 0.6711 0.271 0.9255 0l2.6544-2.818 3.087-3.278 3.117 3.309 3.116-3.309-3.116 3.309 2.624 2.787c0.254 0.271 0.671 0.271 0.925 0l2.655-2.819 2.406-2.555c0.254-0.27 0.254-0.713 0-0.983"/>
    </g>
   </g>
  </g>
 </g>
</svg>
