<?xml version="1.0" encoding="UTF-8" standalone="no"?>
<svg width="37px" height="40px" viewBox="0 0 37 40" version="1.1" xmlns="http://www.w3.org/2000/svg" xmlns:xlink="http://www.w3.org/1999/xlink">
    <!-- Generator: sketchtool 3.8.3 (29802) - http://www.bohemiancoding.com/sketch -->
    <title>994F5F9B-53C5-4587-93FC-F51DACFDA318</title>
    <desc>Created with sketchtool.</desc>
    <defs></defs>
    <g id="Page-1" stroke="none" stroke-width="1" fill="none" fill-rule="evenodd">
        <g id="MM-HOME" transform="translate(-733.000000, -2625.000000)" fill="#3E3C37">
            <g id="Search" transform="translate(733.000000, 2625.000000)">
                <path d="M13.875,30 C6.16666667,30 0,23.3333333 0,15 C0,6.66666667 6.16666667,0 13.875,0 C21.5833333,0 27.75,6.66666667 27.75,15 C27.75,23.3333333 21.5833333,30 13.875,30 L13.875,30 Z M13.875,3.33333333 C7.8625,3.33333333 3.08333333,8.5 3.08333333,15 C3.08333333,21.5 7.8625,26.6666667 13.875,26.6666667 C19.8875,26.6666667 24.6666667,21.5 24.6666667,15 C24.6666667,8.5 19.8875,3.33333333 13.875,3.33333333 L13.875,3.33333333 Z" id="Shape"></path>
                <path d="M35.4583333,40 C34.9958333,40 34.6875,39.8333333 34.3791667,39.5 L22.0458333,26.1666667 C21.4291667,25.5 21.4291667,24.5 22.0458333,23.8333333 C22.6625,23.1666667 23.5875,23.1666667 24.2041667,23.8333333 L36.5375,37.1666667 C37.1541667,37.8333333 37.1541667,38.8333333 36.5375,39.5 C36.2291667,39.8333333 35.9208333,40 35.4583333,40 L35.4583333,40 Z" id="Shape"></path>
            </g>
        </g>
    </g>
</svg>