<?xml version="1.0" encoding="UTF-8"?>
<svg width="18px" height="18px" viewBox="0 0 18 18" version="1.1" xmlns="http://www.w3.org/2000/svg" xmlns:xlink="http://www.w3.org/1999/xlink">
    <!-- Generator: Sketch 52.5 (67469) - http://www.bohemiancoding.com/sketch -->
    <title>speak-now</title>
    <desc>Created with Sketch.</desc>
    <g id="•-Onboarding" stroke="none" stroke-width="1" fill="none" fill-rule="evenodd" stroke-linecap="round" stroke-linejoin="round">
        <g id="Buyer-Onboarding-•-3-(Filled)-PW-reveal" transform="translate(-725.000000, -433.000000)" stroke="#1D71B8">
            <g id="Group-4" transform="translate(726.000000, 262.000000)">
                <g id="speak-now" transform="translate(0.000000, 172.000000)">
                    <path d="M4.96026667,9.6093913 C4.63426667,9.56347826 4.31226667,9.49043478 4.00026667,9.39165217 L0.666933333,10.7829565 L2.00026667,8.34817391 C0.950933333,7.47234783 0.3336,6.17426087 0.3336,4.824 C0.3336,2.16034783 2.87026667,0.000347826087 6.00026667,0.000347826087 C9.1296,0.000347826087 11.6669333,2.16034783 11.6669333,4.824" id="Stroke-785"/>
                    <path d="M6.33333333,10.7826087 C6.33333333,13.7655652 9.66666667,16 12.6666667,14.6086957 L15.3333333,15.6521739 L14.3333333,13.5652174 C15.1973333,12.8438261 15.6666667,11.8942609 15.6666667,10.7826087 C15.6666667,8.58852174 13.5773333,6.60869565 11,6.60869565 C8.42266667,6.60869565 6.33333333,8.58852174 6.33333333,10.7826087 L6.33333333,10.7826087 Z" id="Stroke-786"/>
                </g>
            </g>
        </g>
    </g>
</svg>