<?xml version="1.0" encoding="UTF-8"?>
<svg width="40px" height="40px" viewBox="0 0 40 40" version="1.1" xmlns="http://www.w3.org/2000/svg" xmlns:xlink="http://www.w3.org/1999/xlink">
    <!-- Generator: Sketch 52.3 (67297) - http://www.bohemiancoding.com/sketch -->
    <title>unknown</title>
    <desc>Created with Sketch.</desc>
    <g id="•-Logged-In-Designs" stroke="none" stroke-width="1" fill="none" fill-rule="evenodd">
        <g id="TM---Account-Approved-Results" transform="translate(-706.000000, -697.000000)">
            <g id="unknown" transform="translate(706.000000, 697.000000)">
                <rect id="Rectangle" fill="#1D71B8" fill-rule="nonzero" x="0" y="0" width="40" height="40" rx="2"/>
                <g id="Group-1196" transform="translate(8.000000, 8.000000)" stroke-linejoin="round">
                    <path d="M24,12 C24,18.6272727 18.6272727,24 12,24 C5.37272727,24 0,18.6272727 0,12 C0,5.37272727 5.37272727,0 12,0 C18.6272727,0 24,5.37272727 24,12 L24,12 Z" id="Stroke-3215" stroke="#FFFFFF" stroke-width="1.5" fill="#FFFFFF" stroke-linecap="round"/>
                    <path d="M9,9.33333333 C9,7.49333333 10.5668333,6 12.5,6 C14.432,6 16,7.49333333 16,9.33333333 C16,11.1755556 14.432,12.6666667 12.5,12.6666667 L12.5,16" id="Stroke-3216" stroke="#1D71B8" stroke-width="1.5" stroke-linecap="round"/>
                    <path d="M13,18.5 C13,18.776 12.776,19 12.5,19 C12.224,19 12,18.776 12,18.5 C12,18.224 12.224,18 12.5,18 C12.776,18 13,18.224 13,18.5 L13,18.5 Z" id="Stroke-3217" stroke="#1D71B8"/>
                </g>
            </g>
        </g>
    </g>
</svg>