<?xml version="1.0" encoding="utf-8"?>
<!-- Generator: Adobe Illustrator 16.0.0, SVG Export Plug-In . SVG Version: 6.00 Build 0)  -->
<!DOCTYPE svg PUBLIC "-//W3C//DTD SVG 1.1//EN" "http://www.w3.org/Graphics/SVG/1.1/DTD/svg11.dtd">
<svg version="1.1" id="Layer_1" xmlns="http://www.w3.org/2000/svg" xmlns:xlink="http://www.w3.org/1999/xlink" x="0px" y="0px"
	 width="18px" height="17px" viewBox="0 0 18 17" enable-background="new 0 0 18 17" xml:space="preserve">
<g id="_x2022_-Find-an-Expert_1_">
	<g id="MM_Buyer_findAnExpert_1.9-Empty-Screen_1_" transform="translate(-727.000000, -208.000000)">
		<g id="empty-state-icon_1_" transform="translate(729.000000, 210.000000)">
			
				<polyline id="Stroke-966_4_" fill="none" stroke="#424242" stroke-width="2.2" stroke-linecap="round" stroke-linejoin="round" points="
				-38.498,16.15 -38.498,20.832 -49.073,25.266 -50.21,31.767 -34.533,31.767 			"/>
			
				<polyline id="Stroke-966_3_" fill="none" stroke="#424242" stroke-width="2.2" stroke-linecap="round" stroke-linejoin="round" points="
				-34.211,31.767 -18.533,31.767 -19.67,25.266 -30.246,20.832 -30.246,16.15 			"/>
			<path id="Stroke-968_1_" fill="none" stroke="#424242" stroke-width="2.2" stroke-linecap="round" stroke-linejoin="round" d="
				M-26.08,7.19c0,5.603-3.787,10.144-8.451,10.144c-4.67,0-8.454-4.541-8.454-10.144c0-5.601,3.784-10.143,8.454-10.143
				C-29.867-2.952-26.08,1.59-26.08,7.19L-26.08,7.19z"/>
			<path id="Stroke-969_1_" fill="none" stroke="#424242" stroke-width="2.2" stroke-linecap="round" stroke-linejoin="round" d="
				M-26.16,5.873c-0.273,0.031-0.65,0.017-0.93,0.068c-2.752,0.531-4.518-0.465-6.035-3.119c-0.91,1.742-3.752,3.119-6.086,3.119
				c-1.152,0-2.572-0.288-3.565-0.804"/>
		</g>
	</g>
</g>
<g id="_x2022_-Find-an-Expert_2_">
	<g id="MM_Buyer_findAnExpert_1.9-Empty-Screen_2_" transform="translate(-727.000000, -208.000000)">
		<g id="empty-state-icon_2_" transform="translate(729.000000, 210.000000)">
			<path fill="#424242" d="M6.924,15.002h-7.219c-0.149,0-0.292-0.064-0.388-0.18c-0.095-0.115-0.137-0.266-0.11-0.414l0.524-2.994
				c0.029-0.17,0.144-0.313,0.302-0.379l4.559-1.912v-1.82c0-0.277,0.228-0.505,0.507-0.505c0.28,0,0.507,0.228,0.507,0.505v2.156
				c0,0.207-0.124,0.391-0.312,0.469L0.68,11.863L0.308,13.99h6.616c0.28,0,0.507,0.227,0.507,0.506S7.205,15.002,6.924,15.002z"/>
			<path fill="#424242" d="M14.294,15.002H7.072c-0.279,0-0.506-0.227-0.506-0.506s0.227-0.506,0.506-0.506h6.617l-0.37-2.127
				L8.703,9.928c-0.188-0.078-0.31-0.262-0.31-0.469V7.303c0-0.277,0.226-0.505,0.507-0.505c0.278,0,0.505,0.228,0.505,0.505v1.82
				l4.562,1.912c0.158,0.066,0.273,0.209,0.302,0.379l0.524,2.994c0.025,0.148-0.015,0.299-0.111,0.414S14.442,15.002,14.294,15.002
				z"/>
			<path fill="#424242" d="M6.926,8.355c-2.427,0-4.4-2.323-4.4-5.177C2.525,0.323,4.499-2,6.926-2s4.398,2.323,4.398,5.179
				C11.324,6.033,9.353,8.355,6.926,8.355z M6.926-0.986c-1.867,0-3.387,1.867-3.387,4.164s1.52,4.164,3.387,4.164
				s3.386-1.867,3.386-4.164S8.793-0.986,6.926-0.986z"/>
			<path fill="#424242" d="M9.723,3.174c-0.884,0-1.589-0.37-2.188-1.149C6.857,2.659,5.768,3.109,4.771,3.109
				c-0.65,0-1.369-0.164-1.876-0.427C2.647,2.553,2.551,2.248,2.68,2c0.129-0.248,0.435-0.346,0.683-0.217
				C3.723,1.97,4.29,2.096,4.771,2.096c0.914,0,2.034-0.556,2.354-1.165C7.21,0.767,7.379,0.664,7.564,0.66
				C7.76,0.64,7.922,0.754,8.013,0.915c0.611,1.065,1.218,1.388,2.245,1.19c0.1-0.018,0.216-0.025,0.329-0.029
				c0.049-0.002,0.096-0.004,0.137-0.009c0.278-0.029,0.53,0.169,0.561,0.447c0.031,0.278-0.167,0.528-0.444,0.56
				c-0.064,0.008-0.139,0.011-0.215,0.015C10.563,3.09,10.497,3.09,10.446,3.1C10.191,3.15,9.95,3.174,9.723,3.174z"/>
		</g>
	</g>
</g>
</svg>
