<?xml version="1.0" encoding="UTF-8"?>
<svg width="21px" height="13px" viewBox="0 0 21 13" version="1.1" xmlns="http://www.w3.org/2000/svg" xmlns:xlink="http://www.w3.org/1999/xlink">
    <!-- Generator: Sketch 50.2 (55047) - http://www.bohemiancoding.com/sketch -->
    <title>view-project-icon</title>
    <desc>Created with Sketch.</desc>
    <defs></defs>
    <g id="1.-Accepting-EOIs" stroke="none" stroke-width="1" fill="none" fill-rule="evenodd" stroke-linecap="round" stroke-linejoin="round">
        <g id="myProjectsNew--4" transform="translate(-1154.000000, -119.000000)" stroke="#686868">
            <g id="Group-9" transform="translate(1155.000000, 116.000000)">
                <g id="view-project-icon" transform="translate(0.000000, 4.000000)">
                    <path d="M19.3888464,5.80165289 C19.3888464,5.80165289 15.1414515,11.188902 9.90068755,11.188902 C4.65992361,11.188902 0.412528648,5.80165289 0.412528648,5.80165289 C0.412528648,5.80165289 4.65992361,0.414403778 9.90068755,0.414403778 C15.1414515,0.414403778 19.3888464,5.80165289 19.3888464,5.80165289 L19.3888464,5.80165289 Z" id="Stroke-214"></path>
                    <path d="M13.2009167,5.80165289 C13.2009167,7.63331759 11.7232391,9.11688312 9.90068755,9.11688312 C8.07813598,9.11688312 6.60045837,7.63331759 6.60045837,5.80165289 C6.60045837,3.96998819 8.07813598,2.48642267 9.90068755,2.48642267 C11.7232391,2.48642267 13.2009167,3.96998819 13.2009167,5.80165289 L13.2009167,5.80165289 Z" id="Stroke-215"></path>
                    <path d="M9.90068755,4.14403778 C10.8123759,4.14403778 11.5508021,4.88664935 11.5508021,5.80165289 C11.5508021,6.71665643 10.8123759,7.459268 9.90068755,7.459268 C8.98899924,7.459268 8.25057296,6.71665643 8.25057296,5.80165289" id="Stroke-216"></path>
                </g>
            </g>
        </g>
    </g>
</svg>