<?xml version="1.0" encoding="UTF-8"?>
<svg width="90px" height="90px" viewBox="0 0 90 90" version="1.1" xmlns="http://www.w3.org/2000/svg" xmlns:xlink="http://www.w3.org/1999/xlink">
    <!-- Generator: Sketch 52.3 (67297) - http://www.bohemiancoding.com/sketch -->
    <title>welcome</title>
    <desc>Created with Sketch.</desc>
    <g id="•-Logged-In-Designs" stroke="none" stroke-width="1" fill="none" fill-rule="evenodd" stroke-linecap="round" stroke-linejoin="round">
        <g id="TM---welcomeOverlay" transform="translate(-675.000000, -212.000000)" stroke-width="2">
            <g id="welcome" transform="translate(676.000000, 213.000000)">
                <path d="M69.9306667,30.9075556 L75.3931416,30.9075556" id="Stroke-2543" stroke="#1D71B8"></path>
                <path d="M63.1092441,12.5189402 L67.2021761,8.59654701" id="Stroke-2544" stroke="#1D71B8"></path>
                <path d="M43.9980379,6.05545299 L43.9980379,0.820581197" id="Stroke-2545" stroke="#1D71B8"></path>
                <path d="M24.8907559,12.5189402 L20.7938997,8.59654701" id="Stroke-2546" stroke="#1D71B8"></path>
                <path d="M18.063447,30.9075556 L12.6048963,30.9075556" id="Stroke-2547" stroke="#1D71B8"></path>
                <path d="M35.0650078,47.6580171 C28.7195897,44.5404103 24.3755095,38.2111795 24.3755095,30.9079316 C24.3755095,20.5209231 33.1617748,12.1045128 43.9964682,12.1045128 C54.8350858,12.1045128 63.617427,20.5209231 63.617427,30.9079316 C63.617427,38.181094 59.3086644,44.4915214 53.0024883,47.6204103" id="Stroke-2554" stroke="#1D71B8"></path>
                <path d="M0.831928651,57.1623932 L0.831928651,87.2478632 L87.1641472,87.2478632 L87.1641472,57.1623932 C65.5810925,43.8834188 22.4149833,44.1165812 0.831928651,57.1623932 L0.831928651,57.1623932 Z" id="Stroke-2548" stroke="#424242"></path>
                <path d="M64.1326734,87.3249573 L51.3319599,47.5030769" id="Stroke-2549" stroke="#424242"></path>
                <path d="M87.2390992,83.5127521 L57.0816856,47.9968547" id="Stroke-2550" stroke="#424242"></path>
                <path d="M23.8637949,87.2478632 L36.6645084,47.5312821" id="Stroke-2551" stroke="#424242"></path>
                <path d="M1.08503902,83.5127521 L31.3130881,47.9968547" id="Stroke-2552" stroke="#424242"></path>
                <path d="M43.9980379,87.3249573 L43.9980379,47.2924786" id="Stroke-2553" stroke="#424242"></path>
            </g>
        </g>
    </g>
</svg>