<?xml version="1.0" encoding="UTF-8" standalone="no"?>
<svg xmlns="http://www.w3.org/2000/svg" height="79px" width="90px" version="1.1" xmlns:xlink="http://www.w3.org/1999/xlink" viewBox="0 0 90 79"><!-- Generator: Sketch 41.2 (35397) - http://www.bohemiancoding.com/sketch -->
 <title>work icon</title>
 <desc>Created with Sketch.</desc>
 <g id="•-Landing-Page" fill-rule="evenodd" fill="none">
  <g id="MM_landing_updated" fill="#1D71B8" transform="translate(-595 -1374)">
   <g id="work-icon" transform="translate(595 1374)">
    <path id="Fill-1" d="m6.0938 58.31h77.812v-51.727l-77.812 0.0003-0.0002 51.727zm80.156-58.31h-82.5c-2.0709 0-3.75 1.6844-3.75 3.7619v57.369c0 2.078 1.6791 3.762 3.75 3.762h29.382l-2.181 7.994h-5.17c-1.035 0-1.875 0.842-1.875 1.881v1.881c0 1.039 0.84 1.881 1.875 1.881h38.438c1.035 0 1.875-0.842 1.875-1.881v-1.881c0-1.039-0.84-1.881-1.875-1.881h-5.171l-2.181-7.994h29.383c2.071 0 3.75-1.684 3.75-3.762v-57.369c0-2.0776-1.679-3.762-3.75-3.762z"/>
    <polygon id="Fill-3" points="70.638 51.404 76.847 51.404 76.847 31.506 70.638 31.506"/>
    <polygon id="Fill-4" points="59.223 51.404 65.432 51.404 65.432 37.305 59.223 37.305"/>
    <polygon id="Fill-5" points="47.808 51.404 54.017 51.404 54.017 41.674 47.808 41.674"/>
    <polygon id="Fill-6" points="36.393 51.404 42.602 51.404 42.602 44.973 36.393 44.973"/>
    <polygon id="Fill-7" points="13.347 17.077 53.555 17.077 53.555 13.784 13.347 13.784"/>
    <polygon id="Fill-8" points="13.347 24.03 43.618 24.03 43.618 20.737 13.347 20.737"/>
    <polygon id="Fill-9" points="13.347 30.613 43.618 30.613 43.618 27.32 13.347 27.32"/>
   </g>
  </g>
 </g>
</svg>
