<?xml version="1.0" encoding="UTF-8"?>
<svg width="26px" height="25px" viewBox="0 0 26 25" version="1.1" xmlns="http://www.w3.org/2000/svg" xmlns:xlink="http://www.w3.org/1999/xlink">
    <!-- Generator: Sketch 52.2 (67145) - http://www.bohemiancoding.com/sketch -->
    <title>step 3</title>
    <desc>Created with Sketch.</desc>
    <g id="•-Designs" stroke="none" stroke-width="1" fill="none" fill-rule="evenodd" stroke-linejoin="round">
        <g id="TM---5" transform="translate(-865.000000, -411.000000)" stroke="#424242">
            <g id="Group-13">
                <g id="step-3" transform="translate(866.000000, 412.000000)">
                    <g id="expert-gets-to-work">
                        <path d="M12.5128205,14.5641026 L12.5128205,11.6882051" id="Stroke-7841" stroke-linecap="round"></path>
                        <path d="M7.38461538,11.688 L7.38461538,14.5638974 L2.24717949,16.3987692 C1.0225641,16.8367179 0.205128205,17.9967179 0.205128205,19.2962051 L0.205128205,21.7433846 L12.5128205,21.7433846" id="Stroke-7842" stroke-linecap="round"></path>
                        <path d="M15.0769231,6.35897436 C15.0769231,9.75692308 12.7805128,12.5128205 9.94871795,12.5128205 C7.11589744,12.5128205 4.82051282,9.75692308 4.82051282,6.35897436 C4.82051282,2.96102564 7.11589744,0.205128205 9.94871795,0.205128205 C12.7805128,0.205128205 15.0769231,2.96102564 15.0769231,6.35897436 L15.0769231,6.35897436 Z" id="Stroke-7843"></path>
                        <path d="M15.0288205,5.79805128 C14.8565128,5.81958974 14.7375385,5.81241026 14.5642051,5.84625641 C12.8175385,6.18266667 11.6954872,5.54984615 10.7344615,3.86676923 C10.1570256,4.97241026 8.35292308,5.84625641 6.87189744,5.84625641 C6.14266667,5.84625641 5.51497436,5.69651282 4.88625641,5.36830769" id="Stroke-7844"></path>
                        <polygon id="Stroke-7845" stroke-linecap="round" points="20.7299487 11.4871795 16.6273846 18.6666667 19.7043077 18.6666667 19.7043077 23.7948718 23.8068718 16.6153846 20.7299487 16.6153846"></polygon>
                    </g>
                </g>
            </g>
        </g>
    </g>
</svg>