<?xml version="1.0" encoding="UTF-8"?>
<svg width="26px" height="26px" viewBox="0 0 26 26" version="1.1" xmlns="http://www.w3.org/2000/svg" xmlns:xlink="http://www.w3.org/1999/xlink">
    <!-- Generator: Sketch 52.2 (67145) - http://www.bohemiancoding.com/sketch -->
    <title>step 1</title>
    <desc>Created with Sketch.</desc>
    <g id="•-Designs" stroke="none" stroke-width="1" fill="none" fill-rule="evenodd" stroke-linejoin="round">
        <g id="TM---5" transform="translate(-865.000000, -237.000000)" stroke="#424242">
            <g id="Group-13">
                <g id="step-1" transform="translate(866.000000, 238.000000)">
                    <g id="submit-a-project-brief">
                        <path d="M8.50221009,18.7368421 L8.50221009,16.6315789 L9.56498635,16.6315789 L9.56498635,14.5263158 L4.25110505,14.5263158 L4.25110505,16.6315789 L5.31388131,16.6315789 L5.31388131,18.7368421 C2.06709983,19.1578947 0.248689645,20.7326316 0,24 L13.8947368,24 C13.6460472,20.7326316 11.7479288,19.1578947 8.50221009,18.7368421 L8.50221009,18.7368421 Z" id="Stroke-206"></path>
                        <path d="M23.3684211,0.315789474 L10.7368421,12.9473684" id="Stroke-207" stroke-linecap="round"></path>
                        <path d="M12.4631153,11.3684211 C11.2337148,10.1259707 12.5141667,6.33965575 15.5668305,3.25669411 C17.134837,1.66888463 18.8528721,0.521197409 19.8947368,0 L19.8947368,3.89476609" id="Stroke-208" stroke-linecap="round"></path>
                        <path d="M16.4210526,7.26315789 L21.4736842,7.26315789" id="Stroke-209" stroke-linecap="round"></path>
                        <path d="M14.2601991,9.47368421 L19.8947368,9.47368421 C16.9186214,12.198298 13.3953087,12.5000816 12.3157895,11.4138746" id="Stroke-210" stroke-linecap="round"></path>
                        <path d="M23.7030934,0.315789474 C24.6848852,1.29354544 24.4588147,3.2265679 23.2251158,5.36842105 L18.6315789,5.36842105" id="Stroke-211" stroke-linecap="round"></path>
                    </g>
                </g>
            </g>
        </g>
    </g>
</svg>