<?xml version="1.0" encoding="UTF-8"?>
<svg width="19px" height="28px" viewBox="0 0 19 28" version="1.1" xmlns="http://www.w3.org/2000/svg" xmlns:xlink="http://www.w3.org/1999/xlink">
    <!-- Generator: Sketch 52.2 (67145) - http://www.bohemiancoding.com/sketch -->
    <title>step 4</title>
    <desc>Created with Sketch.</desc>
    <g id="•-Designs" stroke="none" stroke-width="1" fill="none" fill-rule="evenodd" stroke-linecap="round" stroke-linejoin="round">
        <g id="TM---5" transform="translate(-869.000000, -482.000000)" stroke="#424242">
            <g id="Group-13">
                <g id="step-4" transform="translate(869.000000, 482.000000)">
                    <path d="M8.16666667,21.5833333 C8.16666667,22.5505 8.95066667,23.3333333 9.91666667,23.3333333 C10.8826667,23.3333333 11.6666667,22.5505 11.6666667,21.5833333 C11.6666667,20.6185 10.8826667,19.8333333 9.91666667,19.8333333 C8.95066667,19.8333333 8.16666667,19.0505 8.16666667,18.0833333 C8.16666667,17.1185 8.95066667,16.3333333 9.91666667,16.3333333 C10.8826667,16.3333333 11.6666667,17.1185 11.6666667,18.0833333" id="Stroke-1248"></path>
                    <path d="M9.91666667,23.3333333 L9.91666667,24.5" id="Stroke-1249"></path>
                    <path d="M9.91666667,15.1666667 L9.91666667,16.3333333" id="Stroke-1250"></path>
                    <path d="M12.5770167,12.25 L6.08918333,12.25 C3.52485,14.1423333 0.583683333,17.9725 0.583683333,21 C0.583683333,25.1895 2.91701667,27.4166667 9.33368333,27.4166667 C15.75035,27.4166667 18.0836833,25.1895 18.0836833,21 C18.0836833,17.9725 15.1425167,14.1423333 12.5770167,12.25 L12.5770167,12.25 Z" id="Stroke-1251"></path>
                    <path d="M5.25,9.91666667 L13.4166667,9.91666667" id="Stroke-1252"></path>
                    <path d="M14.5833333,1.75 L10.5,3.5 L9.33333333,0.583333333 L8.16666667,3.5 L4.08333333,1.75 C4.08333333,1.75 6.41666667,5.25 6.41666667,7.58333333 L12.25,7.58333333 C12.25,5.25 14.5833333,1.75 14.5833333,1.75 L14.5833333,1.75 Z" id="Stroke-1253"></path>
                </g>
            </g>
        </g>
    </g>
</svg>