<?xml version="1.0" encoding="UTF-8"?>
<svg width="25px" height="25px" viewBox="0 0 25 25" version="1.1" xmlns="http://www.w3.org/2000/svg" xmlns:xlink="http://www.w3.org/1999/xlink">
    <!-- Generator: Sketch 52.2 (67145) - http://www.bohemiancoding.com/sketch -->
    <title>step 2</title>
    <desc>Created with Sketch.</desc>
    <g id="•-Designs" stroke="none" stroke-width="1" fill="none" fill-rule="evenodd" stroke-linecap="round" stroke-linejoin="round">
        <g id="TM---5" transform="translate(-865.000000, -307.000000)" stroke="#424242">
            <g id="Group-13">
                <g id="step-2" transform="translate(866.000000, 308.000000)">
                    <g id="get-measurematched">
                        <path d="M17.8249337,8.91246684 C17.8249337,13.8351194 13.8351194,17.8249337 8.91246684,17.8249337 C3.98981432,17.8249337 0,13.8351194 0,8.91246684 C0,3.98981432 3.98981432,0 8.91246684,0 C13.8351194,0 17.8249337,3.98981432 17.8249337,8.91246684 L17.8249337,8.91246684 Z" id="Stroke-964"></path>
                        <path d="M15.7241379,15.7241379 L23.2868612,23.2858709" id="Stroke-965"></path>
                        <polyline id="Stroke-966" points="7.2714412 10.6147629 7.2714412 11.6848099 3.31034483 13.3454996"></polyline>
                        <polyline id="Stroke-967" points="10.7586207 10.4063847 10.7586207 11.6848099 14.7197171 13.3454996"></polyline>
                        <path d="M12.124916,7.10903625 C12.124916,9.20742706 10.7068435,10.9087179 8.96,10.9087179 C7.21018568,10.9087179 5.79310345,9.20742706 5.79310345,7.10903625 C5.79310345,5.01163572 7.21018568,3.31034483 8.96,3.31034483 C10.7068435,3.31034483 12.124916,5.01163572 12.124916,7.10903625 L12.124916,7.10903625 Z" id="Stroke-968"></path>
                        <path d="M12.0159859,6.10829355 C11.9139876,6.12017683 11.7723784,6.11423519 11.6683996,6.13404067 C10.6375243,6.33308576 9.97602122,5.95975243 9.40760389,4.96551724 C9.0669496,5.61810787 8.00240495,6.13404067 7.12799293,6.13404067 C6.69623342,6.13404067 6.4564821,6.08615302 6.08512931,5.89304957" id="Stroke-969"></path>
                    </g>
                </g>
            </g>
        </g>
    </g>
</svg>