<?xml version="1.0" encoding="UTF-8"?>
<svg width="21px" height="22px" viewBox="0 0 21 22" version="1.1" xmlns="http://www.w3.org/2000/svg" xmlns:xlink="http://www.w3.org/1999/xlink">
    <!-- Generator: Sketch 48.2 (47327) - http://www.bohemiancoding.com/sketch -->
    <title>browse-experts</title>
    <desc>Created with Sketch.</desc>
    <defs></defs>
    <g id="BrowseExperts-Fixed" stroke="none" stroke-width="1" fill="none" fill-rule="evenodd" transform="translate(-481.000000, -353.000000)" stroke-linecap="round" stroke-linejoin="round">
        <g id="browse-experts" transform="translate(482.000000, 354.000000)" stroke="#424242">
            <path d="M15.4166667,7.91666667 C15.4166667,12.0591667 12.0591667,15.4166667 7.91666667,15.4166667 C3.77416667,15.4166667 0.416666667,12.0591667 0.416666667,7.91666667 C0.416666667,3.77416667 3.77416667,0.416666667 7.91666667,0.416666667 C12.0591667,0.416666667 15.4166667,3.77416667 15.4166667,7.91666667 L15.4166667,7.91666667 Z" id="Stroke-964"></path>
            <path d="M13.2194167,13.22025 L19.5835833,19.5835833" id="Stroke-965"></path>
            <polyline id="Stroke-966" points="6.66666667 8.79316667 6.66666667 10.269 3.33333333 11.6665"></polyline>
            <polyline id="Stroke-967" points="9.16666667 8.79316667 9.16666667 10.269 12.5 11.6665"></polyline>
            <path d="M10.58025,5.96925 C10.58025,7.73508333 9.38691667,9.16675 7.91691667,9.16675 C6.44441667,9.16675 5.25191667,7.73508333 5.25191667,5.96925 C5.25191667,4.20425 6.44441667,2.77258333 7.91691667,2.77258333 C9.38691667,2.77258333 10.58025,4.20425 10.58025,5.96925 L10.58025,5.96925 Z" id="Stroke-968"></path>
        </g>
    </g>
</svg>