<?xml version="1.0" encoding="UTF-8"?>
<svg width="48px" height="48px" viewBox="0 0 48 48" version="1.1" xmlns="http://www.w3.org/2000/svg" xmlns:xlink="http://www.w3.org/1999/xlink">
    <!-- Generator: Sketch 47.1 (45422) - http://www.bohemiancoding.com/sketch -->
    <title>data-science</title>
    <desc>Created with Sketch.</desc>
    <defs></defs>
    <g id="•-Service-Packages" stroke="none" stroke-width="1" fill="none" fill-rule="evenodd">
        <g id="Artboard" transform="translate(-298.000000, -28.000000)">
            <g id="data-science" transform="translate(298.000000, 28.000000)">
                <rect id="Rectangle-13-Copy-4" fill="#FFFFFF" x="0" y="0" width="48" height="48"></rect>
                <path d="M33,24 C33,36.704 28.97,47 24,47 C19.03,47 15,36.704 15,24 C15,11.296 19.03,1 24,1 C28.97,1 33,11.296 33,24 L33,24 Z" id="Stroke-8226" stroke="#424242" stroke-width="2"></path>
                <path d="M29.0996,31.416 C18.6356,38.614 7.8676,41.13 5.0496,37.034 C2.2316,32.94 8.4336,23.784 18.8996,16.584 C29.3656,9.386 40.1336,6.872 42.9516,10.966 C45.7676,15.06 39.5656,24.216 29.0996,31.416 L29.0996,31.416 Z" id="Stroke-8227" stroke="#424242" stroke-width="2"></path>
                <path d="M18.9004,31.416 C29.3644,38.614 40.1324,41.13 42.9504,37.034 C45.7684,32.94 39.5664,23.784 29.1004,16.584 C18.6344,9.386 7.8664,6.872 5.0484,10.966 C2.2324,15.06 8.4344,24.216 18.9004,31.416 L18.9004,31.416 Z" id="Stroke-8228" stroke="#424242" stroke-width="2"></path>
                <path d="M28,24 C28,26.21 26.208,28 24,28 C21.792,28 20,26.21 20,24 C20,21.792 21.792,20 24,20 C26.208,20 28,21.792 28,24 L28,24 Z" id="Stroke-8229" stroke="#1D71B8" stroke-width="2"></path>
            </g>
        </g>
    </g>
</svg>