<?xml version="1.0" encoding="UTF-8"?>
<svg width="48px" height="48px" viewBox="0 0 48 48" version="1.1" xmlns="http://www.w3.org/2000/svg" xmlns:xlink="http://www.w3.org/1999/xlink">
    <!-- Generator: Sketch 47.1 (45422) - http://www.bohemiancoding.com/sketch -->
    <title>marketingAutomation-and-CRM</title>
    <desc>Created with Sketch.</desc>
    <defs></defs>
    <g id="•-Service-Packages" stroke="none" stroke-width="1" fill="none" fill-rule="evenodd">
        <g id="Artboard" transform="translate(-359.000000, -28.000000)">
            <g id="marketingAutomation-and-CRM" transform="translate(359.000000, 28.000000)">
                <rect id="Rectangle-13-Copy-5" fill="#FFFFFF" x="0" y="0" width="48" height="48"></rect>
                <path d="M16.3076923,28.0769231 C16.3076923,30.6264615 14.2418462,32.6923077 11.6923077,32.6923077 C9.14092308,32.6923077 7.07692308,30.6264615 7.07692308,28.0769231 C7.07692308,25.5273846 9.14092308,23.4615385 11.6923077,23.4615385 C14.2418462,23.4615385 16.3076923,25.5273846 16.3076923,28.0769231 L16.3076923,28.0769231 Z" id="Stroke-3706" stroke="#424242" stroke-width="2" stroke-linecap="round" stroke-linejoin="round"></path>
                <path d="M14.2924624,39.8717949 L4,39.8717949 C4,35.9087179 7.30288772,32.6923077 11.3807547,32.6923077 C13.8256297,32.6923077 15.9918812,33.85 17.3333333,35.6305128" id="Stroke-3707" stroke="#424242" stroke-width="2" stroke-linecap="round" stroke-linejoin="round"></path>
                <path d="M41.9487179,28.0769231 C41.9487179,30.6264615 39.8828718,32.6923077 37.3333333,32.6923077 C34.7819487,32.6923077 32.7179487,30.6264615 32.7179487,28.0769231 C32.7179487,25.5273846 34.7819487,23.4615385 37.3333333,23.4615385 C39.8828718,23.4615385 41.9487179,25.5273846 41.9487179,28.0769231 L41.9487179,28.0769231 Z" id="Stroke-3708" stroke="#424242" stroke-width="2" stroke-linecap="round" stroke-linejoin="round"></path>
                <path d="M30.6666667,35.6323077 C32.0075621,33.8517949 34.1747591,32.6923077 36.6223083,32.6923077 C40.698483,32.6923077 44,35.9087179 44,39.8717949 L33.7099645,39.8717949" id="Stroke-3709" stroke="#424242" stroke-width="2" stroke-linecap="round" stroke-linejoin="round"></path>
                <path d="M30.6666667,27.0512821 C30.6666667,30.7354926 27.6817573,33.7179487 24.000923,33.7179487 C20.3163967,33.7179487 17.3333333,30.7354926 17.3333333,27.0512821 C17.3333333,23.3689182 20.3163967,20.3846154 24.000923,20.3846154 C27.6817573,20.3846154 30.6666667,23.3689182 30.6666667,27.0512821 L30.6666667,27.0512821 Z" id="Stroke-3710" stroke="#424242" stroke-width="2" stroke-linecap="round" stroke-linejoin="round"></path>
                <path d="M14.2564103,19.3589744 C16.3901108,16.2405537 19.730753,14.2307692 23.4898736,14.2307692 C27.2418099,14.2307692 30.5842482,16.2385195 32.7179487,19.3569402" id="Stroke-3711" stroke="#424242" stroke-width="2" stroke-linecap="round" stroke-linejoin="round"></path>
                <path d="M11.1794872,16.2820513 C14.1953254,12.5296166 18.8187571,10.1282051 24.0073156,10.1282051 C29.1830718,10.1282051 33.8010169,12.5222841 36.8205128,16.265553" id="Stroke-3712" stroke="#1D71B8" stroke-width="2" stroke-linecap="round" stroke-linejoin="round"></path>
                <path d="M8.1025641,13.1844651 C11.9328673,8.19714474 17.8539157,5 24.5064518,5 C31.1626272,5 37.0909541,8.20653705 40.9230769,13.2051282" id="Stroke-3713" stroke="#424242" stroke-width="2" stroke-linecap="round" stroke-linejoin="round"></path>
                <path d="M34.7692308,43.974359 L13.2307692,43.974359 C13.2307692,38.3110599 18.0491962,33.7179487 24.000932,33.7179487 C29.9489399,33.7179487 34.7692308,38.3110599 34.7692308,43.974359 L34.7692308,43.974359 Z" id="Stroke-3714" stroke="#424242" stroke-width="2" stroke-linecap="round" stroke-linejoin="round"></path>
            </g>
        </g>
    </g>
</svg>