<?xml version="1.0" encoding="UTF-8"?>
<svg width="48px" height="48px" viewBox="0 0 48 48" version="1.1" xmlns="http://www.w3.org/2000/svg" xmlns:xlink="http://www.w3.org/1999/xlink">
    <!-- Generator: Sketch 47.1 (45422) - http://www.bohemiancoding.com/sketch -->
    <title>marketing-execution</title>
    <desc>Created with Sketch.</desc>
    <defs></defs>
    <g id="•-Service-Packages" stroke="none" stroke-width="1" fill="none" fill-rule="evenodd">
        <g id="Artboard" transform="translate(-542.000000, -28.000000)">
            <g id="marketing-execution" transform="translate(542.000000, 28.000000)">
                <rect id="Rectangle-13-Copy-12" fill="#FFFFFF" x="0" y="0" width="48" height="48"></rect>
                <path d="M16.1561668,14.9565217 L16.1561668,29.4834428 C16.1561668,34.1531145 18.813428,38.4207276 23.018042,40.5110914" id="Stroke-353" stroke="#424242" stroke-width="2" stroke-linecap="round" stroke-linejoin="round"></path>
                <path d="M43.6036676,22.6228926 C43.6036676,24.0335049 42.4508725,25.1783496 41.0304644,25.1783496 L40.17273,25.1783496 L40.17273,18.3637977 L41.0304644,18.3637977 C42.4508725,18.3637977 43.6036676,19.5086424 43.6036676,20.9192547 L43.6036676,22.6228926 L43.6036676,22.6228926 Z" id="Stroke-354" stroke="#1D71B8" stroke-width="2" stroke-linecap="round" stroke-linejoin="round"></path>
                <path d="M11.0097604,14.9565217 L9.29429163,14.9565217 C6.4534753,14.9565217 4.14788524,17.2445075 4.14788524,20.0674357 L4.14788524,23.4747116 C4.14788524,26.2959361 6.4534753,28.5856256 9.29429163,28.5856256 L11.0097604,28.5856256 C26.3237504,28.5856256 32.6075126,31.9843833 40.17273,35.4001775 L40.17273,8.14196983 C32.6246673,11.5492458 26.3323277,14.9565217 11.0097604,14.9565217 L11.0097604,14.9565217 Z" id="Stroke-355" stroke="#424242" stroke-width="2" stroke-linecap="round" stroke-linejoin="round"></path>
            </g>
        </g>
    </g>
</svg>