<?xml version="1.0" encoding="UTF-8"?>
<svg width="48px" height="48px" viewBox="0 0 48 48" version="1.1" xmlns="http://www.w3.org/2000/svg" xmlns:xlink="http://www.w3.org/1999/xlink">
    <!-- Generator: Sketch 47.1 (45422) - http://www.bohemiancoding.com/sketch -->
    <title>Mobile-analytics</title>
    <desc>Created with Sketch.</desc>
    <defs></defs>
    <g id="•-Service-Packages" stroke="none" stroke-width="1" fill="none" fill-rule="evenodd">
        <g id="Artboard" transform="translate(-481.000000, -28.000000)">
            <g id="Mobile-analytics" transform="translate(481.000000, 28.000000)">
                <rect id="Rectangle-13-Copy-7" fill="#FFFFFF" x="0" y="0" width="48" height="48"></rect>
                <path d="M35.8705217,42.173913 C35.8705217,44.285913 34.1583478,46 32.0444348,46 L14.8270435,46 C12.7131304,46 11.0009565,44.285913 11.0009565,42.173913 L11.0009565,5.82608696 C11.0009565,3.71408696 12.7131304,2 14.8270435,2 L32.0444348,2 C34.1583478,2 35.8705217,3.71408696 35.8705217,5.82608696 L35.8705217,42.173913 L35.8705217,42.173913 Z" id="Stroke-5155" stroke="#424242" stroke-width="2" stroke-linecap="round" stroke-linejoin="round"></path>
                <path d="M35.8705217,38.3478261 L11.0009565,38.3478261" id="Stroke-5156" stroke="#424242" stroke-width="2" stroke-linecap="round" stroke-linejoin="round"></path>
                <path d="M35.8705217,9.65217391 L11.0009565,9.65217391" id="Stroke-5157" stroke="#424242" stroke-width="2" stroke-linecap="round" stroke-linejoin="round"></path>
                <path d="M18.6531304,5.82608696 L28.2183478,5.82608696" id="Stroke-5158" stroke="#1D71B8" stroke-width="2" stroke-linecap="round" stroke-linejoin="round"></path>
                <path d="M23.4357391,43.1304348 C22.9077391,43.1304348 22.4792174,42.701913 22.4792174,42.173913 C22.4792174,41.645913 22.9077391,41.2173913 23.4357391,41.2173913 C23.9637391,41.2173913 24.3922609,41.645913 24.3922609,42.173913 C24.3922609,42.701913 23.9637391,43.1304348 23.4357391,43.1304348 L23.4357391,43.1304348 Z" id="Stroke-5159" stroke="#1D71B8" stroke-width="2" stroke-linejoin="round"></path>
            </g>
        </g>
    </g>
</svg>