<?xml version="1.0" encoding="UTF-8"?>
<svg width="50px" height="50px" viewBox="0 0 50 50" version="1.1" xmlns="http://www.w3.org/2000/svg" xmlns:xlink="http://www.w3.org/1999/xlink">
    <!-- Generator: Sketch 47.1 (45422) - http://www.bohemiancoding.com/sketch -->
    <title>social-analytics</title>
    <desc>Created with Sketch.</desc>
    <defs></defs>
    <g id="•-Service-Packages" stroke="none" stroke-width="1" fill="none" fill-rule="evenodd" stroke-linecap="round" stroke-linejoin="round">
        <g id="Artboard" transform="translate(-602.000000, -27.000000)" stroke-width="2">
            <g id="social-analytics" transform="translate(603.000000, 28.000000)">
                <path d="M30.8481507,35.6822743 L40.0787527,31.0680163" id="Stroke-1307" stroke="#424242"></path>
                <path d="M31.0294251,39.0148867 L39.9033191,42.3399895" id="Stroke-1308" stroke="#424242"></path>
                <path d="M47.5383308,27.3401047 C48.5667346,29.3989983 47.7323299,31.9084704 45.6692643,32.9368742 C43.6082847,33.9673641 41.1029845,33.1287873 40.0745807,31.0698937 C39.0440909,29.0068281 39.8805816,26.5036139 41.9415612,25.4710381 C44.0046269,24.4426343 46.509927,25.281211 47.5383308,27.3401047 L47.5383308,27.3401047 Z" id="Stroke-1304" stroke="#1D71B8"></path>
                <path d="M47.7114698,45.2750081 C46.9020972,47.4298582 44.4948397,48.5229284 42.3399895,47.7135558 C40.1830533,46.9020972 39.0920692,44.4948397 39.9014417,42.3399895 C40.7129003,40.1809673 43.1180719,39.0920692 45.272922,39.9035278 C47.4319442,40.7129003 48.5229284,43.1180719 47.7114698,45.2750081 L47.7114698,45.2750081 Z" id="Stroke-1305" stroke="#1D71B8"></path>
                <path d="M31.2901766,37.5482119 C31.2901766,39.8511689 29.42111,41.7202354 27.118153,41.7202354 C24.815196,41.7202354 22.9461295,39.8511689 22.9461295,37.5482119 C22.9461295,35.2410828 24.815196,33.3761883 27.118153,33.3761883 C29.42111,33.3761883 31.2901766,35.2410828 31.2901766,37.5482119 L31.2901766,37.5482119 Z" id="Stroke-1306" stroke="#1D71B8"></path>
                <polyline id="Stroke-1309" stroke="#424242" points="18.7741059 43.8062472 0 43.8062472 0 0 22.9461295 0 33.3761883 10.4300589 33.3761883 27.118153"></polyline>
                <polyline id="Stroke-1310" stroke="#424242" points="22.9461295 0 22.9461295 10.4300589 33.3761883 10.4300589"></polyline>
                <polygon id="Stroke-1311" stroke="#424242" points="6.25803531 33.3761883 10.4300589 33.3761883 10.4300589 25.0321412 6.25803531 25.0321412"></polygon>
                <polygon id="Stroke-1312" stroke="#424242" points="14.6020824 33.3761883 18.7741059 33.3761883 18.7741059 20.8601177 14.6020824 20.8601177"></polygon>
                <polygon id="Stroke-1313" stroke="#424242" points="10.4300589 33.3761883 14.6020824 33.3761883 14.6020824 14.6020824 10.4300589 14.6020824"></polygon>
                <path d="M4.17202354,33.3761883 L18.7741059,33.3761883" id="Stroke-1314" stroke="#424242"></path>
            </g>
        </g>
    </g>
</svg>